G04 #@! TF.FileFunction,Legend,Bot*
%FSLAX46Y46*%
G04 Gerber Fmt 4.6, Leading zero omitted, Abs format (unit mm)*
G04 Created by KiCad (PCBNEW 4.0.4-stable) date 12/09/16 08:24:26*
%MOMM*%
%LPD*%
G01*
G04 APERTURE LIST*
%ADD10C,0.100000*%
%ADD11C,0.150000*%
%ADD12C,0.200000*%
%ADD13C,0.090000*%
G04 APERTURE END LIST*
D10*
X156470285Y-103965371D02*
X156165523Y-103965371D01*
X156317904Y-104117752D02*
X156317904Y-103812990D01*
X155784571Y-103717752D02*
X155975047Y-103717752D01*
X155994095Y-103908229D01*
X155975047Y-103889181D01*
X155936952Y-103870133D01*
X155841714Y-103870133D01*
X155803618Y-103889181D01*
X155784571Y-103908229D01*
X155765523Y-103946324D01*
X155765523Y-104041562D01*
X155784571Y-104079657D01*
X155803618Y-104098705D01*
X155841714Y-104117752D01*
X155936952Y-104117752D01*
X155975047Y-104098705D01*
X155994095Y-104079657D01*
X155651238Y-103717752D02*
X155517904Y-104117752D01*
X155384571Y-103717752D01*
X153720762Y-103787600D02*
X153758857Y-103768552D01*
X153816000Y-103768552D01*
X153873143Y-103787600D01*
X153911238Y-103825695D01*
X153930286Y-103863790D01*
X153949334Y-103939981D01*
X153949334Y-103997124D01*
X153930286Y-104073314D01*
X153911238Y-104111410D01*
X153873143Y-104149505D01*
X153816000Y-104168552D01*
X153777905Y-104168552D01*
X153720762Y-104149505D01*
X153701714Y-104130457D01*
X153701714Y-103997124D01*
X153777905Y-103997124D01*
X153530286Y-104168552D02*
X153530286Y-103768552D01*
X153301714Y-104168552D01*
X153301714Y-103768552D01*
X153111238Y-104168552D02*
X153111238Y-103768552D01*
X153016000Y-103768552D01*
X152958857Y-103787600D01*
X152920762Y-103825695D01*
X152901714Y-103863790D01*
X152882666Y-103939981D01*
X152882666Y-103997124D01*
X152901714Y-104073314D01*
X152920762Y-104111410D01*
X152958857Y-104149505D01*
X153016000Y-104168552D01*
X153111238Y-104168552D01*
X151180762Y-103819352D02*
X150952190Y-103819352D01*
X151066476Y-104219352D02*
X151066476Y-103819352D01*
X150856952Y-103819352D02*
X150590285Y-104219352D01*
X150590285Y-103819352D02*
X150856952Y-104219352D01*
X148402666Y-104168552D02*
X148536000Y-103978076D01*
X148631238Y-104168552D02*
X148631238Y-103768552D01*
X148478857Y-103768552D01*
X148440762Y-103787600D01*
X148421714Y-103806648D01*
X148402666Y-103844743D01*
X148402666Y-103901886D01*
X148421714Y-103939981D01*
X148440762Y-103959029D01*
X148478857Y-103978076D01*
X148631238Y-103978076D01*
X148269333Y-103768552D02*
X148002666Y-104168552D01*
X148002666Y-103768552D02*
X148269333Y-104168552D01*
D11*
X141986000Y-93980000D02*
X147320000Y-93980000D01*
X147320000Y-93980000D02*
X147320000Y-104140000D01*
X147320000Y-104140000D02*
X141986000Y-104140000D01*
X145288000Y-95260400D02*
X145288000Y-97800400D01*
X145288000Y-97800400D02*
X142494000Y-97800400D01*
X142494000Y-95260400D02*
X142494000Y-97800400D01*
X145288000Y-95260400D02*
X142494000Y-95260400D01*
X145288000Y-100264200D02*
X145288000Y-102804200D01*
X145288000Y-102804200D02*
X142494000Y-102804200D01*
X142494000Y-100264200D02*
X142494000Y-102804200D01*
X145288000Y-100264200D02*
X142494000Y-100264200D01*
X142494000Y-103566200D02*
X147066000Y-103566200D01*
X142494000Y-94498400D02*
X147066000Y-94498400D01*
X147066000Y-99502200D02*
X147066000Y-103566200D01*
X147066000Y-99502200D02*
X142494000Y-99502200D01*
X147066000Y-98562400D02*
X147066000Y-94498400D01*
X147066000Y-98562400D02*
X142494000Y-98562400D01*
X146431000Y-103185200D02*
X143256000Y-103185200D01*
X146431000Y-103185200D02*
X146431000Y-99883200D01*
X146431000Y-99883200D02*
X143256000Y-99883200D01*
X146431000Y-98181400D02*
X143256000Y-98181400D01*
X146431000Y-98181400D02*
X146431000Y-94879400D01*
X146431000Y-94879400D02*
X143256000Y-94879400D01*
X143256000Y-94879400D02*
X143256000Y-95260400D01*
X143256000Y-98181400D02*
X143256000Y-97800400D01*
X143256000Y-99883200D02*
X143256000Y-100264200D01*
X143256000Y-103185200D02*
X143256000Y-102804200D01*
X142113000Y-93940000D02*
X139573000Y-93940000D01*
X141097000Y-104125000D02*
X142113000Y-104125000D01*
X139573000Y-93940000D02*
X139573000Y-104125000D01*
X139573000Y-104125000D02*
X141097000Y-104125000D01*
X142494000Y-94498400D02*
X142494000Y-94879400D01*
X142494000Y-98562400D02*
X142494000Y-98181400D01*
X142494000Y-98181400D02*
X142494000Y-94879400D01*
X142113000Y-93940000D02*
X142113000Y-94879400D01*
X142113000Y-94879400D02*
X142113000Y-98181400D01*
X142113000Y-98181400D02*
X142113000Y-99883200D01*
X142113000Y-104125000D02*
X142113000Y-103185200D01*
X142113000Y-103185200D02*
X142113000Y-99883200D01*
X142494000Y-103566200D02*
X142494000Y-103185200D01*
X142494000Y-99502200D02*
X142494000Y-99883200D01*
X142494000Y-99883200D02*
X142494000Y-103185200D01*
X160641000Y-102708000D02*
X160641000Y-101508000D01*
X158891000Y-101508000D02*
X158891000Y-102708000D01*
X155053000Y-102759000D02*
X155053000Y-101559000D01*
X153303000Y-101559000D02*
X153303000Y-102759000D01*
X158482000Y-102708000D02*
X158482000Y-101508000D01*
X156732000Y-101508000D02*
X156732000Y-102708000D01*
X151200240Y-96450840D02*
X151200240Y-96499100D01*
X150499200Y-99249820D02*
X151200240Y-99249820D01*
X151200240Y-99249820D02*
X151200240Y-99000900D01*
X151200240Y-96450840D02*
X151200240Y-96250180D01*
X151200240Y-96250180D02*
X150499200Y-96250180D01*
D12*
X158362000Y-95239200D02*
X154362000Y-95239200D01*
X154362000Y-95239200D02*
X154362000Y-100239200D01*
X154362000Y-100239200D02*
X158362000Y-100239200D01*
X158362000Y-100239200D02*
X158362000Y-95239200D01*
X158112000Y-95989200D02*
G75*
G03X158112000Y-95989200I-500000J0D01*
G01*
D11*
X152818000Y-102759000D02*
X152818000Y-101559000D01*
X151068000Y-101559000D02*
X151068000Y-102759000D01*
X159504000Y-105752000D02*
X158504000Y-105752000D01*
X158504000Y-104052000D02*
X159504000Y-104052000D01*
X160906880Y-106680860D02*
X175003880Y-106680860D01*
X175003880Y-91694860D02*
X160906880Y-91694860D01*
X160906880Y-106680860D02*
X160906880Y-91694860D01*
X175003880Y-106680860D02*
X175003880Y-91694860D01*
X147575000Y-99450000D02*
X147575000Y-98950000D01*
X148625000Y-98950000D02*
X148625000Y-99450000D01*
X148735000Y-96155500D02*
X148735000Y-97933500D01*
X147465000Y-97933500D02*
X147465000Y-96155500D01*
X147465000Y-96155500D02*
X148735000Y-96155500D01*
X148735000Y-97933500D02*
X147465000Y-97933500D01*
D13*
X140853952Y-94104762D02*
X140453952Y-94104762D01*
X140453952Y-94257143D01*
X140473000Y-94295238D01*
X140492048Y-94314286D01*
X140530143Y-94333334D01*
X140587286Y-94333334D01*
X140625381Y-94314286D01*
X140644429Y-94295238D01*
X140663476Y-94257143D01*
X140663476Y-94104762D01*
X140492048Y-94485714D02*
X140473000Y-94504762D01*
X140453952Y-94542857D01*
X140453952Y-94638095D01*
X140473000Y-94676191D01*
X140492048Y-94695238D01*
X140530143Y-94714286D01*
X140568238Y-94714286D01*
X140625381Y-94695238D01*
X140853952Y-94466667D01*
X140853952Y-94714286D01*
X159832666Y-102250857D02*
X159851714Y-102269905D01*
X159908857Y-102288952D01*
X159946952Y-102288952D01*
X160004095Y-102269905D01*
X160042190Y-102231810D01*
X160061238Y-102193714D01*
X160080286Y-102117524D01*
X160080286Y-102060381D01*
X160061238Y-101984190D01*
X160042190Y-101946095D01*
X160004095Y-101908000D01*
X159946952Y-101888952D01*
X159908857Y-101888952D01*
X159851714Y-101908000D01*
X159832666Y-101927048D01*
X159680286Y-101927048D02*
X159661238Y-101908000D01*
X159623143Y-101888952D01*
X159527905Y-101888952D01*
X159489809Y-101908000D01*
X159470762Y-101927048D01*
X159451714Y-101965143D01*
X159451714Y-102003238D01*
X159470762Y-102060381D01*
X159699333Y-102288952D01*
X159451714Y-102288952D01*
X154244666Y-102301857D02*
X154263714Y-102320905D01*
X154320857Y-102339952D01*
X154358952Y-102339952D01*
X154416095Y-102320905D01*
X154454190Y-102282810D01*
X154473238Y-102244714D01*
X154492286Y-102168524D01*
X154492286Y-102111381D01*
X154473238Y-102035190D01*
X154454190Y-101997095D01*
X154416095Y-101959000D01*
X154358952Y-101939952D01*
X154320857Y-101939952D01*
X154263714Y-101959000D01*
X154244666Y-101978048D01*
X154111333Y-101939952D02*
X153863714Y-101939952D01*
X153997047Y-102092333D01*
X153939905Y-102092333D01*
X153901809Y-102111381D01*
X153882762Y-102130429D01*
X153863714Y-102168524D01*
X153863714Y-102263762D01*
X153882762Y-102301857D01*
X153901809Y-102320905D01*
X153939905Y-102339952D01*
X154054190Y-102339952D01*
X154092286Y-102320905D01*
X154111333Y-102301857D01*
X157673666Y-102250857D02*
X157692714Y-102269905D01*
X157749857Y-102288952D01*
X157787952Y-102288952D01*
X157845095Y-102269905D01*
X157883190Y-102231810D01*
X157902238Y-102193714D01*
X157921286Y-102117524D01*
X157921286Y-102060381D01*
X157902238Y-101984190D01*
X157883190Y-101946095D01*
X157845095Y-101908000D01*
X157787952Y-101888952D01*
X157749857Y-101888952D01*
X157692714Y-101908000D01*
X157673666Y-101927048D01*
X157330809Y-102022286D02*
X157330809Y-102288952D01*
X157426047Y-101869905D02*
X157521286Y-102155619D01*
X157273666Y-102155619D01*
X150330952Y-97445238D02*
X150654762Y-97445238D01*
X150692857Y-97464286D01*
X150711905Y-97483333D01*
X150730952Y-97521429D01*
X150730952Y-97597619D01*
X150711905Y-97635714D01*
X150692857Y-97654762D01*
X150654762Y-97673810D01*
X150330952Y-97673810D01*
X150369048Y-97845238D02*
X150350000Y-97864286D01*
X150330952Y-97902381D01*
X150330952Y-97997619D01*
X150350000Y-98035715D01*
X150369048Y-98054762D01*
X150407143Y-98073810D01*
X150445238Y-98073810D01*
X150502381Y-98054762D01*
X150730952Y-97826191D01*
X150730952Y-98073810D01*
X156666762Y-97266152D02*
X156666762Y-97589962D01*
X156647714Y-97628057D01*
X156628667Y-97647105D01*
X156590571Y-97666152D01*
X156514381Y-97666152D01*
X156476286Y-97647105D01*
X156457238Y-97628057D01*
X156438190Y-97589962D01*
X156438190Y-97266152D01*
X156285809Y-97266152D02*
X156038190Y-97266152D01*
X156171523Y-97418533D01*
X156114381Y-97418533D01*
X156076285Y-97437581D01*
X156057238Y-97456629D01*
X156038190Y-97494724D01*
X156038190Y-97589962D01*
X156057238Y-97628057D01*
X156076285Y-97647105D01*
X156114381Y-97666152D01*
X156228666Y-97666152D01*
X156266762Y-97647105D01*
X156285809Y-97628057D01*
D10*
X158800095Y-94810390D02*
X158723905Y-94810390D01*
X158647714Y-94848486D01*
X158609619Y-94924676D01*
X158609619Y-95000867D01*
X158647714Y-95077057D01*
X158723905Y-95115152D01*
X158800095Y-95115152D01*
X158876286Y-95077057D01*
X158914381Y-95000867D01*
X158914381Y-94924676D01*
X158876286Y-94848486D01*
X158800095Y-94810390D01*
D13*
X152009666Y-102301857D02*
X152028714Y-102320905D01*
X152085857Y-102339952D01*
X152123952Y-102339952D01*
X152181095Y-102320905D01*
X152219190Y-102282810D01*
X152238238Y-102244714D01*
X152257286Y-102168524D01*
X152257286Y-102111381D01*
X152238238Y-102035190D01*
X152219190Y-101997095D01*
X152181095Y-101959000D01*
X152123952Y-101939952D01*
X152085857Y-101939952D01*
X152028714Y-101959000D01*
X152009666Y-101978048D01*
X151647762Y-101939952D02*
X151838238Y-101939952D01*
X151857286Y-102130429D01*
X151838238Y-102111381D01*
X151800143Y-102092333D01*
X151704905Y-102092333D01*
X151666809Y-102111381D01*
X151647762Y-102130429D01*
X151628714Y-102168524D01*
X151628714Y-102263762D01*
X151647762Y-102301857D01*
X151666809Y-102320905D01*
X151704905Y-102339952D01*
X151800143Y-102339952D01*
X151838238Y-102320905D01*
X151857286Y-102301857D01*
X159070667Y-105082952D02*
X159261143Y-105082952D01*
X159261143Y-104682952D01*
X158727809Y-105082952D02*
X158956381Y-105082952D01*
X158842095Y-105082952D02*
X158842095Y-104682952D01*
X158880190Y-104740095D01*
X158918285Y-104778190D01*
X158956381Y-104797238D01*
X162347238Y-94033952D02*
X162347238Y-93633952D01*
X162194857Y-93633952D01*
X162156762Y-93653000D01*
X162137714Y-93672048D01*
X162118666Y-93710143D01*
X162118666Y-93767286D01*
X162137714Y-93805381D01*
X162156762Y-93824429D01*
X162194857Y-93843476D01*
X162347238Y-93843476D01*
X161985333Y-93633952D02*
X161737714Y-93633952D01*
X161871047Y-93786333D01*
X161813905Y-93786333D01*
X161775809Y-93805381D01*
X161756762Y-93824429D01*
X161737714Y-93862524D01*
X161737714Y-93957762D01*
X161756762Y-93995857D01*
X161775809Y-94014905D01*
X161813905Y-94033952D01*
X161928190Y-94033952D01*
X161966286Y-94014905D01*
X161985333Y-93995857D01*
D10*
X148071390Y-95574300D02*
X148109485Y-95555252D01*
X148166628Y-95555252D01*
X148223771Y-95574300D01*
X148261866Y-95612395D01*
X148280914Y-95650490D01*
X148299962Y-95726681D01*
X148299962Y-95783824D01*
X148280914Y-95860014D01*
X148261866Y-95898110D01*
X148223771Y-95936205D01*
X148166628Y-95955252D01*
X148128533Y-95955252D01*
X148071390Y-95936205D01*
X148052342Y-95917157D01*
X148052342Y-95783824D01*
X148128533Y-95783824D01*
X147899962Y-95936205D02*
X147842819Y-95955252D01*
X147747581Y-95955252D01*
X147709485Y-95936205D01*
X147690438Y-95917157D01*
X147671390Y-95879062D01*
X147671390Y-95840967D01*
X147690438Y-95802871D01*
X147709485Y-95783824D01*
X147747581Y-95764776D01*
X147823771Y-95745729D01*
X147861866Y-95726681D01*
X147880914Y-95707633D01*
X147899962Y-95669538D01*
X147899962Y-95631443D01*
X147880914Y-95593348D01*
X147861866Y-95574300D01*
X147823771Y-95555252D01*
X147728533Y-95555252D01*
X147671390Y-95574300D01*
X147290438Y-95955252D02*
X147519010Y-95955252D01*
X147404724Y-95955252D02*
X147404724Y-95555252D01*
X147442819Y-95612395D01*
X147480914Y-95650490D01*
X147519010Y-95669538D01*
M02*
