M48
;DRILL file {KiCad 4.0.4-stable} date 12/09/16 08:26:36
;FORMAT={-:-/ absolute / inch / decimal}
FMAT,2
INCH,TZ
T1C0.016
T2C0.039
T3C0.039
T4C0.040
T5C0.052
%
G90
G05
M72
T1
X5.7559Y-4.0369
X5.7874Y-4.0846
X5.874Y-3.8465
X5.877Y-3.7349
X5.9377Y-3.7425
X5.9997Y-3.7425
X6.1319Y-3.9114
X6.1353Y-3.7623
X6.1592Y-3.9926
T3
X6.3799Y-3.765
X6.3799Y-3.865
X6.3799Y-3.945
X6.3799Y-4.045
T4
X5.84Y-4.14
X5.94Y-4.14
X6.04Y-4.14
X6.14Y-4.14
T5
X5.62Y-3.8
X5.62Y-3.9969
X5.625Y-3.67
T2
X6.4405Y-3.675G85X6.4995Y-3.675
G05
X6.4405Y-4.135G85X6.4995Y-4.135
G05
T0
M30
