M48
;DRILL file {KiCad (2016-04-04 BZR 6663, Git 30f5a7a)-product} date 13/07/2016 18:07:38
;FORMAT={2:4/ absolute / inch / keep zeros}
FMAT,2
INCH,TZ
T1C0.016
T2C0.039
T3C0.039
T4C0.040
T5C0.052
%
G90
G05
M72
T1
X056880Y-038880
X057559Y-040369
X058770Y-037349
X059377Y-037425
X059997Y-037425
X061222Y-038166
X061353Y-037623
X061592Y-039926
X061937Y-037407
T3
X063799Y-037650
X063799Y-038650
X063799Y-039450
X063799Y-040450
T4
X058400Y-041400
X059400Y-041400
X060400Y-041400
X061400Y-041400
T5
X056200Y-038000
X056200Y-039969
X056250Y-036700
T2
X064405Y-036750G85X064995Y-036750
G05
X064405Y-041350G85X064995Y-041350
G05
T0
M30
