G04 #@! TF.FileFunction,Soldermask,Top*
%FSLAX46Y46*%
G04 Gerber Fmt 4.6, Leading zero omitted, Abs format (unit mm)*
G04 Created by KiCad (PCBNEW (2016-04-04 BZR 6663, Git 30f5a7a)-product) date 13/07/2016 18:07:22*
%MOMM*%
G01*
G04 APERTURE LIST*
%ADD10C,0.100000*%
%ADD11R,1.100000X0.650000*%
%ADD12R,0.650000X1.100000*%
%ADD13R,1.687500X1.687500*%
%ADD14R,1.700000X1.100000*%
%ADD15O,4.362400X2.381200*%
%ADD16R,1.100000X1.700000*%
%ADD17R,1.200100X1.200100*%
%ADD18R,1.460000X1.050000*%
%ADD19C,1.901140*%
%ADD20O,4.200000X1.800000*%
%ADD21O,1.400000X1.400000*%
%ADD22R,2.127200X2.100000*%
%ADD23O,2.127200X2.100000*%
%ADD24C,2.400000*%
%ADD25R,1.000000X1.400000*%
G04 APERTURE END LIST*
D10*
D11*
X147730000Y-96564000D03*
X147730000Y-97064000D03*
X147730000Y-97564000D03*
X147730000Y-98064000D03*
X147730000Y-98564000D03*
X147730000Y-99064000D03*
X147730000Y-99564000D03*
X147730000Y-100064000D03*
X147730000Y-100564000D03*
X147730000Y-101064000D03*
X147730000Y-101564000D03*
X147730000Y-102064000D03*
D12*
X148380000Y-102714000D03*
X148880000Y-102714000D03*
X149380000Y-102714000D03*
X149880000Y-102714000D03*
X150380000Y-102714000D03*
X150880000Y-102714000D03*
X151380000Y-102714000D03*
X151880000Y-102714000D03*
X152380000Y-102714000D03*
X152880000Y-102714000D03*
X153380000Y-102714000D03*
X153880000Y-102714000D03*
D11*
X154530000Y-102064000D03*
X154530000Y-101564000D03*
X154530000Y-101064000D03*
X154530000Y-100564000D03*
X154530000Y-100064000D03*
X154530000Y-99564000D03*
X154530000Y-99064000D03*
X154530000Y-98564000D03*
X154530000Y-98064000D03*
X154530000Y-97564000D03*
X154530000Y-97064000D03*
X154530000Y-96564000D03*
D12*
X153880000Y-95914000D03*
X153380000Y-95914000D03*
X152880000Y-95914000D03*
X152380000Y-95914000D03*
X151880000Y-95914000D03*
X151380000Y-95914000D03*
X150880000Y-95914000D03*
X150380000Y-95914000D03*
X149880000Y-95914000D03*
X149380000Y-95914000D03*
X148880000Y-95914000D03*
X148380000Y-95914000D03*
D13*
X153061250Y-101245250D03*
X153061250Y-99957750D03*
X153061250Y-98670250D03*
X153061250Y-97382750D03*
X151773750Y-101245250D03*
X151773750Y-99957750D03*
X151773750Y-98670250D03*
X151773750Y-97382750D03*
X150486250Y-101245250D03*
X150486250Y-99957750D03*
X150486250Y-98670250D03*
X150486250Y-97382750D03*
X149198750Y-101245250D03*
X149198750Y-99957750D03*
X149198750Y-98670250D03*
X149198750Y-97382750D03*
D14*
X145999000Y-95285600D03*
X145999000Y-93385600D03*
D15*
X142748000Y-96520000D03*
X142748000Y-101520000D03*
D16*
X157927000Y-101854000D03*
X159827000Y-101854000D03*
D14*
X145948000Y-101686000D03*
X145948000Y-99786000D03*
D17*
X159827000Y-103520240D03*
X157927000Y-103520240D03*
X158877000Y-105519220D03*
D18*
X159799000Y-98892400D03*
X159799000Y-97942400D03*
X159799000Y-96992400D03*
X157599000Y-96992400D03*
X157599000Y-98892400D03*
X157599000Y-97942400D03*
D19*
X162049880Y-102743860D03*
X162049880Y-100203860D03*
X162049880Y-98171860D03*
X162049880Y-95631860D03*
D20*
X164338000Y-105029000D03*
X164338000Y-93345000D03*
D21*
X158750000Y-93370400D03*
X151130000Y-93370400D03*
X153670000Y-93370400D03*
X148590000Y-93370400D03*
X156210000Y-93370400D03*
D22*
X155956000Y-105156000D03*
D23*
X153416000Y-105156000D03*
X150876000Y-105156000D03*
X148336000Y-105156000D03*
D24*
X142875000Y-93218000D03*
D25*
X157721500Y-100330000D03*
X156896000Y-100330000D03*
M02*
