G04 #@! TF.FileFunction,Copper,L1,Top,Signal*
%FSLAX46Y46*%
G04 Gerber Fmt 4.6, Leading zero omitted, Abs format (unit mm)*
G04 Created by KiCad (PCBNEW (2016-04-04 BZR 6663, Git 30f5a7a)-product) date 05/05/2016 22:09:38*
%MOMM*%
G01*
G04 APERTURE LIST*
%ADD10C,0.100000*%
%ADD11R,0.700000X0.250000*%
%ADD12R,0.250000X0.700000*%
%ADD13R,1.287500X1.287500*%
%ADD14O,3.962400X1.981200*%
%ADD15R,1.300000X0.700000*%
%ADD16R,0.700000X1.300000*%
%ADD17R,0.800100X0.800100*%
%ADD18R,1.060000X0.650000*%
%ADD19C,3.000000*%
%ADD20R,1.727200X2.032000*%
%ADD21O,1.727200X2.032000*%
%ADD22R,1.500000X2.000000*%
%ADD23C,1.501140*%
%ADD24O,3.800000X1.400000*%
%ADD25C,0.860000*%
%ADD26C,0.250000*%
G04 APERTURE END LIST*
D10*
D11*
X147984000Y-94913000D03*
X147984000Y-95413000D03*
X147984000Y-95913000D03*
X147984000Y-96413000D03*
X147984000Y-96913000D03*
X147984000Y-97413000D03*
X147984000Y-97913000D03*
X147984000Y-98413000D03*
X147984000Y-98913000D03*
X147984000Y-99413000D03*
X147984000Y-99913000D03*
X147984000Y-100413000D03*
D12*
X148634000Y-101063000D03*
X149134000Y-101063000D03*
X149634000Y-101063000D03*
X150134000Y-101063000D03*
X150634000Y-101063000D03*
X151134000Y-101063000D03*
X151634000Y-101063000D03*
X152134000Y-101063000D03*
X152634000Y-101063000D03*
X153134000Y-101063000D03*
X153634000Y-101063000D03*
X154134000Y-101063000D03*
D11*
X154784000Y-100413000D03*
X154784000Y-99913000D03*
X154784000Y-99413000D03*
X154784000Y-98913000D03*
X154784000Y-98413000D03*
X154784000Y-97913000D03*
X154784000Y-97413000D03*
X154784000Y-96913000D03*
X154784000Y-96413000D03*
X154784000Y-95913000D03*
X154784000Y-95413000D03*
X154784000Y-94913000D03*
D12*
X154134000Y-94263000D03*
X153634000Y-94263000D03*
X153134000Y-94263000D03*
X152634000Y-94263000D03*
X152134000Y-94263000D03*
X151634000Y-94263000D03*
X151134000Y-94263000D03*
X150634000Y-94263000D03*
X150134000Y-94263000D03*
X149634000Y-94263000D03*
X149134000Y-94263000D03*
X148634000Y-94263000D03*
D13*
X153315250Y-99594250D03*
X153315250Y-98306750D03*
X153315250Y-97019250D03*
X153315250Y-95731750D03*
X152027750Y-99594250D03*
X152027750Y-98306750D03*
X152027750Y-97019250D03*
X152027750Y-95731750D03*
X150740250Y-99594250D03*
X150740250Y-98306750D03*
X150740250Y-97019250D03*
X150740250Y-95731750D03*
X149452750Y-99594250D03*
X149452750Y-98306750D03*
X149452750Y-97019250D03*
X149452750Y-95731750D03*
D14*
X140208000Y-101981000D03*
X140208000Y-96981000D03*
D15*
X159766000Y-92390000D03*
X159766000Y-90490000D03*
X157480000Y-93660000D03*
X157480000Y-91760000D03*
X145288000Y-91252000D03*
X145288000Y-93152000D03*
D16*
X158054000Y-101346000D03*
X159954000Y-101346000D03*
X152720000Y-103378000D03*
X154620000Y-103378000D03*
D17*
X158054000Y-105648760D03*
X159954000Y-105648760D03*
X159004000Y-103649780D03*
D18*
X160104000Y-97597000D03*
X160104000Y-96647000D03*
X160104000Y-95697000D03*
X157904000Y-95697000D03*
X157904000Y-97597000D03*
X157904000Y-96647000D03*
D19*
X139192000Y-90678000D03*
D20*
X155956000Y-105918000D03*
D21*
X153416000Y-105918000D03*
X150876000Y-105918000D03*
X148336000Y-105918000D03*
D22*
X150368000Y-90678000D03*
X152908000Y-90678000D03*
X147828000Y-90678000D03*
X155448000Y-90678000D03*
D23*
X162557880Y-94741140D03*
X162557880Y-97281140D03*
X162557880Y-99313140D03*
X162557880Y-101853140D03*
D24*
X164846000Y-92456000D03*
X164846000Y-104140000D03*
D25*
X146050000Y-100711000D03*
X158115000Y-106807000D03*
X147701000Y-103251000D03*
X155321000Y-93472000D03*
X147701000Y-92710000D03*
X155956000Y-102489000D03*
X156845000Y-96647000D03*
X156718000Y-101346000D03*
X146050000Y-95250000D03*
X152400000Y-93091000D03*
X150749000Y-92329000D03*
D26*
X157237000Y-92003400D02*
X157480000Y-91760000D01*
X151962000Y-92003400D02*
X157237000Y-92003400D01*
X151443000Y-91484500D02*
X151962000Y-92003400D01*
X151443000Y-90678000D02*
X151443000Y-91484500D01*
X150368000Y-90678000D02*
X151443000Y-90678000D01*
X153634000Y-101828000D02*
X153634000Y-101063000D01*
X153227000Y-102235000D02*
X153634000Y-101828000D01*
X152019000Y-102235000D02*
X153227000Y-102235000D01*
X151511000Y-102743000D02*
X152019000Y-102235000D01*
X151511000Y-103759000D02*
X151511000Y-102743000D01*
X153416000Y-105664000D02*
X151511000Y-103759000D01*
X153416000Y-105918000D02*
X153416000Y-105664000D01*
X153315000Y-95731800D02*
X153315000Y-97019200D01*
X155322000Y-95413000D02*
X154784000Y-95413000D01*
X156083000Y-94615000D02*
X155322000Y-95413000D01*
X156083000Y-93599000D02*
X156083000Y-94615000D01*
X156670000Y-92984600D02*
X156083000Y-93599000D01*
X158583000Y-92984600D02*
X156670000Y-92984600D01*
X159033000Y-93435200D02*
X158583000Y-92984600D01*
X160196000Y-93435200D02*
X159033000Y-93435200D01*
X159385000Y-96647000D02*
X160104000Y-96647000D01*
X159004000Y-96266000D02*
X159385000Y-96647000D01*
X159004000Y-95250000D02*
X159004000Y-96266000D01*
X159512000Y-94742000D02*
X159004000Y-95250000D01*
X160340000Y-94742000D02*
X159512000Y-94742000D01*
X160196000Y-94598100D02*
X160340000Y-94742000D01*
X160196000Y-93435200D02*
X160196000Y-94598100D01*
X152908000Y-90678000D02*
X152908000Y-89451200D01*
X160742000Y-92889300D02*
X160196000Y-93435200D01*
X160742000Y-89941400D02*
X160742000Y-92889300D01*
X160153000Y-89352700D02*
X160742000Y-89941400D01*
X153006000Y-89352700D02*
X160153000Y-89352700D01*
X152908000Y-89451200D02*
X153006000Y-89352700D01*
X149098000Y-92519500D02*
X149134000Y-94263000D01*
X149148000Y-92469900D02*
X149098000Y-92519500D01*
X149184000Y-89627300D02*
X149148000Y-92469900D01*
X149458000Y-89352600D02*
X149184000Y-89627300D01*
X152809000Y-89352600D02*
X149458000Y-89352600D01*
X152908000Y-89451200D02*
X152809000Y-89352600D01*
X147096000Y-98413000D02*
X147984000Y-98413000D01*
X146490000Y-97808000D02*
X147096000Y-98413000D01*
X146490000Y-100270000D02*
X146490000Y-97808000D01*
X146050000Y-100711000D02*
X146490000Y-100270000D01*
X160655000Y-94742000D02*
X160340000Y-94742000D01*
X153315000Y-97019200D02*
X153315000Y-95731800D01*
X153945000Y-103378000D02*
X154620000Y-103378000D01*
X153945000Y-103631000D02*
X153945000Y-103378000D01*
X153201000Y-104375000D02*
X153945000Y-103631000D01*
X153162000Y-104375000D02*
X153201000Y-104375000D01*
X153162000Y-106172000D02*
X153162000Y-104375000D01*
X153416000Y-105918000D02*
X153162000Y-106172000D01*
X153315000Y-95731700D02*
X153315000Y-95731600D01*
X153634000Y-95413000D02*
X153315000Y-95731600D01*
X154784000Y-95413000D02*
X153634000Y-95413000D01*
X153315000Y-99594200D02*
X153315000Y-99594300D01*
X153634000Y-99913000D02*
X153315000Y-99594300D01*
X153634000Y-101063000D02*
X153634000Y-99913000D01*
X153315000Y-99594200D02*
X153315000Y-98306800D01*
X153315000Y-99594300D02*
X153315000Y-99594200D01*
X153315000Y-95731600D02*
X153315000Y-95731700D01*
X153315000Y-95731700D02*
X153315000Y-95731800D01*
X157691000Y-105649000D02*
X158053800Y-105649000D01*
X158417000Y-106374000D02*
X157691000Y-105649000D01*
X160490000Y-106374000D02*
X158417000Y-106374000D01*
X160712000Y-106152000D02*
X160490000Y-106374000D01*
X160712000Y-101429000D02*
X160712000Y-106152000D01*
X160629000Y-101346000D02*
X160712000Y-101429000D01*
X159954000Y-101346000D02*
X160629000Y-101346000D01*
X158054000Y-106746000D02*
X158115000Y-106807000D01*
X158054000Y-105649000D02*
X158054000Y-106746000D01*
X158053800Y-105649000D02*
X158054000Y-105649000D01*
X158053800Y-105649000D02*
X158054000Y-105648800D01*
X149293500Y-95572400D02*
X149452800Y-95731700D01*
X149453000Y-95731800D02*
X149293500Y-95572400D01*
X149453000Y-95731700D02*
X149453000Y-95731800D01*
X149134000Y-95413000D02*
X149134000Y-94263000D01*
X149293500Y-95572400D02*
X149134000Y-95413000D01*
X162558000Y-94741300D02*
X162558000Y-94741100D01*
X162557900Y-94741200D02*
X162557900Y-94741100D01*
X162558000Y-94741300D02*
X162557900Y-94741200D01*
X162558000Y-94741500D02*
X162558000Y-94741300D01*
X162557000Y-94742000D02*
X162558000Y-94741500D01*
X160782000Y-94742000D02*
X162557000Y-94742000D01*
X160782000Y-94742000D02*
X160655000Y-94742000D01*
X153315000Y-95731700D02*
X153315300Y-95731700D01*
X153315000Y-97984900D02*
X153315000Y-97663000D01*
X153315000Y-97984900D02*
X153315000Y-97663000D01*
X153315000Y-99594200D02*
X153315300Y-99594200D01*
X153315000Y-98145800D02*
X153315000Y-97984900D01*
X153315000Y-98145800D02*
X153315000Y-97984900D01*
X153315000Y-97663000D02*
X153315000Y-97341100D01*
X153315000Y-97663000D02*
X153315000Y-97341100D01*
X153315000Y-98226300D02*
X153315000Y-98145800D01*
X153315000Y-98226300D02*
X153315000Y-98145800D01*
X153315000Y-97341100D02*
X153315000Y-97180100D01*
X153315000Y-97341100D02*
X153315000Y-97180100D01*
X153315000Y-98266500D02*
X153315000Y-98226300D01*
X153315000Y-98266500D02*
X153315000Y-98226300D01*
X153315000Y-97180100D02*
X153315000Y-97099600D01*
X153315000Y-97180100D02*
X153315000Y-97099600D01*
X153315000Y-98286600D02*
X153315000Y-98266500D01*
X153315000Y-98286600D02*
X153315000Y-98266500D01*
X153315000Y-97099600D02*
X153315000Y-97059400D01*
X153315000Y-97099600D02*
X153315000Y-97059400D01*
X153315000Y-98296700D02*
X153315000Y-98286600D01*
X153315000Y-98296700D02*
X153315000Y-98286600D01*
X153315000Y-97059400D02*
X153315000Y-97039300D01*
X153315000Y-97059400D02*
X153315000Y-97039300D01*
X153315000Y-98301700D02*
X153315000Y-98296700D01*
X153315000Y-98301700D02*
X153315000Y-98296700D01*
X153315000Y-97039300D02*
X153315000Y-97029200D01*
X153315000Y-97039300D02*
X153315000Y-97029200D01*
X153315000Y-98304200D02*
X153315000Y-98301700D01*
X153315000Y-98304200D02*
X153315000Y-98301700D01*
X153315000Y-97029200D02*
X153315000Y-97024200D01*
X153315000Y-97029200D02*
X153315000Y-97024200D01*
X153315000Y-98306800D02*
X153315000Y-98305500D01*
X153315000Y-98305500D02*
X153315000Y-98304200D01*
X153315000Y-98306800D02*
X153315000Y-98305500D01*
X153315000Y-98305500D02*
X153315000Y-98304200D01*
X153315300Y-98305800D02*
X153315300Y-98306700D01*
X153315000Y-98305500D02*
X153315300Y-98305800D01*
X153315000Y-97024200D02*
X153315000Y-97021700D01*
X153315000Y-97021700D02*
X153315000Y-97019200D01*
X153315000Y-97024200D02*
X153315000Y-97021700D01*
X153315000Y-97021700D02*
X153315000Y-97019200D01*
X153315300Y-97021400D02*
X153315300Y-97019200D01*
X153315000Y-97021700D02*
X153315300Y-97021400D01*
X146263000Y-91252000D02*
X145288000Y-91252000D01*
X146753000Y-90762600D02*
X146263000Y-91252000D01*
X146753000Y-90678000D02*
X146753000Y-90762600D01*
X147828000Y-90678000D02*
X146753000Y-90678000D01*
X145034800Y-91927300D02*
X145288000Y-91927300D01*
X144312400Y-92649700D02*
X145034800Y-91927300D01*
X144312400Y-94916700D02*
X144312400Y-92649700D01*
X147308700Y-97913000D02*
X144312400Y-94916700D01*
X147984000Y-97913000D02*
X147308700Y-97913000D01*
X145288000Y-91252000D02*
X145288000Y-91927300D01*
X158603000Y-90678000D02*
X155448000Y-90678000D01*
X158791000Y-90490000D02*
X158603000Y-90678000D01*
X159766000Y-90490000D02*
X158791000Y-90490000D01*
X154134000Y-101063000D02*
X154134000Y-102279000D01*
X154134000Y-102279000D02*
X153035000Y-103378000D01*
X153035000Y-103378000D02*
X152720000Y-103378000D01*
X147984000Y-98913000D02*
X147150502Y-98913000D01*
X147002500Y-102552500D02*
X147701000Y-103251000D01*
X147002500Y-99061002D02*
X147002500Y-102552500D01*
X147150502Y-98913000D02*
X147002500Y-99061002D01*
X155984000Y-102207000D02*
X155984000Y-102461000D01*
X155984000Y-102461000D02*
X155956000Y-102489000D01*
X147323000Y-102873000D02*
X147701000Y-103251000D01*
X147323000Y-102867000D02*
X147323000Y-102873000D01*
X154784000Y-94898000D02*
X154784000Y-94913000D01*
X155321000Y-94361000D02*
X154784000Y-94898000D01*
X155321000Y-93472000D02*
X155321000Y-94361000D01*
X147323000Y-102867000D02*
X147534000Y-103077000D01*
X154889000Y-101112000D02*
X154134000Y-101112000D01*
X155984000Y-102207000D02*
X154889000Y-101112000D01*
X154134000Y-101063000D02*
X154134000Y-101112000D01*
X159954000Y-105649000D02*
X159953800Y-105649000D01*
X159229000Y-105452000D02*
X155984000Y-102207000D01*
X159229000Y-105649000D02*
X159229000Y-105452000D01*
X159953800Y-105649000D02*
X159229000Y-105649000D01*
X159953800Y-105649000D02*
X159954000Y-105648800D01*
X147701000Y-93152000D02*
X147701000Y-92931000D01*
X148540000Y-93152000D02*
X147701000Y-93152000D01*
X148540000Y-93493900D02*
X148540000Y-93152000D01*
X148634000Y-93587700D02*
X148540000Y-93493900D01*
X148634000Y-94263000D02*
X148634000Y-93587700D01*
X147701000Y-92931000D02*
X147701000Y-92710000D01*
X146484300Y-92931000D02*
X146263300Y-93152000D01*
X147701000Y-92931000D02*
X146484300Y-92931000D01*
X145288000Y-93152000D02*
X146263300Y-93152000D01*
X157904000Y-96647000D02*
X156845000Y-96647000D01*
X156718000Y-101346000D02*
X157386000Y-101346000D01*
X157386000Y-101346000D02*
X158054000Y-101346000D01*
X159004000Y-102924000D02*
X159004000Y-103649800D01*
X158964000Y-102924000D02*
X159004000Y-102924000D01*
X157386000Y-101346000D02*
X158964000Y-102924000D01*
X159004000Y-103649800D02*
X159004000Y-103650000D01*
X162558000Y-101853000D02*
X162557900Y-101852900D01*
X158031000Y-96774000D02*
X157904000Y-96647000D01*
X158750000Y-96774000D02*
X158031000Y-96774000D01*
X159004000Y-97028000D02*
X158750000Y-96774000D01*
X159004000Y-98679000D02*
X159004000Y-97028000D01*
X160147000Y-98679000D02*
X159004000Y-98679000D01*
X160147000Y-99442300D02*
X160147000Y-98679000D01*
X161754000Y-101049000D02*
X160147000Y-99442300D01*
X162557900Y-101852900D02*
X161754000Y-101049000D01*
X162557900Y-101852900D02*
X162557900Y-101853100D01*
X154134000Y-93587700D02*
X154134000Y-94263000D01*
X155237000Y-92484800D02*
X154134000Y-93587700D01*
X158696000Y-92484800D02*
X155237000Y-92484800D01*
X158791000Y-92390000D02*
X158696000Y-92484800D01*
X159766000Y-92390000D02*
X158791000Y-92390000D01*
X155459000Y-95913000D02*
X154784000Y-95913000D01*
X157037000Y-94335300D02*
X155459000Y-95913000D01*
X157480000Y-94335300D02*
X157037000Y-94335300D01*
X157480000Y-93660000D02*
X157480000Y-94335300D01*
X160959000Y-97714500D02*
X162557900Y-99313100D01*
X160959000Y-97597000D02*
X160959000Y-97714500D01*
X160104000Y-97597000D02*
X160959000Y-97597000D01*
X162557900Y-99313100D02*
X162558000Y-99313100D01*
X160974000Y-95697000D02*
X160104000Y-95697000D01*
X162558000Y-97281100D02*
X160974000Y-95697000D01*
X162557900Y-97281100D02*
X162558000Y-97281100D01*
X146050000Y-95885000D02*
X146050000Y-95250000D01*
X147078000Y-96913000D02*
X146050000Y-95885000D01*
X147984000Y-96913000D02*
X147078000Y-96913000D01*
X150749000Y-93091000D02*
X152400000Y-93091000D01*
X150134000Y-93706000D02*
X150749000Y-93091000D01*
X150134000Y-94263000D02*
X150134000Y-93706000D01*
X149634000Y-94263000D02*
X149634000Y-93063000D01*
X149860000Y-92837000D02*
X150368000Y-92329000D01*
X149634000Y-93063000D02*
X149860000Y-92837000D01*
X150368000Y-92329000D02*
X150749000Y-92329000D01*
X164846000Y-92456000D02*
X164846000Y-104140000D01*
X155587000Y-96913000D02*
X154784000Y-96913000D01*
X156271000Y-97597000D02*
X155587000Y-96913000D01*
X157904000Y-97597000D02*
X156271000Y-97597000D01*
X155928000Y-96413000D02*
X154784000Y-96413000D01*
X156644000Y-95697000D02*
X155928000Y-96413000D01*
X157904000Y-95697000D02*
X156644000Y-95697000D01*
X147984000Y-101883000D02*
X147984000Y-100413000D01*
X150876000Y-104775000D02*
X147984000Y-101883000D01*
X150876000Y-105918000D02*
X150876000Y-104775000D01*
X148336000Y-106172000D02*
X148336000Y-105918000D01*
X149606000Y-107442000D02*
X148336000Y-106172000D01*
X151511000Y-107442000D02*
X149606000Y-107442000D01*
X152146000Y-106807000D02*
X151511000Y-107442000D01*
X152146000Y-105283000D02*
X152146000Y-106807000D01*
X148634000Y-101771000D02*
X152146000Y-105283000D01*
X148634000Y-101063000D02*
X148634000Y-101771000D01*
X148336000Y-106172000D02*
X148336000Y-105918000D01*
M02*
