G04 #@! TF.FileFunction,Legend,Top*
%FSLAX46Y46*%
G04 Gerber Fmt 4.6, Leading zero omitted, Abs format (unit mm)*
G04 Created by KiCad (PCBNEW 4.0.4-stable) date 12/09/16 08:24:26*
%MOMM*%
%LPD*%
G01*
G04 APERTURE LIST*
%ADD10C,0.100000*%
%ADD11C,0.200000*%
%ADD12C,0.250000*%
%ADD13C,0.150000*%
%ADD14C,0.090000*%
G04 APERTURE END LIST*
D10*
X149825048Y-92678382D02*
X149825048Y-92926001D01*
X149672667Y-92792668D01*
X149672667Y-92849810D01*
X149653619Y-92887906D01*
X149634571Y-92906953D01*
X149596476Y-92926001D01*
X149501238Y-92926001D01*
X149463143Y-92906953D01*
X149444095Y-92887906D01*
X149425048Y-92849810D01*
X149425048Y-92735525D01*
X149444095Y-92697429D01*
X149463143Y-92678382D01*
X149825048Y-93040286D02*
X149425048Y-93173620D01*
X149825048Y-93306953D01*
X149825048Y-93402191D02*
X149825048Y-93649810D01*
X149672667Y-93516477D01*
X149672667Y-93573619D01*
X149653619Y-93611715D01*
X149634571Y-93630762D01*
X149596476Y-93649810D01*
X149501238Y-93649810D01*
X149463143Y-93630762D01*
X149444095Y-93611715D01*
X149425048Y-93573619D01*
X149425048Y-93459334D01*
X149444095Y-93421238D01*
X149463143Y-93402191D01*
X152092048Y-92837096D02*
X152282524Y-92703762D01*
X152092048Y-92608524D02*
X152492048Y-92608524D01*
X152492048Y-92760905D01*
X152473000Y-92799000D01*
X152453952Y-92818048D01*
X152415857Y-92837096D01*
X152358714Y-92837096D01*
X152320619Y-92818048D01*
X152301571Y-92799000D01*
X152282524Y-92760905D01*
X152282524Y-92608524D01*
X152111095Y-92989476D02*
X152092048Y-93046619D01*
X152092048Y-93141857D01*
X152111095Y-93179953D01*
X152130143Y-93199000D01*
X152168238Y-93218048D01*
X152206333Y-93218048D01*
X152244429Y-93199000D01*
X152263476Y-93179953D01*
X152282524Y-93141857D01*
X152301571Y-93065667D01*
X152320619Y-93027572D01*
X152339667Y-93008524D01*
X152377762Y-92989476D01*
X152415857Y-92989476D01*
X152453952Y-93008524D01*
X152473000Y-93027572D01*
X152492048Y-93065667D01*
X152492048Y-93160905D01*
X152473000Y-93218048D01*
X152492048Y-93332333D02*
X152492048Y-93560905D01*
X152092048Y-93446619D02*
X152492048Y-93446619D01*
X154797143Y-92799000D02*
X154778095Y-92779952D01*
X154759048Y-92722809D01*
X154759048Y-92684714D01*
X154778095Y-92627571D01*
X154816190Y-92589476D01*
X154854286Y-92570428D01*
X154930476Y-92551380D01*
X154987619Y-92551380D01*
X155063810Y-92570428D01*
X155101905Y-92589476D01*
X155140000Y-92627571D01*
X155159048Y-92684714D01*
X155159048Y-92722809D01*
X155140000Y-92779952D01*
X155120952Y-92799000D01*
X154759048Y-93160904D02*
X154759048Y-92970428D01*
X155159048Y-92970428D01*
X154759048Y-93294238D02*
X155159048Y-93294238D01*
X154759048Y-93522810D02*
X154987619Y-93351381D01*
X155159048Y-93522810D02*
X154930476Y-93294238D01*
X157553000Y-92684714D02*
X157572048Y-92646619D01*
X157572048Y-92589476D01*
X157553000Y-92532333D01*
X157514905Y-92494238D01*
X157476810Y-92475190D01*
X157400619Y-92456142D01*
X157343476Y-92456142D01*
X157267286Y-92475190D01*
X157229190Y-92494238D01*
X157191095Y-92532333D01*
X157172048Y-92589476D01*
X157172048Y-92627571D01*
X157191095Y-92684714D01*
X157210143Y-92703762D01*
X157343476Y-92703762D01*
X157343476Y-92627571D01*
X157172048Y-92875190D02*
X157572048Y-92875190D01*
X157172048Y-93103762D01*
X157572048Y-93103762D01*
X157172048Y-93294238D02*
X157572048Y-93294238D01*
X157572048Y-93389476D01*
X157553000Y-93446619D01*
X157514905Y-93484714D01*
X157476810Y-93503762D01*
X157400619Y-93522810D01*
X157343476Y-93522810D01*
X157267286Y-93503762D01*
X157229190Y-93484714D01*
X157191095Y-93446619D01*
X157172048Y-93389476D01*
X157172048Y-93294238D01*
X159585048Y-92427476D02*
X159985048Y-92427476D01*
X159985048Y-92522714D01*
X159966000Y-92579857D01*
X159927905Y-92617952D01*
X159889810Y-92637000D01*
X159813619Y-92656048D01*
X159756476Y-92656048D01*
X159680286Y-92637000D01*
X159642190Y-92617952D01*
X159604095Y-92579857D01*
X159585048Y-92522714D01*
X159585048Y-92427476D01*
X159585048Y-92827476D02*
X159985048Y-92827476D01*
X159985048Y-93094143D02*
X159985048Y-93170333D01*
X159966000Y-93208428D01*
X159927905Y-93246524D01*
X159851714Y-93265571D01*
X159718381Y-93265571D01*
X159642190Y-93246524D01*
X159604095Y-93208428D01*
X159585048Y-93170333D01*
X159585048Y-93094143D01*
X159604095Y-93056047D01*
X159642190Y-93017952D01*
X159718381Y-92998904D01*
X159851714Y-92998904D01*
X159927905Y-93017952D01*
X159966000Y-93056047D01*
X159985048Y-93094143D01*
D11*
X142116000Y-104194000D02*
X146942000Y-104194000D01*
D12*
X141906571Y-104225048D02*
X141906571Y-105601238D01*
X141835143Y-105763143D01*
X141763714Y-105844095D01*
X141620857Y-105925048D01*
X141335143Y-105925048D01*
X141192285Y-105844095D01*
X141120857Y-105763143D01*
X141049428Y-105601238D01*
X141049428Y-104225048D01*
D10*
X142352381Y-105361905D02*
X142352381Y-104561905D01*
X142542857Y-104561905D01*
X142657143Y-104600000D01*
X142733334Y-104676190D01*
X142771429Y-104752381D01*
X142809524Y-104904762D01*
X142809524Y-105019048D01*
X142771429Y-105171429D01*
X142733334Y-105247619D01*
X142657143Y-105323810D01*
X142542857Y-105361905D01*
X142352381Y-105361905D01*
X143152381Y-104942857D02*
X143419048Y-104942857D01*
X143533334Y-105361905D02*
X143152381Y-105361905D01*
X143152381Y-104561905D01*
X143533334Y-104561905D01*
X143761905Y-104561905D02*
X144028572Y-105361905D01*
X144295239Y-104561905D01*
X144561905Y-105361905D02*
X144561905Y-104561905D01*
X145400000Y-105285714D02*
X145361905Y-105323810D01*
X145247619Y-105361905D01*
X145171429Y-105361905D01*
X145057143Y-105323810D01*
X144980952Y-105247619D01*
X144942857Y-105171429D01*
X144904762Y-105019048D01*
X144904762Y-104904762D01*
X144942857Y-104752381D01*
X144980952Y-104676190D01*
X145057143Y-104600000D01*
X145171429Y-104561905D01*
X145247619Y-104561905D01*
X145361905Y-104600000D01*
X145400000Y-104638095D01*
X145742857Y-104942857D02*
X146009524Y-104942857D01*
X146123810Y-105361905D02*
X145742857Y-105361905D01*
X145742857Y-104561905D01*
X146123810Y-104561905D01*
X146428572Y-105323810D02*
X146542858Y-105361905D01*
X146733334Y-105361905D01*
X146809524Y-105323810D01*
X146847620Y-105285714D01*
X146885715Y-105209524D01*
X146885715Y-105133333D01*
X146847620Y-105057143D01*
X146809524Y-105019048D01*
X146733334Y-104980952D01*
X146580953Y-104942857D01*
X146504762Y-104904762D01*
X146466667Y-104866667D01*
X146428572Y-104790476D01*
X146428572Y-104714286D01*
X146466667Y-104638095D01*
X146504762Y-104600000D01*
X146580953Y-104561905D01*
X146771429Y-104561905D01*
X146885715Y-104600000D01*
X142685715Y-103685714D02*
X142647620Y-103723810D01*
X142533334Y-103761905D01*
X142457144Y-103761905D01*
X142342858Y-103723810D01*
X142266667Y-103647619D01*
X142228572Y-103571429D01*
X142190477Y-103419048D01*
X142190477Y-103304762D01*
X142228572Y-103152381D01*
X142266667Y-103076190D01*
X142342858Y-103000000D01*
X142457144Y-102961905D01*
X142533334Y-102961905D01*
X142647620Y-103000000D01*
X142685715Y-103038095D01*
X142990477Y-103533333D02*
X143371429Y-103533333D01*
X142914286Y-103761905D02*
X143180953Y-102961905D01*
X143447620Y-103761905D01*
X143714286Y-103761905D02*
X143714286Y-102961905D01*
X144171429Y-103761905D01*
X144171429Y-102961905D01*
X143629286Y-105716429D02*
X143629286Y-106202143D01*
X143657858Y-106259286D01*
X143686429Y-106287857D01*
X143743572Y-106316429D01*
X143857858Y-106316429D01*
X143915000Y-106287857D01*
X143943572Y-106259286D01*
X143972143Y-106202143D01*
X143972143Y-105716429D01*
X144600714Y-106259286D02*
X144572143Y-106287857D01*
X144486429Y-106316429D01*
X144429286Y-106316429D01*
X144343571Y-106287857D01*
X144286429Y-106230714D01*
X144257857Y-106173571D01*
X144229286Y-106059286D01*
X144229286Y-105973571D01*
X144257857Y-105859286D01*
X144286429Y-105802143D01*
X144343571Y-105745000D01*
X144429286Y-105716429D01*
X144486429Y-105716429D01*
X144572143Y-105745000D01*
X144600714Y-105773571D01*
X145200714Y-106259286D02*
X145172143Y-106287857D01*
X145086429Y-106316429D01*
X145029286Y-106316429D01*
X144943571Y-106287857D01*
X144886429Y-106230714D01*
X144857857Y-106173571D01*
X144829286Y-106059286D01*
X144829286Y-105973571D01*
X144857857Y-105859286D01*
X144886429Y-105802143D01*
X144943571Y-105745000D01*
X145029286Y-105716429D01*
X145086429Y-105716429D01*
X145172143Y-105745000D01*
X145200714Y-105773571D01*
X145657857Y-106002143D02*
X145743571Y-106030714D01*
X145772143Y-106059286D01*
X145800714Y-106116429D01*
X145800714Y-106202143D01*
X145772143Y-106259286D01*
X145743571Y-106287857D01*
X145686429Y-106316429D01*
X145457857Y-106316429D01*
X145457857Y-105716429D01*
X145657857Y-105716429D01*
X145715000Y-105745000D01*
X145743571Y-105773571D01*
X145772143Y-105830714D01*
X145772143Y-105887857D01*
X145743571Y-105945000D01*
X145715000Y-105973571D01*
X145657857Y-106002143D01*
X145457857Y-106002143D01*
X146372143Y-106316429D02*
X146029286Y-106316429D01*
X146200714Y-106316429D02*
X146200714Y-105716429D01*
X146143571Y-105802143D01*
X146086429Y-105859286D01*
X146029286Y-105887857D01*
X146629286Y-106259286D02*
X146657858Y-106287857D01*
X146629286Y-106316429D01*
X146600715Y-106287857D01*
X146629286Y-106259286D01*
X146629286Y-106316429D01*
X146886429Y-105773571D02*
X146915000Y-105745000D01*
X146972143Y-105716429D01*
X147115000Y-105716429D01*
X147172143Y-105745000D01*
X147200714Y-105773571D01*
X147229286Y-105830714D01*
X147229286Y-105887857D01*
X147200714Y-105973571D01*
X146857857Y-106316429D01*
X147229286Y-106316429D01*
D13*
X146874000Y-93735600D02*
X146874000Y-94935600D01*
X145124000Y-94935600D02*
X145124000Y-93735600D01*
X159477000Y-102729000D02*
X158277000Y-102729000D01*
X158277000Y-100979000D02*
X159477000Y-100979000D01*
X146823000Y-100136000D02*
X146823000Y-101336000D01*
X145073000Y-101336000D02*
X145073000Y-100136000D01*
X157577840Y-105171240D02*
X157626100Y-105171240D01*
X160376820Y-104470200D02*
X160376820Y-105171240D01*
X160376820Y-105171240D02*
X160127900Y-105171240D01*
X157577840Y-105171240D02*
X157377180Y-105171240D01*
X157377180Y-105171240D02*
X157377180Y-104470200D01*
X159199000Y-99642400D02*
G75*
G03X159199000Y-99642400I-100000J0D01*
G01*
X158449000Y-99392400D02*
X158949000Y-99392400D01*
X158449000Y-96492400D02*
X158449000Y-99392400D01*
X158949000Y-96492400D02*
X158449000Y-96492400D01*
X158949000Y-99392400D02*
X158949000Y-96492400D01*
X147605000Y-95639000D02*
X147705000Y-95589000D01*
X147380000Y-95489000D02*
X147605000Y-95639000D01*
X147630000Y-95814000D02*
X147380000Y-95489000D01*
X147880000Y-95489000D02*
X147630000Y-95814000D01*
X147380000Y-95489000D02*
X147880000Y-95489000D01*
X154755000Y-95689000D02*
X154755000Y-96214000D01*
X147505000Y-102939000D02*
X147505000Y-102414000D01*
X154755000Y-102939000D02*
X154755000Y-102414000D01*
X147505000Y-102939000D02*
X148030000Y-102939000D01*
X154755000Y-102939000D02*
X154230000Y-102939000D01*
X154755000Y-95689000D02*
X154230000Y-95689000D01*
X156388000Y-100965000D02*
X158166000Y-100965000D01*
X158166000Y-99695000D02*
X156388000Y-99695000D01*
X156388000Y-99695000D02*
X156388000Y-100965000D01*
X158166000Y-100965000D02*
X158166000Y-99695000D01*
D14*
X145932334Y-94516552D02*
X145799000Y-94326076D01*
X145703762Y-94516552D02*
X145703762Y-94116552D01*
X145856143Y-94116552D01*
X145894238Y-94135600D01*
X145913286Y-94154648D01*
X145932334Y-94192743D01*
X145932334Y-94249886D01*
X145913286Y-94287981D01*
X145894238Y-94307029D01*
X145856143Y-94326076D01*
X145703762Y-94326076D01*
X146065667Y-94116552D02*
X146313286Y-94116552D01*
X146179953Y-94268933D01*
X146237095Y-94268933D01*
X146275191Y-94287981D01*
X146294238Y-94307029D01*
X146313286Y-94345124D01*
X146313286Y-94440362D01*
X146294238Y-94478457D01*
X146275191Y-94497505D01*
X146237095Y-94516552D01*
X146122810Y-94516552D01*
X146084714Y-94497505D01*
X146065667Y-94478457D01*
X158810334Y-101996857D02*
X158791286Y-102015905D01*
X158734143Y-102034952D01*
X158696048Y-102034952D01*
X158638905Y-102015905D01*
X158600810Y-101977810D01*
X158581762Y-101939714D01*
X158562714Y-101863524D01*
X158562714Y-101806381D01*
X158581762Y-101730190D01*
X158600810Y-101692095D01*
X158638905Y-101654000D01*
X158696048Y-101634952D01*
X158734143Y-101634952D01*
X158791286Y-101654000D01*
X158810334Y-101673048D01*
X158943667Y-101634952D02*
X159210334Y-101634952D01*
X159038905Y-102034952D01*
X145881334Y-100878857D02*
X145862286Y-100897905D01*
X145805143Y-100916952D01*
X145767048Y-100916952D01*
X145709905Y-100897905D01*
X145671810Y-100859810D01*
X145652762Y-100821714D01*
X145633714Y-100745524D01*
X145633714Y-100688381D01*
X145652762Y-100612190D01*
X145671810Y-100574095D01*
X145709905Y-100536000D01*
X145767048Y-100516952D01*
X145805143Y-100516952D01*
X145862286Y-100536000D01*
X145881334Y-100555048D01*
X146109905Y-100688381D02*
X146071810Y-100669333D01*
X146052762Y-100650286D01*
X146033714Y-100612190D01*
X146033714Y-100593143D01*
X146052762Y-100555048D01*
X146071810Y-100536000D01*
X146109905Y-100516952D01*
X146186095Y-100516952D01*
X146224191Y-100536000D01*
X146243238Y-100555048D01*
X146262286Y-100593143D01*
X146262286Y-100612190D01*
X146243238Y-100650286D01*
X146224191Y-100669333D01*
X146186095Y-100688381D01*
X146109905Y-100688381D01*
X146071810Y-100707429D01*
X146052762Y-100726476D01*
X146033714Y-100764571D01*
X146033714Y-100840762D01*
X146052762Y-100878857D01*
X146071810Y-100897905D01*
X146109905Y-100916952D01*
X146186095Y-100916952D01*
X146224191Y-100897905D01*
X146243238Y-100878857D01*
X146262286Y-100840762D01*
X146262286Y-100764571D01*
X146243238Y-100726476D01*
X146224191Y-100707429D01*
X146186095Y-100688381D01*
X158572238Y-104301952D02*
X158572238Y-104625762D01*
X158591286Y-104663857D01*
X158610333Y-104682905D01*
X158648429Y-104701952D01*
X158724619Y-104701952D01*
X158762714Y-104682905D01*
X158781762Y-104663857D01*
X158800810Y-104625762D01*
X158800810Y-104301952D01*
X159162715Y-104435286D02*
X159162715Y-104701952D01*
X159067477Y-104282905D02*
X158972238Y-104568619D01*
X159219858Y-104568619D01*
X159664238Y-95945352D02*
X159664238Y-96269162D01*
X159683286Y-96307257D01*
X159702333Y-96326305D01*
X159740429Y-96345352D01*
X159816619Y-96345352D01*
X159854714Y-96326305D01*
X159873762Y-96307257D01*
X159892810Y-96269162D01*
X159892810Y-95945352D01*
X160273762Y-95945352D02*
X160083286Y-95945352D01*
X160064238Y-96135829D01*
X160083286Y-96116781D01*
X160121381Y-96097733D01*
X160216619Y-96097733D01*
X160254715Y-96116781D01*
X160273762Y-96135829D01*
X160292810Y-96173924D01*
X160292810Y-96269162D01*
X160273762Y-96307257D01*
X160254715Y-96326305D01*
X160216619Y-96345352D01*
X160121381Y-96345352D01*
X160083286Y-96326305D01*
X160064238Y-96307257D01*
X147523238Y-94776952D02*
X147523238Y-95100762D01*
X147542286Y-95138857D01*
X147561333Y-95157905D01*
X147599429Y-95176952D01*
X147675619Y-95176952D01*
X147713714Y-95157905D01*
X147732762Y-95138857D01*
X147751810Y-95100762D01*
X147751810Y-94776952D01*
X148151810Y-95176952D02*
X147923238Y-95176952D01*
X148037524Y-95176952D02*
X148037524Y-94776952D01*
X147999429Y-94834095D01*
X147961334Y-94872190D01*
X147923238Y-94891238D01*
D10*
X155806800Y-100301390D02*
X155787752Y-100339485D01*
X155787752Y-100396628D01*
X155806800Y-100453771D01*
X155844895Y-100491866D01*
X155882990Y-100510914D01*
X155959181Y-100529962D01*
X156016324Y-100529962D01*
X156092514Y-100510914D01*
X156130610Y-100491866D01*
X156168705Y-100453771D01*
X156187752Y-100396628D01*
X156187752Y-100358533D01*
X156168705Y-100301390D01*
X156149657Y-100282342D01*
X156016324Y-100282342D01*
X156016324Y-100358533D01*
X156168705Y-100129962D02*
X156187752Y-100072819D01*
X156187752Y-99977581D01*
X156168705Y-99939485D01*
X156149657Y-99920438D01*
X156111562Y-99901390D01*
X156073467Y-99901390D01*
X156035371Y-99920438D01*
X156016324Y-99939485D01*
X155997276Y-99977581D01*
X155978229Y-100053771D01*
X155959181Y-100091866D01*
X155940133Y-100110914D01*
X155902038Y-100129962D01*
X155863943Y-100129962D01*
X155825848Y-100110914D01*
X155806800Y-100091866D01*
X155787752Y-100053771D01*
X155787752Y-99958533D01*
X155806800Y-99901390D01*
X155787752Y-99768057D02*
X155787752Y-99520438D01*
X155940133Y-99653771D01*
X155940133Y-99596629D01*
X155959181Y-99558533D01*
X155978229Y-99539486D01*
X156016324Y-99520438D01*
X156111562Y-99520438D01*
X156149657Y-99539486D01*
X156168705Y-99558533D01*
X156187752Y-99596629D01*
X156187752Y-99710914D01*
X156168705Y-99749010D01*
X156149657Y-99768057D01*
M02*
