G04 #@! TF.FileFunction,Copper,L2,Bot,Signal*
%FSLAX46Y46*%
G04 Gerber Fmt 4.6, Leading zero omitted, Abs format (unit mm)*
G04 Created by KiCad (PCBNEW 4.0.4-stable) date 12/09/16 08:24:26*
%MOMM*%
%LPD*%
G01*
G04 APERTURE LIST*
%ADD10C,0.100000*%
%ADD11O,3.962400X1.981200*%
%ADD12R,1.300000X0.700000*%
%ADD13R,0.800100X0.800100*%
%ADD14R,1.450000X0.600000*%
%ADD15R,1.000000X1.250000*%
%ADD16C,1.501140*%
%ADD17O,3.800000X1.400000*%
%ADD18R,1.727200X1.700000*%
%ADD19O,1.727200X1.700000*%
%ADD20C,2.000000*%
%ADD21C,1.000000*%
%ADD22R,0.600000X0.400000*%
%ADD23R,1.000000X0.600000*%
%ADD24C,0.600000*%
%ADD25C,0.250000*%
%ADD26C,0.254000*%
G04 APERTURE END LIST*
D10*
D11*
X142748000Y-96520000D03*
X142748000Y-101520000D03*
D12*
X159766000Y-101158000D03*
X159766000Y-103058000D03*
X154178000Y-101209000D03*
X154178000Y-103109000D03*
X157607000Y-101158000D03*
X157607000Y-103058000D03*
D13*
X149549240Y-98700000D03*
X149549240Y-96800000D03*
X151548220Y-97750000D03*
D14*
X159362000Y-95834200D03*
X159362000Y-97104200D03*
X159362000Y-98374200D03*
X159362000Y-99644200D03*
X153362000Y-99644200D03*
X153362000Y-98374200D03*
X153362000Y-97104200D03*
X153362000Y-95834200D03*
D12*
X151943000Y-101209000D03*
X151943000Y-103109000D03*
D15*
X158004000Y-104902000D03*
X160004000Y-104902000D03*
D16*
X162049880Y-102743860D03*
X162049880Y-100203860D03*
X162049880Y-98171860D03*
X162049880Y-95631860D03*
D17*
X164338000Y-105029000D03*
X164338000Y-93345000D03*
D18*
X155956000Y-105156000D03*
D19*
X153416000Y-105156000D03*
X150876000Y-105156000D03*
X148336000Y-105156000D03*
D20*
X142875000Y-93218000D03*
D21*
X165000000Y-99250000D03*
D22*
X148100000Y-98750000D03*
X148100000Y-99650000D03*
D23*
X148100000Y-97489000D03*
X148100000Y-96663500D03*
D24*
X149198750Y-97700052D03*
X146200900Y-102538200D03*
X155835500Y-95563600D03*
X156443100Y-101412700D03*
X152392100Y-95060200D03*
X150817100Y-95060200D03*
X149274800Y-94866600D03*
X147000000Y-103750000D03*
X155750000Y-99350000D03*
D25*
X151548220Y-97750000D02*
X149248698Y-97750000D01*
X149248698Y-97750000D02*
X149198750Y-97700052D01*
X151548220Y-97750000D02*
X150853500Y-97750000D01*
X158938000Y-93345000D02*
X159613300Y-93345000D01*
X162049900Y-95631900D02*
X161313800Y-95631900D01*
X160412300Y-97104200D02*
X160412300Y-96533400D01*
X161313800Y-95045500D02*
X159613300Y-93345000D01*
X161313800Y-95631900D02*
X161313800Y-95045500D01*
X151943000Y-103109000D02*
X152918300Y-103109000D01*
X158004000Y-104902000D02*
X158004000Y-104078800D01*
X159766000Y-103058000D02*
X159766000Y-103733300D01*
X159362000Y-97104200D02*
X160299700Y-97104200D01*
X160299700Y-97104200D02*
X160412300Y-97104200D01*
X160019200Y-102382700D02*
X159766000Y-102382700D01*
X160891300Y-101510600D02*
X160019200Y-102382700D01*
X160891300Y-97583200D02*
X160891300Y-101510600D01*
X160412300Y-97104200D02*
X160891300Y-97583200D01*
X159766000Y-103058000D02*
X159766000Y-102382700D01*
X153416000Y-105156000D02*
X153416000Y-104093300D01*
X153416000Y-104093300D02*
X153416000Y-103606700D01*
X153416000Y-103606700D02*
X152918300Y-103109000D01*
X153913700Y-103109000D02*
X154178000Y-103109000D01*
X153416000Y-103606700D02*
X153913700Y-103109000D01*
X156580700Y-103109000D02*
X156631700Y-103058000D01*
X154178000Y-103109000D02*
X156580700Y-103109000D01*
X157607000Y-103058000D02*
X156631700Y-103058000D01*
X158004000Y-104078800D02*
X158176800Y-103906000D01*
X158349500Y-103733300D02*
X159766000Y-103733300D01*
X158176800Y-103906000D02*
X158349500Y-103733300D01*
X158004100Y-103733300D02*
X157607000Y-103733300D01*
X158176800Y-103906000D02*
X158004100Y-103733300D01*
X157607000Y-103058000D02*
X157607000Y-103733300D01*
X151943000Y-101209000D02*
X154178000Y-101209000D01*
X146683300Y-103020600D02*
X146200900Y-102538200D01*
X150553400Y-103020600D02*
X146683300Y-103020600D01*
X151689700Y-101884300D02*
X150553400Y-103020600D01*
X151943000Y-101884300D02*
X151689700Y-101884300D01*
X151943000Y-101209000D02*
X151943000Y-101884300D01*
X158646100Y-98374200D02*
X155835500Y-95563600D01*
X159362000Y-98374200D02*
X158646100Y-98374200D01*
X159362000Y-98374200D02*
X160412300Y-98374200D01*
X157607000Y-101158000D02*
X159766000Y-101158000D01*
X160412300Y-100159600D02*
X160412300Y-98374200D01*
X160089200Y-100482700D02*
X160412300Y-100159600D01*
X159766000Y-100482700D02*
X160089200Y-100482700D01*
X159766000Y-101158000D02*
X159766000Y-100482700D01*
X157607000Y-101158000D02*
X156631700Y-101158000D01*
X154178000Y-101209000D02*
X155153300Y-101209000D01*
X156443100Y-101318400D02*
X156443100Y-101412700D01*
X156471300Y-101318400D02*
X156443100Y-101318400D01*
X156631700Y-101158000D02*
X156471300Y-101318400D01*
X155262700Y-101318400D02*
X155153300Y-101209000D01*
X156443100Y-101318400D02*
X155262700Y-101318400D01*
X152311700Y-95140600D02*
X152392100Y-95060200D01*
X152311700Y-95834200D02*
X152311700Y-95140600D01*
X153362000Y-95834200D02*
X152311700Y-95834200D01*
X151425200Y-95060200D02*
X150817100Y-95060200D01*
X152074400Y-94411000D02*
X151425200Y-95060200D01*
X153719600Y-94411000D02*
X152074400Y-94411000D01*
X155625700Y-96317100D02*
X153719600Y-94411000D01*
X155764100Y-96317100D02*
X155625700Y-96317100D01*
X158311700Y-98864700D02*
X155764100Y-96317100D01*
X158311700Y-99644200D02*
X158311700Y-98864700D01*
X159362000Y-99644200D02*
X158311700Y-99644200D01*
X149730500Y-94410900D02*
X149274800Y-94866600D01*
X151354900Y-94410900D02*
X149730500Y-94410900D01*
X151805200Y-93960600D02*
X151354900Y-94410900D01*
X155374100Y-93960600D02*
X151805200Y-93960600D01*
X157247700Y-95834200D02*
X155374100Y-93960600D01*
X159362000Y-95834200D02*
X157247700Y-95834200D01*
X160004000Y-104902000D02*
X160829300Y-104902000D01*
X164338000Y-104902000D02*
X160829300Y-104902000D01*
X164338000Y-104902000D02*
X164338000Y-105029000D01*
X148100000Y-98750000D02*
X148100000Y-97489000D01*
X149549240Y-96800000D02*
X152632800Y-96800000D01*
X152632800Y-96800000D02*
X152937000Y-97104200D01*
X152937000Y-97104200D02*
X153362000Y-97104200D01*
X147450000Y-96520000D02*
X147604440Y-96520000D01*
X142748000Y-96520000D02*
X147450000Y-96520000D01*
X147450000Y-96520000D02*
X147730000Y-96800000D01*
X147730000Y-96800000D02*
X149549240Y-96800000D01*
X147000000Y-103750000D02*
X149456400Y-103750000D01*
X149456400Y-103750000D02*
X150862400Y-105156000D01*
X150862400Y-105156000D02*
X150876000Y-105156000D01*
X153362000Y-99644200D02*
X155455800Y-99644200D01*
X155455800Y-99644200D02*
X155750000Y-99350000D01*
X149549240Y-98700000D02*
X153036200Y-98700000D01*
X153036200Y-98700000D02*
X153362000Y-98374200D01*
X148100000Y-99650000D02*
X143377400Y-99650000D01*
X143377400Y-99650000D02*
X142748000Y-100279400D01*
X142748000Y-100279400D02*
X142748000Y-101520000D01*
X149549240Y-98700000D02*
X148599240Y-99650000D01*
X148599240Y-99650000D02*
X148100000Y-99650000D01*
X142748000Y-101520000D02*
X143285200Y-101520000D01*
X142748000Y-101520000D02*
X144555200Y-101520000D01*
D26*
G36*
X158131000Y-104775000D02*
X158151000Y-104775000D01*
X158151000Y-105029000D01*
X158131000Y-105029000D01*
X158131000Y-106003250D01*
X158289750Y-106162000D01*
X158630309Y-106162000D01*
X158863698Y-106065327D01*
X159042327Y-105886699D01*
X159139000Y-105653310D01*
X159139000Y-105651699D01*
X159142103Y-105668190D01*
X159225546Y-105797865D01*
X159352866Y-105884859D01*
X159504000Y-105915464D01*
X160504000Y-105915464D01*
X160645190Y-105888897D01*
X160774865Y-105805454D01*
X160861859Y-105678134D01*
X160892464Y-105527000D01*
X160892464Y-105408000D01*
X161873000Y-105408000D01*
X161873000Y-106224000D01*
X157131771Y-106224000D01*
X157177459Y-106157134D01*
X157192045Y-106085103D01*
X157377691Y-106162000D01*
X157718250Y-106162000D01*
X157877000Y-106003250D01*
X157877000Y-105029000D01*
X157857000Y-105029000D01*
X157857000Y-104775000D01*
X157877000Y-104775000D01*
X157877000Y-104755000D01*
X158131000Y-104755000D01*
X158131000Y-104775000D01*
X158131000Y-104775000D01*
G37*
X158131000Y-104775000D02*
X158151000Y-104775000D01*
X158151000Y-105029000D01*
X158131000Y-105029000D01*
X158131000Y-106003250D01*
X158289750Y-106162000D01*
X158630309Y-106162000D01*
X158863698Y-106065327D01*
X159042327Y-105886699D01*
X159139000Y-105653310D01*
X159139000Y-105651699D01*
X159142103Y-105668190D01*
X159225546Y-105797865D01*
X159352866Y-105884859D01*
X159504000Y-105915464D01*
X160504000Y-105915464D01*
X160645190Y-105888897D01*
X160774865Y-105805454D01*
X160861859Y-105678134D01*
X160892464Y-105527000D01*
X160892464Y-105408000D01*
X161873000Y-105408000D01*
X161873000Y-106224000D01*
X157131771Y-106224000D01*
X157177459Y-106157134D01*
X157192045Y-106085103D01*
X157377691Y-106162000D01*
X157718250Y-106162000D01*
X157877000Y-106003250D01*
X157877000Y-105029000D01*
X157857000Y-105029000D01*
X157857000Y-104775000D01*
X157877000Y-104775000D01*
X157877000Y-104755000D01*
X158131000Y-104755000D01*
X158131000Y-104775000D01*
G36*
X153543000Y-105029000D02*
X153563000Y-105029000D01*
X153563000Y-105283000D01*
X153543000Y-105283000D01*
X153543000Y-105303000D01*
X153289000Y-105303000D01*
X153289000Y-105283000D01*
X153269000Y-105283000D01*
X153269000Y-105029000D01*
X153289000Y-105029000D01*
X153289000Y-105009000D01*
X153543000Y-105009000D01*
X153543000Y-105029000D01*
X153543000Y-105029000D01*
G37*
X153543000Y-105029000D02*
X153563000Y-105029000D01*
X153563000Y-105283000D01*
X153543000Y-105283000D01*
X153543000Y-105303000D01*
X153289000Y-105303000D01*
X153289000Y-105283000D01*
X153269000Y-105283000D01*
X153269000Y-105029000D01*
X153289000Y-105029000D01*
X153289000Y-105009000D01*
X153543000Y-105009000D01*
X153543000Y-105029000D01*
G36*
X161090022Y-98812006D02*
X161408060Y-99130599D01*
X161545785Y-99187787D01*
X161409734Y-99244002D01*
X161091141Y-99562040D01*
X160918507Y-99977789D01*
X160918114Y-100427956D01*
X161090022Y-100844006D01*
X161408060Y-101162599D01*
X161823809Y-101335233D01*
X161873000Y-101335276D01*
X161873000Y-101612135D01*
X161825784Y-101612094D01*
X161409734Y-101784002D01*
X161091141Y-102102040D01*
X160971584Y-102389965D01*
X160954327Y-102348302D01*
X160775699Y-102169673D01*
X160542310Y-102073000D01*
X160051750Y-102073000D01*
X159893000Y-102231750D01*
X159893000Y-102931000D01*
X159913000Y-102931000D01*
X159913000Y-103185000D01*
X159893000Y-103185000D01*
X159893000Y-103205000D01*
X159639000Y-103205000D01*
X159639000Y-103185000D01*
X157734000Y-103185000D01*
X157734000Y-103205000D01*
X157480000Y-103205000D01*
X157480000Y-103185000D01*
X156480750Y-103185000D01*
X156322000Y-103343750D01*
X156322000Y-103534309D01*
X156418673Y-103767698D01*
X156568510Y-103917536D01*
X155267490Y-103917536D01*
X155366327Y-103818698D01*
X155463000Y-103585309D01*
X155463000Y-103394750D01*
X155304250Y-103236000D01*
X154305000Y-103236000D01*
X154305000Y-103256000D01*
X154051000Y-103256000D01*
X154051000Y-103236000D01*
X152070000Y-103236000D01*
X152070000Y-103935250D01*
X152228750Y-104094000D01*
X152401650Y-104094000D01*
X152138277Y-104377732D01*
X152025331Y-104646083D01*
X151784431Y-104285552D01*
X151497754Y-104094000D01*
X151657250Y-104094000D01*
X151816000Y-103935250D01*
X151816000Y-103236000D01*
X151796000Y-103236000D01*
X151796000Y-102982000D01*
X151816000Y-102982000D01*
X151816000Y-102962000D01*
X152070000Y-102962000D01*
X152070000Y-102982000D01*
X154051000Y-102982000D01*
X154051000Y-102282750D01*
X154305000Y-102282750D01*
X154305000Y-102982000D01*
X155304250Y-102982000D01*
X155463000Y-102823250D01*
X155463000Y-102632691D01*
X155441876Y-102581691D01*
X156322000Y-102581691D01*
X156322000Y-102772250D01*
X156480750Y-102931000D01*
X157480000Y-102931000D01*
X157480000Y-102231750D01*
X157734000Y-102231750D01*
X157734000Y-102931000D01*
X159639000Y-102931000D01*
X159639000Y-102231750D01*
X159480250Y-102073000D01*
X158989690Y-102073000D01*
X158756301Y-102169673D01*
X158686500Y-102239474D01*
X158616699Y-102169673D01*
X158383310Y-102073000D01*
X157892750Y-102073000D01*
X157734000Y-102231750D01*
X157480000Y-102231750D01*
X157321250Y-102073000D01*
X156830690Y-102073000D01*
X156597301Y-102169673D01*
X156418673Y-102348302D01*
X156322000Y-102581691D01*
X155441876Y-102581691D01*
X155366327Y-102399302D01*
X155187699Y-102220673D01*
X154954310Y-102124000D01*
X154463750Y-102124000D01*
X154305000Y-102282750D01*
X154051000Y-102282750D01*
X153892250Y-102124000D01*
X153401690Y-102124000D01*
X153168301Y-102220673D01*
X153060500Y-102328475D01*
X152952699Y-102220673D01*
X152719310Y-102124000D01*
X152379705Y-102124000D01*
X152410483Y-102077938D01*
X152436436Y-101947464D01*
X152593000Y-101947464D01*
X152734190Y-101920897D01*
X152863865Y-101837454D01*
X152947534Y-101715000D01*
X153175633Y-101715000D01*
X153249546Y-101829865D01*
X153376866Y-101916859D01*
X153528000Y-101947464D01*
X154828000Y-101947464D01*
X154969190Y-101920897D01*
X155098865Y-101837454D01*
X155126320Y-101797272D01*
X155262700Y-101824400D01*
X155891841Y-101824400D01*
X156056841Y-101989687D01*
X156307046Y-102093582D01*
X156577965Y-102093818D01*
X156828352Y-101990361D01*
X156928245Y-101890641D01*
X156957000Y-101896464D01*
X158257000Y-101896464D01*
X158398190Y-101869897D01*
X158527865Y-101786454D01*
X158611534Y-101664000D01*
X158763633Y-101664000D01*
X158837546Y-101778865D01*
X158964866Y-101865859D01*
X159116000Y-101896464D01*
X160416000Y-101896464D01*
X160557190Y-101869897D01*
X160686865Y-101786454D01*
X160773859Y-101659134D01*
X160804464Y-101508000D01*
X160804464Y-100808000D01*
X160777897Y-100666810D01*
X160716342Y-100571150D01*
X160770096Y-100517396D01*
X160879783Y-100353238D01*
X160918300Y-100159600D01*
X160918300Y-98396406D01*
X161090022Y-98812006D01*
X161090022Y-98812006D01*
G37*
X161090022Y-98812006D02*
X161408060Y-99130599D01*
X161545785Y-99187787D01*
X161409734Y-99244002D01*
X161091141Y-99562040D01*
X160918507Y-99977789D01*
X160918114Y-100427956D01*
X161090022Y-100844006D01*
X161408060Y-101162599D01*
X161823809Y-101335233D01*
X161873000Y-101335276D01*
X161873000Y-101612135D01*
X161825784Y-101612094D01*
X161409734Y-101784002D01*
X161091141Y-102102040D01*
X160971584Y-102389965D01*
X160954327Y-102348302D01*
X160775699Y-102169673D01*
X160542310Y-102073000D01*
X160051750Y-102073000D01*
X159893000Y-102231750D01*
X159893000Y-102931000D01*
X159913000Y-102931000D01*
X159913000Y-103185000D01*
X159893000Y-103185000D01*
X159893000Y-103205000D01*
X159639000Y-103205000D01*
X159639000Y-103185000D01*
X157734000Y-103185000D01*
X157734000Y-103205000D01*
X157480000Y-103205000D01*
X157480000Y-103185000D01*
X156480750Y-103185000D01*
X156322000Y-103343750D01*
X156322000Y-103534309D01*
X156418673Y-103767698D01*
X156568510Y-103917536D01*
X155267490Y-103917536D01*
X155366327Y-103818698D01*
X155463000Y-103585309D01*
X155463000Y-103394750D01*
X155304250Y-103236000D01*
X154305000Y-103236000D01*
X154305000Y-103256000D01*
X154051000Y-103256000D01*
X154051000Y-103236000D01*
X152070000Y-103236000D01*
X152070000Y-103935250D01*
X152228750Y-104094000D01*
X152401650Y-104094000D01*
X152138277Y-104377732D01*
X152025331Y-104646083D01*
X151784431Y-104285552D01*
X151497754Y-104094000D01*
X151657250Y-104094000D01*
X151816000Y-103935250D01*
X151816000Y-103236000D01*
X151796000Y-103236000D01*
X151796000Y-102982000D01*
X151816000Y-102982000D01*
X151816000Y-102962000D01*
X152070000Y-102962000D01*
X152070000Y-102982000D01*
X154051000Y-102982000D01*
X154051000Y-102282750D01*
X154305000Y-102282750D01*
X154305000Y-102982000D01*
X155304250Y-102982000D01*
X155463000Y-102823250D01*
X155463000Y-102632691D01*
X155441876Y-102581691D01*
X156322000Y-102581691D01*
X156322000Y-102772250D01*
X156480750Y-102931000D01*
X157480000Y-102931000D01*
X157480000Y-102231750D01*
X157734000Y-102231750D01*
X157734000Y-102931000D01*
X159639000Y-102931000D01*
X159639000Y-102231750D01*
X159480250Y-102073000D01*
X158989690Y-102073000D01*
X158756301Y-102169673D01*
X158686500Y-102239474D01*
X158616699Y-102169673D01*
X158383310Y-102073000D01*
X157892750Y-102073000D01*
X157734000Y-102231750D01*
X157480000Y-102231750D01*
X157321250Y-102073000D01*
X156830690Y-102073000D01*
X156597301Y-102169673D01*
X156418673Y-102348302D01*
X156322000Y-102581691D01*
X155441876Y-102581691D01*
X155366327Y-102399302D01*
X155187699Y-102220673D01*
X154954310Y-102124000D01*
X154463750Y-102124000D01*
X154305000Y-102282750D01*
X154051000Y-102282750D01*
X153892250Y-102124000D01*
X153401690Y-102124000D01*
X153168301Y-102220673D01*
X153060500Y-102328475D01*
X152952699Y-102220673D01*
X152719310Y-102124000D01*
X152379705Y-102124000D01*
X152410483Y-102077938D01*
X152436436Y-101947464D01*
X152593000Y-101947464D01*
X152734190Y-101920897D01*
X152863865Y-101837454D01*
X152947534Y-101715000D01*
X153175633Y-101715000D01*
X153249546Y-101829865D01*
X153376866Y-101916859D01*
X153528000Y-101947464D01*
X154828000Y-101947464D01*
X154969190Y-101920897D01*
X155098865Y-101837454D01*
X155126320Y-101797272D01*
X155262700Y-101824400D01*
X155891841Y-101824400D01*
X156056841Y-101989687D01*
X156307046Y-102093582D01*
X156577965Y-102093818D01*
X156828352Y-101990361D01*
X156928245Y-101890641D01*
X156957000Y-101896464D01*
X158257000Y-101896464D01*
X158398190Y-101869897D01*
X158527865Y-101786454D01*
X158611534Y-101664000D01*
X158763633Y-101664000D01*
X158837546Y-101778865D01*
X158964866Y-101865859D01*
X159116000Y-101896464D01*
X160416000Y-101896464D01*
X160557190Y-101869897D01*
X160686865Y-101786454D01*
X160773859Y-101659134D01*
X160804464Y-101508000D01*
X160804464Y-100808000D01*
X160777897Y-100666810D01*
X160716342Y-100571150D01*
X160770096Y-100517396D01*
X160879783Y-100353238D01*
X160918300Y-100159600D01*
X160918300Y-98396406D01*
X161090022Y-98812006D01*
G36*
X141229092Y-92953461D02*
X141253144Y-93603460D01*
X141455613Y-94092264D01*
X141722468Y-94190927D01*
X142695395Y-93218000D01*
X142681253Y-93203858D01*
X142860858Y-93024253D01*
X142875000Y-93038395D01*
X142889143Y-93024253D01*
X143068748Y-93203858D01*
X143054605Y-93218000D01*
X144027532Y-94190927D01*
X144294387Y-94092264D01*
X144520908Y-93482539D01*
X144496856Y-92832540D01*
X144371954Y-92531000D01*
X161873000Y-92531000D01*
X161873000Y-94253488D01*
X161704342Y-94262055D01*
X161325615Y-94418929D01*
X161257555Y-94659930D01*
X161873000Y-95275375D01*
X161873000Y-95988345D01*
X161257555Y-96603790D01*
X161325615Y-96844791D01*
X161844914Y-97029627D01*
X161873000Y-97028200D01*
X161873000Y-97040135D01*
X161825784Y-97040094D01*
X161409734Y-97212002D01*
X161091141Y-97530040D01*
X160918507Y-97945789D01*
X160918134Y-98373364D01*
X160879783Y-98180562D01*
X160770096Y-98016404D01*
X160605938Y-97906717D01*
X160502987Y-97886239D01*
X160625327Y-97763899D01*
X160722000Y-97530510D01*
X160722000Y-97389950D01*
X160563250Y-97231200D01*
X159489000Y-97231200D01*
X159489000Y-97251200D01*
X159235000Y-97251200D01*
X159235000Y-97231200D01*
X159215000Y-97231200D01*
X159215000Y-96977200D01*
X159235000Y-96977200D01*
X159235000Y-96957200D01*
X159489000Y-96957200D01*
X159489000Y-96977200D01*
X160563250Y-96977200D01*
X160722000Y-96818450D01*
X160722000Y-96677890D01*
X160625327Y-96444501D01*
X160448446Y-96267621D01*
X160475464Y-96134200D01*
X160475464Y-95534200D01*
X160455273Y-95426894D01*
X160652113Y-95426894D01*
X160680075Y-95977398D01*
X160836949Y-96356125D01*
X161077950Y-96424185D01*
X161870275Y-95631860D01*
X161077950Y-94839535D01*
X160836949Y-94907595D01*
X160652113Y-95426894D01*
X160455273Y-95426894D01*
X160448897Y-95393010D01*
X160365454Y-95263335D01*
X160238134Y-95176341D01*
X160087000Y-95145736D01*
X158637000Y-95145736D01*
X158495810Y-95172303D01*
X158366135Y-95255746D01*
X158316629Y-95328200D01*
X157457292Y-95328200D01*
X155731896Y-93602804D01*
X155567738Y-93493117D01*
X155374100Y-93454600D01*
X151805200Y-93454600D01*
X151611562Y-93493117D01*
X151447404Y-93602804D01*
X151145308Y-93904900D01*
X149730500Y-93904900D01*
X149536862Y-93943417D01*
X149372704Y-94053104D01*
X149240239Y-94185569D01*
X149139935Y-94185482D01*
X148889548Y-94288939D01*
X148697813Y-94480341D01*
X148593918Y-94730546D01*
X148593682Y-95001465D01*
X148697139Y-95251852D01*
X148888541Y-95443587D01*
X149138746Y-95547482D01*
X149409665Y-95547718D01*
X149660052Y-95444261D01*
X149851787Y-95252859D01*
X149955682Y-95002654D01*
X149955757Y-94916900D01*
X150139227Y-94916900D01*
X150136218Y-94924146D01*
X150135982Y-95195065D01*
X150239439Y-95445452D01*
X150430841Y-95637187D01*
X150681046Y-95741082D01*
X150951965Y-95741318D01*
X151202352Y-95637861D01*
X151274138Y-95566200D01*
X151425200Y-95566200D01*
X151618838Y-95527683D01*
X151782996Y-95417996D01*
X151797218Y-95403774D01*
X151805700Y-95424302D01*
X151805700Y-95834200D01*
X151844217Y-96027838D01*
X151953904Y-96191996D01*
X152106564Y-96294000D01*
X150317818Y-96294000D01*
X150311187Y-96258760D01*
X150227744Y-96129085D01*
X150100424Y-96042091D01*
X149949290Y-96011486D01*
X149149190Y-96011486D01*
X149008000Y-96038053D01*
X148891550Y-96112986D01*
X148878454Y-96092635D01*
X148751134Y-96005641D01*
X148600000Y-95975036D01*
X147600000Y-95975036D01*
X147458810Y-96001603D01*
X147439544Y-96014000D01*
X145055828Y-96014000D01*
X145052071Y-95995111D01*
X144754746Y-95550132D01*
X144309767Y-95252807D01*
X143784878Y-95148400D01*
X141711122Y-95148400D01*
X141186233Y-95252807D01*
X140877000Y-95459430D01*
X140877000Y-94370532D01*
X141902073Y-94370532D01*
X142000736Y-94637387D01*
X142610461Y-94863908D01*
X143260460Y-94839856D01*
X143749264Y-94637387D01*
X143847927Y-94370532D01*
X142875000Y-93397605D01*
X141902073Y-94370532D01*
X140877000Y-94370532D01*
X140877000Y-92531000D01*
X141386042Y-92531000D01*
X141229092Y-92953461D01*
X141229092Y-92953461D01*
G37*
X141229092Y-92953461D02*
X141253144Y-93603460D01*
X141455613Y-94092264D01*
X141722468Y-94190927D01*
X142695395Y-93218000D01*
X142681253Y-93203858D01*
X142860858Y-93024253D01*
X142875000Y-93038395D01*
X142889143Y-93024253D01*
X143068748Y-93203858D01*
X143054605Y-93218000D01*
X144027532Y-94190927D01*
X144294387Y-94092264D01*
X144520908Y-93482539D01*
X144496856Y-92832540D01*
X144371954Y-92531000D01*
X161873000Y-92531000D01*
X161873000Y-94253488D01*
X161704342Y-94262055D01*
X161325615Y-94418929D01*
X161257555Y-94659930D01*
X161873000Y-95275375D01*
X161873000Y-95988345D01*
X161257555Y-96603790D01*
X161325615Y-96844791D01*
X161844914Y-97029627D01*
X161873000Y-97028200D01*
X161873000Y-97040135D01*
X161825784Y-97040094D01*
X161409734Y-97212002D01*
X161091141Y-97530040D01*
X160918507Y-97945789D01*
X160918134Y-98373364D01*
X160879783Y-98180562D01*
X160770096Y-98016404D01*
X160605938Y-97906717D01*
X160502987Y-97886239D01*
X160625327Y-97763899D01*
X160722000Y-97530510D01*
X160722000Y-97389950D01*
X160563250Y-97231200D01*
X159489000Y-97231200D01*
X159489000Y-97251200D01*
X159235000Y-97251200D01*
X159235000Y-97231200D01*
X159215000Y-97231200D01*
X159215000Y-96977200D01*
X159235000Y-96977200D01*
X159235000Y-96957200D01*
X159489000Y-96957200D01*
X159489000Y-96977200D01*
X160563250Y-96977200D01*
X160722000Y-96818450D01*
X160722000Y-96677890D01*
X160625327Y-96444501D01*
X160448446Y-96267621D01*
X160475464Y-96134200D01*
X160475464Y-95534200D01*
X160455273Y-95426894D01*
X160652113Y-95426894D01*
X160680075Y-95977398D01*
X160836949Y-96356125D01*
X161077950Y-96424185D01*
X161870275Y-95631860D01*
X161077950Y-94839535D01*
X160836949Y-94907595D01*
X160652113Y-95426894D01*
X160455273Y-95426894D01*
X160448897Y-95393010D01*
X160365454Y-95263335D01*
X160238134Y-95176341D01*
X160087000Y-95145736D01*
X158637000Y-95145736D01*
X158495810Y-95172303D01*
X158366135Y-95255746D01*
X158316629Y-95328200D01*
X157457292Y-95328200D01*
X155731896Y-93602804D01*
X155567738Y-93493117D01*
X155374100Y-93454600D01*
X151805200Y-93454600D01*
X151611562Y-93493117D01*
X151447404Y-93602804D01*
X151145308Y-93904900D01*
X149730500Y-93904900D01*
X149536862Y-93943417D01*
X149372704Y-94053104D01*
X149240239Y-94185569D01*
X149139935Y-94185482D01*
X148889548Y-94288939D01*
X148697813Y-94480341D01*
X148593918Y-94730546D01*
X148593682Y-95001465D01*
X148697139Y-95251852D01*
X148888541Y-95443587D01*
X149138746Y-95547482D01*
X149409665Y-95547718D01*
X149660052Y-95444261D01*
X149851787Y-95252859D01*
X149955682Y-95002654D01*
X149955757Y-94916900D01*
X150139227Y-94916900D01*
X150136218Y-94924146D01*
X150135982Y-95195065D01*
X150239439Y-95445452D01*
X150430841Y-95637187D01*
X150681046Y-95741082D01*
X150951965Y-95741318D01*
X151202352Y-95637861D01*
X151274138Y-95566200D01*
X151425200Y-95566200D01*
X151618838Y-95527683D01*
X151782996Y-95417996D01*
X151797218Y-95403774D01*
X151805700Y-95424302D01*
X151805700Y-95834200D01*
X151844217Y-96027838D01*
X151953904Y-96191996D01*
X152106564Y-96294000D01*
X150317818Y-96294000D01*
X150311187Y-96258760D01*
X150227744Y-96129085D01*
X150100424Y-96042091D01*
X149949290Y-96011486D01*
X149149190Y-96011486D01*
X149008000Y-96038053D01*
X148891550Y-96112986D01*
X148878454Y-96092635D01*
X148751134Y-96005641D01*
X148600000Y-95975036D01*
X147600000Y-95975036D01*
X147458810Y-96001603D01*
X147439544Y-96014000D01*
X145055828Y-96014000D01*
X145052071Y-95995111D01*
X144754746Y-95550132D01*
X144309767Y-95252807D01*
X143784878Y-95148400D01*
X141711122Y-95148400D01*
X141186233Y-95252807D01*
X140877000Y-95459430D01*
X140877000Y-94370532D01*
X141902073Y-94370532D01*
X142000736Y-94637387D01*
X142610461Y-94863908D01*
X143260460Y-94839856D01*
X143749264Y-94637387D01*
X143847927Y-94370532D01*
X142875000Y-93397605D01*
X141902073Y-94370532D01*
X140877000Y-94370532D01*
X140877000Y-92531000D01*
X141386042Y-92531000D01*
X141229092Y-92953461D01*
G36*
X150513170Y-97464250D02*
X150671920Y-97623000D01*
X151421220Y-97623000D01*
X151421220Y-97603000D01*
X151675220Y-97603000D01*
X151675220Y-97623000D01*
X151695220Y-97623000D01*
X151695220Y-97877000D01*
X151675220Y-97877000D01*
X151675220Y-97897000D01*
X151421220Y-97897000D01*
X151421220Y-97877000D01*
X150671920Y-97877000D01*
X150513170Y-98035750D01*
X150513170Y-98194000D01*
X150317818Y-98194000D01*
X150311187Y-98158760D01*
X150227744Y-98029085D01*
X150100424Y-97942091D01*
X149949290Y-97911486D01*
X149149190Y-97911486D01*
X149008000Y-97938053D01*
X148921053Y-97994002D01*
X148957859Y-97940134D01*
X148988464Y-97789000D01*
X148988464Y-97551355D01*
X148998056Y-97557909D01*
X149149190Y-97588514D01*
X149949290Y-97588514D01*
X150090480Y-97561947D01*
X150220155Y-97478504D01*
X150307149Y-97351184D01*
X150316299Y-97306000D01*
X150513170Y-97306000D01*
X150513170Y-97464250D01*
X150513170Y-97464250D01*
G37*
X150513170Y-97464250D02*
X150671920Y-97623000D01*
X151421220Y-97623000D01*
X151421220Y-97603000D01*
X151675220Y-97603000D01*
X151675220Y-97623000D01*
X151695220Y-97623000D01*
X151695220Y-97877000D01*
X151675220Y-97877000D01*
X151675220Y-97897000D01*
X151421220Y-97897000D01*
X151421220Y-97877000D01*
X150671920Y-97877000D01*
X150513170Y-98035750D01*
X150513170Y-98194000D01*
X150317818Y-98194000D01*
X150311187Y-98158760D01*
X150227744Y-98029085D01*
X150100424Y-97942091D01*
X149949290Y-97911486D01*
X149149190Y-97911486D01*
X149008000Y-97938053D01*
X148921053Y-97994002D01*
X148957859Y-97940134D01*
X148988464Y-97789000D01*
X148988464Y-97551355D01*
X148998056Y-97557909D01*
X149149190Y-97588514D01*
X149949290Y-97588514D01*
X150090480Y-97561947D01*
X150220155Y-97478504D01*
X150307149Y-97351184D01*
X150316299Y-97306000D01*
X150513170Y-97306000D01*
X150513170Y-97464250D01*
G36*
X164465000Y-93218000D02*
X164485000Y-93218000D01*
X164485000Y-93472000D01*
X164465000Y-93472000D01*
X164465000Y-94680000D01*
X165665000Y-94680000D01*
X166166215Y-94529778D01*
X166295000Y-94424803D01*
X166295000Y-98725894D01*
X166185010Y-98459697D01*
X165792370Y-98066371D01*
X165279100Y-97853243D01*
X164723339Y-97852758D01*
X164209697Y-98064990D01*
X163816371Y-98457630D01*
X163603243Y-98970900D01*
X163602758Y-99526661D01*
X163814990Y-100040303D01*
X164207630Y-100433629D01*
X164720900Y-100646757D01*
X165276661Y-100647242D01*
X165790303Y-100435010D01*
X166183629Y-100042370D01*
X166295000Y-99774158D01*
X166295000Y-103949197D01*
X166166215Y-103844222D01*
X165665000Y-103694000D01*
X164465000Y-103694000D01*
X164465000Y-104902000D01*
X164485000Y-104902000D01*
X164485000Y-105156000D01*
X164465000Y-105156000D01*
X164465000Y-105176000D01*
X164211000Y-105176000D01*
X164211000Y-105156000D01*
X164191000Y-105156000D01*
X164191000Y-104902000D01*
X164211000Y-104902000D01*
X164211000Y-103694000D01*
X163059284Y-103694000D01*
X163223824Y-103529747D01*
X163435209Y-103020676D01*
X163435690Y-102469462D01*
X163225194Y-101960023D01*
X162835767Y-101569916D01*
X162604499Y-101473885D01*
X162833717Y-101379174D01*
X163223824Y-100989747D01*
X163435209Y-100480676D01*
X163435690Y-99929462D01*
X163225194Y-99420023D01*
X162993373Y-99187797D01*
X163223824Y-98957747D01*
X163435209Y-98448676D01*
X163435690Y-97897462D01*
X163225194Y-97388023D01*
X162835767Y-96997916D01*
X162604499Y-96901885D01*
X162833717Y-96807174D01*
X163223824Y-96417747D01*
X163435209Y-95908676D01*
X163435690Y-95357462D01*
X163225194Y-94848023D01*
X163057464Y-94680000D01*
X164211000Y-94680000D01*
X164211000Y-93472000D01*
X164191000Y-93472000D01*
X164191000Y-93218000D01*
X164211000Y-93218000D01*
X164211000Y-93198000D01*
X164465000Y-93198000D01*
X164465000Y-93218000D01*
X164465000Y-93218000D01*
G37*
X164465000Y-93218000D02*
X164485000Y-93218000D01*
X164485000Y-93472000D01*
X164465000Y-93472000D01*
X164465000Y-94680000D01*
X165665000Y-94680000D01*
X166166215Y-94529778D01*
X166295000Y-94424803D01*
X166295000Y-98725894D01*
X166185010Y-98459697D01*
X165792370Y-98066371D01*
X165279100Y-97853243D01*
X164723339Y-97852758D01*
X164209697Y-98064990D01*
X163816371Y-98457630D01*
X163603243Y-98970900D01*
X163602758Y-99526661D01*
X163814990Y-100040303D01*
X164207630Y-100433629D01*
X164720900Y-100646757D01*
X165276661Y-100647242D01*
X165790303Y-100435010D01*
X166183629Y-100042370D01*
X166295000Y-99774158D01*
X166295000Y-103949197D01*
X166166215Y-103844222D01*
X165665000Y-103694000D01*
X164465000Y-103694000D01*
X164465000Y-104902000D01*
X164485000Y-104902000D01*
X164485000Y-105156000D01*
X164465000Y-105156000D01*
X164465000Y-105176000D01*
X164211000Y-105176000D01*
X164211000Y-105156000D01*
X164191000Y-105156000D01*
X164191000Y-104902000D01*
X164211000Y-104902000D01*
X164211000Y-103694000D01*
X163059284Y-103694000D01*
X163223824Y-103529747D01*
X163435209Y-103020676D01*
X163435690Y-102469462D01*
X163225194Y-101960023D01*
X162835767Y-101569916D01*
X162604499Y-101473885D01*
X162833717Y-101379174D01*
X163223824Y-100989747D01*
X163435209Y-100480676D01*
X163435690Y-99929462D01*
X163225194Y-99420023D01*
X162993373Y-99187797D01*
X163223824Y-98957747D01*
X163435209Y-98448676D01*
X163435690Y-97897462D01*
X163225194Y-97388023D01*
X162835767Y-96997916D01*
X162604499Y-96901885D01*
X162833717Y-96807174D01*
X163223824Y-96417747D01*
X163435209Y-95908676D01*
X163435690Y-95357462D01*
X163225194Y-94848023D01*
X163057464Y-94680000D01*
X164211000Y-94680000D01*
X164211000Y-93472000D01*
X164191000Y-93472000D01*
X164191000Y-93218000D01*
X164211000Y-93218000D01*
X164211000Y-93198000D01*
X164465000Y-93198000D01*
X164465000Y-93218000D01*
M02*
