G04 #@! TF.FileFunction,Legend,Top*
%FSLAX46Y46*%
G04 Gerber Fmt 4.6, Leading zero omitted, Abs format (unit mm)*
G04 Created by KiCad (PCBNEW (2016-04-04 BZR 6663, Git 30f5a7a)-product) date 13/07/2016 18:07:22*
%MOMM*%
G01*
G04 APERTURE LIST*
%ADD10C,0.100000*%
%ADD11C,0.200000*%
%ADD12C,0.250000*%
%ADD13C,0.150000*%
%ADD14C,0.090000*%
G04 APERTURE END LIST*
D10*
X149825047Y-92548380D02*
X149825047Y-92796000D01*
X149672666Y-92662666D01*
X149672666Y-92719809D01*
X149653619Y-92757904D01*
X149634571Y-92776952D01*
X149596476Y-92796000D01*
X149501238Y-92796000D01*
X149463142Y-92776952D01*
X149444095Y-92757904D01*
X149425047Y-92719809D01*
X149425047Y-92605523D01*
X149444095Y-92567428D01*
X149463142Y-92548380D01*
X149825047Y-92910285D02*
X149425047Y-93043619D01*
X149825047Y-93176952D01*
X149825047Y-93272190D02*
X149825047Y-93519809D01*
X149672666Y-93386476D01*
X149672666Y-93443619D01*
X149653619Y-93481714D01*
X149634571Y-93500761D01*
X149596476Y-93519809D01*
X149501238Y-93519809D01*
X149463142Y-93500761D01*
X149444095Y-93481714D01*
X149425047Y-93443619D01*
X149425047Y-93329333D01*
X149444095Y-93291238D01*
X149463142Y-93272190D01*
X152092047Y-92707095D02*
X152282523Y-92573761D01*
X152092047Y-92478523D02*
X152492047Y-92478523D01*
X152492047Y-92630904D01*
X152473000Y-92669000D01*
X152453952Y-92688047D01*
X152415857Y-92707095D01*
X152358714Y-92707095D01*
X152320619Y-92688047D01*
X152301571Y-92669000D01*
X152282523Y-92630904D01*
X152282523Y-92478523D01*
X152111095Y-92859476D02*
X152092047Y-92916619D01*
X152092047Y-93011857D01*
X152111095Y-93049952D01*
X152130142Y-93069000D01*
X152168238Y-93088047D01*
X152206333Y-93088047D01*
X152244428Y-93069000D01*
X152263476Y-93049952D01*
X152282523Y-93011857D01*
X152301571Y-92935666D01*
X152320619Y-92897571D01*
X152339666Y-92878523D01*
X152377761Y-92859476D01*
X152415857Y-92859476D01*
X152453952Y-92878523D01*
X152473000Y-92897571D01*
X152492047Y-92935666D01*
X152492047Y-93030904D01*
X152473000Y-93088047D01*
X152492047Y-93202333D02*
X152492047Y-93430904D01*
X152092047Y-93316619D02*
X152492047Y-93316619D01*
X154797142Y-92669000D02*
X154778095Y-92649952D01*
X154759047Y-92592809D01*
X154759047Y-92554714D01*
X154778095Y-92497571D01*
X154816190Y-92459476D01*
X154854285Y-92440428D01*
X154930476Y-92421380D01*
X154987619Y-92421380D01*
X155063809Y-92440428D01*
X155101904Y-92459476D01*
X155140000Y-92497571D01*
X155159047Y-92554714D01*
X155159047Y-92592809D01*
X155140000Y-92649952D01*
X155120952Y-92669000D01*
X154759047Y-93030904D02*
X154759047Y-92840428D01*
X155159047Y-92840428D01*
X154759047Y-93164238D02*
X155159047Y-93164238D01*
X154759047Y-93392809D02*
X154987619Y-93221380D01*
X155159047Y-93392809D02*
X154930476Y-93164238D01*
X157553000Y-92554714D02*
X157572047Y-92516619D01*
X157572047Y-92459476D01*
X157553000Y-92402333D01*
X157514904Y-92364238D01*
X157476809Y-92345190D01*
X157400619Y-92326142D01*
X157343476Y-92326142D01*
X157267285Y-92345190D01*
X157229190Y-92364238D01*
X157191095Y-92402333D01*
X157172047Y-92459476D01*
X157172047Y-92497571D01*
X157191095Y-92554714D01*
X157210142Y-92573761D01*
X157343476Y-92573761D01*
X157343476Y-92497571D01*
X157172047Y-92745190D02*
X157572047Y-92745190D01*
X157172047Y-92973761D01*
X157572047Y-92973761D01*
X157172047Y-93164238D02*
X157572047Y-93164238D01*
X157572047Y-93259476D01*
X157553000Y-93316619D01*
X157514904Y-93354714D01*
X157476809Y-93373761D01*
X157400619Y-93392809D01*
X157343476Y-93392809D01*
X157267285Y-93373761D01*
X157229190Y-93354714D01*
X157191095Y-93316619D01*
X157172047Y-93259476D01*
X157172047Y-93164238D01*
X159585047Y-92362476D02*
X159985047Y-92362476D01*
X159985047Y-92457714D01*
X159966000Y-92514857D01*
X159927904Y-92552952D01*
X159889809Y-92572000D01*
X159813619Y-92591047D01*
X159756476Y-92591047D01*
X159680285Y-92572000D01*
X159642190Y-92552952D01*
X159604095Y-92514857D01*
X159585047Y-92457714D01*
X159585047Y-92362476D01*
X159585047Y-92762476D02*
X159985047Y-92762476D01*
X159985047Y-93029142D02*
X159985047Y-93105333D01*
X159966000Y-93143428D01*
X159927904Y-93181523D01*
X159851714Y-93200571D01*
X159718380Y-93200571D01*
X159642190Y-93181523D01*
X159604095Y-93143428D01*
X159585047Y-93105333D01*
X159585047Y-93029142D01*
X159604095Y-92991047D01*
X159642190Y-92952952D01*
X159718380Y-92933904D01*
X159851714Y-92933904D01*
X159927904Y-92952952D01*
X159966000Y-92991047D01*
X159985047Y-93029142D01*
D11*
X142116000Y-104194000D02*
X146942000Y-104194000D01*
D12*
X142069071Y-104225047D02*
X142069071Y-105601238D01*
X141997642Y-105763142D01*
X141926214Y-105844095D01*
X141783357Y-105925047D01*
X141497642Y-105925047D01*
X141354785Y-105844095D01*
X141283357Y-105763142D01*
X141211928Y-105601238D01*
X141211928Y-104225047D01*
D10*
X142287380Y-105361904D02*
X142287380Y-104561904D01*
X142477857Y-104561904D01*
X142592142Y-104600000D01*
X142668333Y-104676190D01*
X142706428Y-104752380D01*
X142744523Y-104904761D01*
X142744523Y-105019047D01*
X142706428Y-105171428D01*
X142668333Y-105247619D01*
X142592142Y-105323809D01*
X142477857Y-105361904D01*
X142287380Y-105361904D01*
X143087380Y-104942857D02*
X143354047Y-104942857D01*
X143468333Y-105361904D02*
X143087380Y-105361904D01*
X143087380Y-104561904D01*
X143468333Y-104561904D01*
X143696904Y-104561904D02*
X143963571Y-105361904D01*
X144230238Y-104561904D01*
X144496904Y-105361904D02*
X144496904Y-104561904D01*
X145335000Y-105285714D02*
X145296904Y-105323809D01*
X145182619Y-105361904D01*
X145106428Y-105361904D01*
X144992142Y-105323809D01*
X144915952Y-105247619D01*
X144877857Y-105171428D01*
X144839761Y-105019047D01*
X144839761Y-104904761D01*
X144877857Y-104752380D01*
X144915952Y-104676190D01*
X144992142Y-104600000D01*
X145106428Y-104561904D01*
X145182619Y-104561904D01*
X145296904Y-104600000D01*
X145335000Y-104638095D01*
X145677857Y-104942857D02*
X145944523Y-104942857D01*
X146058809Y-105361904D02*
X145677857Y-105361904D01*
X145677857Y-104561904D01*
X146058809Y-104561904D01*
X146363571Y-105323809D02*
X146477857Y-105361904D01*
X146668333Y-105361904D01*
X146744523Y-105323809D01*
X146782619Y-105285714D01*
X146820714Y-105209523D01*
X146820714Y-105133333D01*
X146782619Y-105057142D01*
X146744523Y-105019047D01*
X146668333Y-104980952D01*
X146515952Y-104942857D01*
X146439761Y-104904761D01*
X146401666Y-104866666D01*
X146363571Y-104790476D01*
X146363571Y-104714285D01*
X146401666Y-104638095D01*
X146439761Y-104600000D01*
X146515952Y-104561904D01*
X146706428Y-104561904D01*
X146820714Y-104600000D01*
X142620714Y-103685714D02*
X142582619Y-103723809D01*
X142468333Y-103761904D01*
X142392142Y-103761904D01*
X142277857Y-103723809D01*
X142201666Y-103647619D01*
X142163571Y-103571428D01*
X142125476Y-103419047D01*
X142125476Y-103304761D01*
X142163571Y-103152380D01*
X142201666Y-103076190D01*
X142277857Y-103000000D01*
X142392142Y-102961904D01*
X142468333Y-102961904D01*
X142582619Y-103000000D01*
X142620714Y-103038095D01*
X142925476Y-103533333D02*
X143306428Y-103533333D01*
X142849285Y-103761904D02*
X143115952Y-102961904D01*
X143382619Y-103761904D01*
X143649285Y-103761904D02*
X143649285Y-102961904D01*
X144106428Y-103761904D01*
X144106428Y-102961904D01*
X143550000Y-105716428D02*
X143550000Y-106202142D01*
X143578571Y-106259285D01*
X143607142Y-106287857D01*
X143664285Y-106316428D01*
X143778571Y-106316428D01*
X143835714Y-106287857D01*
X143864285Y-106259285D01*
X143892857Y-106202142D01*
X143892857Y-105716428D01*
X144178571Y-105716428D02*
X144178571Y-106202142D01*
X144207142Y-106259285D01*
X144235714Y-106287857D01*
X144292857Y-106316428D01*
X144407142Y-106316428D01*
X144464285Y-106287857D01*
X144492857Y-106259285D01*
X144521428Y-106202142D01*
X144521428Y-105716428D01*
X145150000Y-106259285D02*
X145121428Y-106287857D01*
X145035714Y-106316428D01*
X144978571Y-106316428D01*
X144892857Y-106287857D01*
X144835714Y-106230714D01*
X144807142Y-106173571D01*
X144778571Y-106059285D01*
X144778571Y-105973571D01*
X144807142Y-105859285D01*
X144835714Y-105802142D01*
X144892857Y-105745000D01*
X144978571Y-105716428D01*
X145035714Y-105716428D01*
X145121428Y-105745000D01*
X145150000Y-105773571D01*
X145750000Y-106259285D02*
X145721428Y-106287857D01*
X145635714Y-106316428D01*
X145578571Y-106316428D01*
X145492857Y-106287857D01*
X145435714Y-106230714D01*
X145407142Y-106173571D01*
X145378571Y-106059285D01*
X145378571Y-105973571D01*
X145407142Y-105859285D01*
X145435714Y-105802142D01*
X145492857Y-105745000D01*
X145578571Y-105716428D01*
X145635714Y-105716428D01*
X145721428Y-105745000D01*
X145750000Y-105773571D01*
X146321428Y-106316428D02*
X145978571Y-106316428D01*
X146150000Y-106316428D02*
X146150000Y-105716428D01*
X146092857Y-105802142D01*
X146035714Y-105859285D01*
X145978571Y-105887857D01*
X146578571Y-106259285D02*
X146607142Y-106287857D01*
X146578571Y-106316428D01*
X146550000Y-106287857D01*
X146578571Y-106259285D01*
X146578571Y-106316428D01*
X147178571Y-106316428D02*
X146835714Y-106316428D01*
X147007142Y-106316428D02*
X147007142Y-105716428D01*
X146950000Y-105802142D01*
X146892857Y-105859285D01*
X146835714Y-105887857D01*
D13*
X154755000Y-95689000D02*
X154755000Y-96214000D01*
X147505000Y-102939000D02*
X147505000Y-102414000D01*
X154755000Y-102939000D02*
X154755000Y-102414000D01*
X147505000Y-95689000D02*
X148030000Y-95689000D01*
X147505000Y-102939000D02*
X148030000Y-102939000D01*
X154755000Y-102939000D02*
X154230000Y-102939000D01*
X154755000Y-95689000D02*
X154230000Y-95689000D01*
X146874000Y-93735600D02*
X146874000Y-94935600D01*
X145124000Y-94935600D02*
X145124000Y-93735600D01*
X159477000Y-102729000D02*
X158277000Y-102729000D01*
X158277000Y-100979000D02*
X159477000Y-100979000D01*
X146823000Y-100136000D02*
X146823000Y-101336000D01*
X145073000Y-101336000D02*
X145073000Y-100136000D01*
X157577840Y-105171240D02*
X157626100Y-105171240D01*
X160376820Y-104470200D02*
X160376820Y-105171240D01*
X160376820Y-105171240D02*
X160127900Y-105171240D01*
X157577840Y-105171240D02*
X157377180Y-105171240D01*
X157377180Y-105171240D02*
X157377180Y-104470200D01*
X159199000Y-99642400D02*
G75*
G03X159199000Y-99642400I-100000J0D01*
G01*
X158449000Y-99392400D02*
X158949000Y-99392400D01*
X158449000Y-96492400D02*
X158449000Y-99392400D01*
X158949000Y-96492400D02*
X158449000Y-96492400D01*
X158949000Y-99392400D02*
X158949000Y-96492400D01*
X156388000Y-100965000D02*
X158166000Y-100965000D01*
X158166000Y-99695000D02*
X156388000Y-99695000D01*
X156388000Y-99695000D02*
X156388000Y-100965000D01*
X158166000Y-100965000D02*
X158166000Y-99695000D01*
D14*
X147464738Y-94776952D02*
X147464738Y-95100761D01*
X147483785Y-95138857D01*
X147502833Y-95157904D01*
X147540928Y-95176952D01*
X147617119Y-95176952D01*
X147655214Y-95157904D01*
X147674261Y-95138857D01*
X147693309Y-95100761D01*
X147693309Y-94776952D01*
X148093309Y-95176952D02*
X147864738Y-95176952D01*
X147979023Y-95176952D02*
X147979023Y-94776952D01*
X147940928Y-94834095D01*
X147902833Y-94872190D01*
X147864738Y-94891238D01*
X145873833Y-94516552D02*
X145740500Y-94326076D01*
X145645261Y-94516552D02*
X145645261Y-94116552D01*
X145797642Y-94116552D01*
X145835738Y-94135600D01*
X145854785Y-94154647D01*
X145873833Y-94192742D01*
X145873833Y-94249885D01*
X145854785Y-94287980D01*
X145835738Y-94307028D01*
X145797642Y-94326076D01*
X145645261Y-94326076D01*
X146007166Y-94116552D02*
X146254785Y-94116552D01*
X146121452Y-94268933D01*
X146178595Y-94268933D01*
X146216690Y-94287980D01*
X146235738Y-94307028D01*
X146254785Y-94345123D01*
X146254785Y-94440361D01*
X146235738Y-94478457D01*
X146216690Y-94497504D01*
X146178595Y-94516552D01*
X146064309Y-94516552D01*
X146026214Y-94497504D01*
X146007166Y-94478457D01*
X158751833Y-101996857D02*
X158732785Y-102015904D01*
X158675642Y-102034952D01*
X158637547Y-102034952D01*
X158580404Y-102015904D01*
X158542309Y-101977809D01*
X158523261Y-101939714D01*
X158504214Y-101863523D01*
X158504214Y-101806380D01*
X158523261Y-101730190D01*
X158542309Y-101692095D01*
X158580404Y-101654000D01*
X158637547Y-101634952D01*
X158675642Y-101634952D01*
X158732785Y-101654000D01*
X158751833Y-101673047D01*
X158885166Y-101634952D02*
X159151833Y-101634952D01*
X158980404Y-102034952D01*
X145822833Y-100878857D02*
X145803785Y-100897904D01*
X145746642Y-100916952D01*
X145708547Y-100916952D01*
X145651404Y-100897904D01*
X145613309Y-100859809D01*
X145594261Y-100821714D01*
X145575214Y-100745523D01*
X145575214Y-100688380D01*
X145594261Y-100612190D01*
X145613309Y-100574095D01*
X145651404Y-100536000D01*
X145708547Y-100516952D01*
X145746642Y-100516952D01*
X145803785Y-100536000D01*
X145822833Y-100555047D01*
X146051404Y-100688380D02*
X146013309Y-100669333D01*
X145994261Y-100650285D01*
X145975214Y-100612190D01*
X145975214Y-100593142D01*
X145994261Y-100555047D01*
X146013309Y-100536000D01*
X146051404Y-100516952D01*
X146127595Y-100516952D01*
X146165690Y-100536000D01*
X146184738Y-100555047D01*
X146203785Y-100593142D01*
X146203785Y-100612190D01*
X146184738Y-100650285D01*
X146165690Y-100669333D01*
X146127595Y-100688380D01*
X146051404Y-100688380D01*
X146013309Y-100707428D01*
X145994261Y-100726476D01*
X145975214Y-100764571D01*
X145975214Y-100840761D01*
X145994261Y-100878857D01*
X146013309Y-100897904D01*
X146051404Y-100916952D01*
X146127595Y-100916952D01*
X146165690Y-100897904D01*
X146184738Y-100878857D01*
X146203785Y-100840761D01*
X146203785Y-100764571D01*
X146184738Y-100726476D01*
X146165690Y-100707428D01*
X146127595Y-100688380D01*
X158513738Y-104301952D02*
X158513738Y-104625761D01*
X158532785Y-104663857D01*
X158551833Y-104682904D01*
X158589928Y-104701952D01*
X158666119Y-104701952D01*
X158704214Y-104682904D01*
X158723261Y-104663857D01*
X158742309Y-104625761D01*
X158742309Y-104301952D01*
X159104214Y-104435285D02*
X159104214Y-104701952D01*
X159008976Y-104282904D02*
X158913738Y-104568619D01*
X159161357Y-104568619D01*
X159605738Y-95945352D02*
X159605738Y-96269161D01*
X159624785Y-96307257D01*
X159643833Y-96326304D01*
X159681928Y-96345352D01*
X159758119Y-96345352D01*
X159796214Y-96326304D01*
X159815261Y-96307257D01*
X159834309Y-96269161D01*
X159834309Y-95945352D01*
X160215261Y-95945352D02*
X160024785Y-95945352D01*
X160005738Y-96135828D01*
X160024785Y-96116780D01*
X160062880Y-96097733D01*
X160158119Y-96097733D01*
X160196214Y-96116780D01*
X160215261Y-96135828D01*
X160234309Y-96173923D01*
X160234309Y-96269161D01*
X160215261Y-96307257D01*
X160196214Y-96326304D01*
X160158119Y-96345352D01*
X160062880Y-96345352D01*
X160024785Y-96326304D01*
X160005738Y-96307257D01*
D10*
X155806800Y-100366390D02*
X155787752Y-100404485D01*
X155787752Y-100461628D01*
X155806800Y-100518771D01*
X155844895Y-100556866D01*
X155882990Y-100575914D01*
X155959180Y-100594961D01*
X156016323Y-100594961D01*
X156092514Y-100575914D01*
X156130609Y-100556866D01*
X156168704Y-100518771D01*
X156187752Y-100461628D01*
X156187752Y-100423533D01*
X156168704Y-100366390D01*
X156149657Y-100347342D01*
X156016323Y-100347342D01*
X156016323Y-100423533D01*
X156168704Y-100194961D02*
X156187752Y-100137819D01*
X156187752Y-100042580D01*
X156168704Y-100004485D01*
X156149657Y-99985438D01*
X156111561Y-99966390D01*
X156073466Y-99966390D01*
X156035371Y-99985438D01*
X156016323Y-100004485D01*
X155997276Y-100042580D01*
X155978228Y-100118771D01*
X155959180Y-100156866D01*
X155940133Y-100175914D01*
X155902038Y-100194961D01*
X155863942Y-100194961D01*
X155825847Y-100175914D01*
X155806800Y-100156866D01*
X155787752Y-100118771D01*
X155787752Y-100023533D01*
X155806800Y-99966390D01*
X155787752Y-99833057D02*
X155787752Y-99585438D01*
X155940133Y-99718771D01*
X155940133Y-99661628D01*
X155959180Y-99623533D01*
X155978228Y-99604485D01*
X156016323Y-99585438D01*
X156111561Y-99585438D01*
X156149657Y-99604485D01*
X156168704Y-99623533D01*
X156187752Y-99661628D01*
X156187752Y-99775914D01*
X156168704Y-99814009D01*
X156149657Y-99833057D01*
M02*
