G04 #@! TF.FileFunction,Other,User*
%FSLAX46Y46*%
G04 Gerber Fmt 4.6, Leading zero omitted, Abs format (unit mm)*
G04 Created by KiCad (PCBNEW 4.0.4-stable) date 12/27/16 16:45:08*
%MOMM*%
%LPD*%
G01*
G04 APERTURE LIST*
%ADD10C,0.100000*%
%ADD11C,0.050000*%
G04 APERTURE END LIST*
D10*
D11*
X152500760Y-99400000D02*
X152500760Y-96100000D01*
X152500760Y-96100000D02*
X149300760Y-96100000D01*
X149300760Y-96100000D02*
X149300760Y-99400000D01*
X149300760Y-99400000D02*
X152500760Y-99400000D01*
X157200000Y-106200000D02*
X160800000Y-106200000D01*
X157200000Y-104200000D02*
X160800000Y-104200000D01*
X157200000Y-106200000D02*
X157200000Y-104200000D01*
X160800000Y-106200000D02*
X160800000Y-104200000D01*
X175252000Y-90331000D02*
X160652000Y-90331000D01*
X160652000Y-107581000D02*
X175252000Y-107581000D01*
X175252000Y-90331000D02*
X175252000Y-107581000D01*
X160652000Y-90331000D02*
X160652000Y-107581000D01*
X166550000Y-99250000D02*
G75*
G03X166550000Y-99250000I-1550000J0D01*
G01*
X147600000Y-97700000D02*
X147600000Y-100300000D01*
X149200000Y-97700000D02*
X149200000Y-100300000D01*
X147600000Y-97700000D02*
X149200000Y-97700000D01*
X147600000Y-100300000D02*
X149200000Y-100300000D01*
X153178000Y-100359000D02*
X153178000Y-103959000D01*
X155178000Y-100359000D02*
X155178000Y-103959000D01*
X153178000Y-100359000D02*
X155178000Y-100359000D01*
X153178000Y-103959000D02*
X155178000Y-103959000D01*
X150943000Y-100359000D02*
X150943000Y-103959000D01*
X152943000Y-100359000D02*
X152943000Y-103959000D01*
X150943000Y-100359000D02*
X152943000Y-100359000D01*
X150943000Y-103959000D02*
X152943000Y-103959000D01*
X156500000Y-100400000D02*
X156500000Y-104000000D01*
X158500000Y-100400000D02*
X158500000Y-104000000D01*
X156500000Y-100400000D02*
X158500000Y-100400000D01*
X156500000Y-104000000D02*
X158500000Y-104000000D01*
X158766000Y-100400000D02*
X158766000Y-104000000D01*
X160766000Y-100400000D02*
X160766000Y-104000000D01*
X158766000Y-100400000D02*
X160766000Y-100400000D01*
X158766000Y-104000000D02*
X160766000Y-104000000D01*
M02*
