M48
;DRILL file {KiCad (2016-04-04 BZR 6663, Git 30f5a7a)-product} date 05/05/2016 22:09:41
;FORMAT={-:-/ absolute / inch / decimal}
FMAT,2
INCH,TZ
T1C0.018
T2C0.039
T3C0.039
T4C0.040
T5C0.052
T6C0.079
%
G90
G05
M72
T1
X5.75Y-3.75
X5.75Y-3.965
X5.815Y-3.65
X5.815Y-4.065
X5.935Y-3.635
X6.Y-3.665
X6.115Y-3.68
X6.14Y-4.035
X6.17Y-3.99
X6.175Y-3.805
X6.225Y-4.205
T3
X6.3999Y-3.73
X6.3999Y-3.83
X6.3999Y-3.91
X6.3999Y-4.01
T4
X5.84Y-4.17
X5.94Y-4.17
X6.04Y-4.17
X6.14Y-4.17
T5
X5.52Y-3.8181
X5.52Y-4.015
T6
X5.48Y-3.57
T2
X6.4605Y-3.64G85X6.5195Y-3.64
G05
X6.4605Y-4.1G85X6.5195Y-4.1
G05
T0
M30
