G04 #@! TF.FileFunction,Other,User*
%FSLAX46Y46*%
G04 Gerber Fmt 4.6, Leading zero omitted, Abs format (unit mm)*
G04 Created by KiCad (PCBNEW (2016-04-04 BZR 6663, Git 30f5a7a)-product) date 13/07/2016 18:07:22*
%MOMM*%
G01*
G04 APERTURE LIST*
%ADD10C,0.100000*%
%ADD11C,0.050000*%
G04 APERTURE END LIST*
D10*
D11*
X159588000Y-92345000D02*
X156388000Y-92345000D01*
X159588000Y-94345000D02*
X156388000Y-94345000D01*
X159588000Y-92345000D02*
X159588000Y-94345000D01*
X156388000Y-92345000D02*
X156388000Y-94345000D01*
X158766000Y-100508000D02*
X158766000Y-103708000D01*
X160766000Y-100508000D02*
X160766000Y-103708000D01*
X158766000Y-100508000D02*
X160766000Y-100508000D01*
X158766000Y-103708000D02*
X160766000Y-103708000D01*
X153178000Y-100559000D02*
X153178000Y-103759000D01*
X155178000Y-100559000D02*
X155178000Y-103759000D01*
X153178000Y-100559000D02*
X155178000Y-100559000D01*
X153178000Y-103759000D02*
X155178000Y-103759000D01*
X156607000Y-100508000D02*
X156607000Y-103708000D01*
X158607000Y-100508000D02*
X158607000Y-103708000D01*
X156607000Y-100508000D02*
X158607000Y-100508000D01*
X156607000Y-103708000D02*
X158607000Y-103708000D01*
X148260000Y-94370400D02*
X151460000Y-94370400D01*
X148260000Y-92370400D02*
X151460000Y-92370400D01*
X148260000Y-94370400D02*
X148260000Y-92370400D01*
X151460000Y-94370400D02*
X151460000Y-92370400D01*
X150749000Y-101006000D02*
X147549000Y-101006000D01*
X150749000Y-103006000D02*
X147549000Y-103006000D01*
X150749000Y-101006000D02*
X150749000Y-103006000D01*
X147549000Y-101006000D02*
X147549000Y-103006000D01*
X150393200Y-98932000D02*
X150393200Y-95632000D01*
X150393200Y-95632000D02*
X147193200Y-95632000D01*
X147193200Y-95632000D02*
X147193200Y-98932000D01*
X147193200Y-98932000D02*
X150393200Y-98932000D01*
X150943000Y-100559000D02*
X150943000Y-103759000D01*
X152943000Y-100559000D02*
X152943000Y-103759000D01*
X150943000Y-100559000D02*
X152943000Y-100559000D01*
X150943000Y-103759000D02*
X152943000Y-103759000D01*
X157204000Y-105902000D02*
X160804000Y-105902000D01*
X157204000Y-103902000D02*
X160804000Y-103902000D01*
X157204000Y-105902000D02*
X157204000Y-103902000D01*
X160804000Y-105902000D02*
X160804000Y-103902000D01*
X175252000Y-90331000D02*
X160652000Y-90331000D01*
X160652000Y-107581000D02*
X175252000Y-107581000D01*
X175252000Y-90331000D02*
X175252000Y-107581000D01*
X160652000Y-90331000D02*
X160652000Y-107581000D01*
M02*
