G04 #@! TF.FileFunction,Soldermask,Bot*
%FSLAX46Y46*%
G04 Gerber Fmt 4.6, Leading zero omitted, Abs format (unit mm)*
G04 Created by KiCad (PCBNEW (2016-04-04 BZR 6663, Git 30f5a7a)-product) date 13/07/2016 18:07:22*
%MOMM*%
G01*
G04 APERTURE LIST*
%ADD10C,0.100000*%
%ADD11O,4.362400X2.381200*%
%ADD12R,1.100000X1.700000*%
%ADD13R,1.700000X1.100000*%
%ADD14R,1.200100X1.200100*%
%ADD15R,1.850000X1.000000*%
%ADD16R,1.400000X1.650000*%
%ADD17C,1.901140*%
%ADD18O,4.200000X1.800000*%
%ADD19R,2.127200X2.100000*%
%ADD20O,2.127200X2.100000*%
%ADD21C,2.400000*%
%ADD22R,1.000000X1.400000*%
G04 APERTURE END LIST*
D10*
D11*
X142748000Y-96520000D03*
X142748000Y-101520000D03*
D12*
X158938000Y-93345000D03*
X157038000Y-93345000D03*
D13*
X159766000Y-101158000D03*
X159766000Y-103058000D03*
X154178000Y-101209000D03*
X154178000Y-103109000D03*
X157607000Y-101158000D03*
X157607000Y-103058000D03*
D12*
X148910000Y-93370400D03*
X150810000Y-93370400D03*
X150099000Y-102006000D03*
X148199000Y-102006000D03*
D14*
X147792440Y-98232000D03*
X147792440Y-96332000D03*
X149791420Y-97282000D03*
D15*
X159362000Y-95834200D03*
X159362000Y-97104200D03*
X159362000Y-98374200D03*
X159362000Y-99644200D03*
X153362000Y-99644200D03*
X153362000Y-98374200D03*
X153362000Y-97104200D03*
X153362000Y-95834200D03*
D13*
X151943000Y-101209000D03*
X151943000Y-103109000D03*
D16*
X158004000Y-104902000D03*
X160004000Y-104902000D03*
D17*
X162049880Y-102743860D03*
X162049880Y-100203860D03*
X162049880Y-98171860D03*
X162049880Y-95631860D03*
D18*
X164338000Y-105029000D03*
X164338000Y-93345000D03*
D19*
X155956000Y-105156000D03*
D20*
X153416000Y-105156000D03*
X150876000Y-105156000D03*
X148336000Y-105156000D03*
D21*
X142875000Y-93218000D03*
D22*
X146799500Y-93268800D03*
X145974000Y-93268800D03*
X149034500Y-99974400D03*
X148209000Y-99974400D03*
M02*
