G04 #@! TF.FileFunction,Legend,Top*
%FSLAX46Y46*%
G04 Gerber Fmt 4.6, Leading zero omitted, Abs format (unit mm)*
G04 Created by KiCad (PCBNEW 4.0.4-stable) date 12/27/16 16:45:08*
%MOMM*%
%LPD*%
G01*
G04 APERTURE LIST*
%ADD10C,0.100000*%
%ADD11C,0.200000*%
%ADD12C,0.250000*%
%ADD13C,0.150000*%
%ADD14C,0.090000*%
G04 APERTURE END LIST*
D10*
X149825048Y-92678382D02*
X149825048Y-92926001D01*
X149672667Y-92792668D01*
X149672667Y-92849810D01*
X149653619Y-92887906D01*
X149634571Y-92906953D01*
X149596476Y-92926001D01*
X149501238Y-92926001D01*
X149463143Y-92906953D01*
X149444095Y-92887906D01*
X149425048Y-92849810D01*
X149425048Y-92735525D01*
X149444095Y-92697429D01*
X149463143Y-92678382D01*
X149825048Y-93040286D02*
X149425048Y-93173620D01*
X149825048Y-93306953D01*
X149825048Y-93402191D02*
X149825048Y-93649810D01*
X149672667Y-93516477D01*
X149672667Y-93573619D01*
X149653619Y-93611715D01*
X149634571Y-93630762D01*
X149596476Y-93649810D01*
X149501238Y-93649810D01*
X149463143Y-93630762D01*
X149444095Y-93611715D01*
X149425048Y-93573619D01*
X149425048Y-93459334D01*
X149444095Y-93421238D01*
X149463143Y-93402191D01*
X152092048Y-92837096D02*
X152282524Y-92703762D01*
X152092048Y-92608524D02*
X152492048Y-92608524D01*
X152492048Y-92760905D01*
X152473000Y-92799000D01*
X152453952Y-92818048D01*
X152415857Y-92837096D01*
X152358714Y-92837096D01*
X152320619Y-92818048D01*
X152301571Y-92799000D01*
X152282524Y-92760905D01*
X152282524Y-92608524D01*
X152111095Y-92989476D02*
X152092048Y-93046619D01*
X152092048Y-93141857D01*
X152111095Y-93179953D01*
X152130143Y-93199000D01*
X152168238Y-93218048D01*
X152206333Y-93218048D01*
X152244429Y-93199000D01*
X152263476Y-93179953D01*
X152282524Y-93141857D01*
X152301571Y-93065667D01*
X152320619Y-93027572D01*
X152339667Y-93008524D01*
X152377762Y-92989476D01*
X152415857Y-92989476D01*
X152453952Y-93008524D01*
X152473000Y-93027572D01*
X152492048Y-93065667D01*
X152492048Y-93160905D01*
X152473000Y-93218048D01*
X152492048Y-93332333D02*
X152492048Y-93560905D01*
X152092048Y-93446619D02*
X152492048Y-93446619D01*
X154797143Y-92799000D02*
X154778095Y-92779952D01*
X154759048Y-92722809D01*
X154759048Y-92684714D01*
X154778095Y-92627571D01*
X154816190Y-92589476D01*
X154854286Y-92570428D01*
X154930476Y-92551380D01*
X154987619Y-92551380D01*
X155063810Y-92570428D01*
X155101905Y-92589476D01*
X155140000Y-92627571D01*
X155159048Y-92684714D01*
X155159048Y-92722809D01*
X155140000Y-92779952D01*
X155120952Y-92799000D01*
X154759048Y-93160904D02*
X154759048Y-92970428D01*
X155159048Y-92970428D01*
X154759048Y-93294238D02*
X155159048Y-93294238D01*
X154759048Y-93522810D02*
X154987619Y-93351381D01*
X155159048Y-93522810D02*
X154930476Y-93294238D01*
X157553000Y-92684714D02*
X157572048Y-92646619D01*
X157572048Y-92589476D01*
X157553000Y-92532333D01*
X157514905Y-92494238D01*
X157476810Y-92475190D01*
X157400619Y-92456142D01*
X157343476Y-92456142D01*
X157267286Y-92475190D01*
X157229190Y-92494238D01*
X157191095Y-92532333D01*
X157172048Y-92589476D01*
X157172048Y-92627571D01*
X157191095Y-92684714D01*
X157210143Y-92703762D01*
X157343476Y-92703762D01*
X157343476Y-92627571D01*
X157172048Y-92875190D02*
X157572048Y-92875190D01*
X157172048Y-93103762D01*
X157572048Y-93103762D01*
X157172048Y-93294238D02*
X157572048Y-93294238D01*
X157572048Y-93389476D01*
X157553000Y-93446619D01*
X157514905Y-93484714D01*
X157476810Y-93503762D01*
X157400619Y-93522810D01*
X157343476Y-93522810D01*
X157267286Y-93503762D01*
X157229190Y-93484714D01*
X157191095Y-93446619D01*
X157172048Y-93389476D01*
X157172048Y-93294238D01*
X159585048Y-92427476D02*
X159985048Y-92427476D01*
X159985048Y-92522714D01*
X159966000Y-92579857D01*
X159927905Y-92617952D01*
X159889810Y-92637000D01*
X159813619Y-92656048D01*
X159756476Y-92656048D01*
X159680286Y-92637000D01*
X159642190Y-92617952D01*
X159604095Y-92579857D01*
X159585048Y-92522714D01*
X159585048Y-92427476D01*
X159585048Y-92827476D02*
X159985048Y-92827476D01*
X159985048Y-93094143D02*
X159985048Y-93170333D01*
X159966000Y-93208428D01*
X159927905Y-93246524D01*
X159851714Y-93265571D01*
X159718381Y-93265571D01*
X159642190Y-93246524D01*
X159604095Y-93208428D01*
X159585048Y-93170333D01*
X159585048Y-93094143D01*
X159604095Y-93056047D01*
X159642190Y-93017952D01*
X159718381Y-92998904D01*
X159851714Y-92998904D01*
X159927905Y-93017952D01*
X159966000Y-93056047D01*
X159985048Y-93094143D01*
D11*
X141900000Y-104200000D02*
X144800000Y-104200000D01*
D12*
X141906571Y-104225048D02*
X141906571Y-105601238D01*
X141835143Y-105763143D01*
X141763714Y-105844095D01*
X141620857Y-105925048D01*
X141335143Y-105925048D01*
X141192285Y-105844095D01*
X141120857Y-105763143D01*
X141049428Y-105601238D01*
X141049428Y-104225048D01*
D10*
X142685715Y-105185714D02*
X142647620Y-105223810D01*
X142533334Y-105261905D01*
X142457144Y-105261905D01*
X142342858Y-105223810D01*
X142266667Y-105147619D01*
X142228572Y-105071429D01*
X142190477Y-104919048D01*
X142190477Y-104804762D01*
X142228572Y-104652381D01*
X142266667Y-104576190D01*
X142342858Y-104500000D01*
X142457144Y-104461905D01*
X142533334Y-104461905D01*
X142647620Y-104500000D01*
X142685715Y-104538095D01*
X142990477Y-105033333D02*
X143371429Y-105033333D01*
X142914286Y-105261905D02*
X143180953Y-104461905D01*
X143447620Y-105261905D01*
X143714286Y-105261905D02*
X143714286Y-104461905D01*
X144171429Y-105261905D01*
X144171429Y-104461905D01*
X142614286Y-105571429D02*
X142614286Y-106057143D01*
X142642858Y-106114286D01*
X142671429Y-106142857D01*
X142728572Y-106171429D01*
X142842858Y-106171429D01*
X142900000Y-106142857D01*
X142928572Y-106114286D01*
X142957143Y-106057143D01*
X142957143Y-105571429D01*
X143585714Y-106114286D02*
X143557143Y-106142857D01*
X143471429Y-106171429D01*
X143414286Y-106171429D01*
X143328571Y-106142857D01*
X143271429Y-106085714D01*
X143242857Y-106028571D01*
X143214286Y-105914286D01*
X143214286Y-105828571D01*
X143242857Y-105714286D01*
X143271429Y-105657143D01*
X143328571Y-105600000D01*
X143414286Y-105571429D01*
X143471429Y-105571429D01*
X143557143Y-105600000D01*
X143585714Y-105628571D01*
X144185714Y-106114286D02*
X144157143Y-106142857D01*
X144071429Y-106171429D01*
X144014286Y-106171429D01*
X143928571Y-106142857D01*
X143871429Y-106085714D01*
X143842857Y-106028571D01*
X143814286Y-105914286D01*
X143814286Y-105828571D01*
X143842857Y-105714286D01*
X143871429Y-105657143D01*
X143928571Y-105600000D01*
X144014286Y-105571429D01*
X144071429Y-105571429D01*
X144157143Y-105600000D01*
X144185714Y-105628571D01*
X144642857Y-105857143D02*
X144728571Y-105885714D01*
X144757143Y-105914286D01*
X144785714Y-105971429D01*
X144785714Y-106057143D01*
X144757143Y-106114286D01*
X144728571Y-106142857D01*
X144671429Y-106171429D01*
X144442857Y-106171429D01*
X144442857Y-105571429D01*
X144642857Y-105571429D01*
X144700000Y-105600000D01*
X144728571Y-105628571D01*
X144757143Y-105685714D01*
X144757143Y-105742857D01*
X144728571Y-105800000D01*
X144700000Y-105828571D01*
X144642857Y-105857143D01*
X144442857Y-105857143D01*
X145357143Y-106171429D02*
X145014286Y-106171429D01*
X145185714Y-106171429D02*
X145185714Y-105571429D01*
X145128571Y-105657143D01*
X145071429Y-105714286D01*
X145014286Y-105742857D01*
X145614286Y-106114286D02*
X145642858Y-106142857D01*
X145614286Y-106171429D01*
X145585715Y-106142857D01*
X145614286Y-106114286D01*
X145614286Y-106171429D01*
X145871429Y-105628571D02*
X145900000Y-105600000D01*
X145957143Y-105571429D01*
X146100000Y-105571429D01*
X146157143Y-105600000D01*
X146185714Y-105628571D01*
X146214286Y-105685714D01*
X146214286Y-105742857D01*
X146185714Y-105828571D01*
X145842857Y-106171429D01*
X146214286Y-106171429D01*
D13*
X146874000Y-93735600D02*
X146874000Y-94935600D01*
X145124000Y-94935600D02*
X145124000Y-93735600D01*
X157577840Y-105171240D02*
X157626100Y-105171240D01*
X160376820Y-104470200D02*
X160376820Y-105171240D01*
X160376820Y-105171240D02*
X160127900Y-105171240D01*
X157577840Y-105171240D02*
X157377180Y-105171240D01*
X157377180Y-105171240D02*
X157377180Y-104470200D01*
X159199000Y-99642400D02*
G75*
G03X159199000Y-99642400I-100000J0D01*
G01*
X158449000Y-99392400D02*
X158949000Y-99392400D01*
X158449000Y-96492400D02*
X158449000Y-99392400D01*
X158949000Y-96492400D02*
X158449000Y-96492400D01*
X158949000Y-99392400D02*
X158949000Y-96492400D01*
X147605000Y-95639000D02*
X147705000Y-95589000D01*
X147380000Y-95489000D02*
X147605000Y-95639000D01*
X147630000Y-95814000D02*
X147380000Y-95489000D01*
X147880000Y-95489000D02*
X147630000Y-95814000D01*
X147380000Y-95489000D02*
X147880000Y-95489000D01*
X154755000Y-95689000D02*
X154755000Y-96214000D01*
X147505000Y-102939000D02*
X147505000Y-102414000D01*
X154755000Y-102939000D02*
X154755000Y-102414000D01*
X147505000Y-102939000D02*
X148030000Y-102939000D01*
X154755000Y-102939000D02*
X154230000Y-102939000D01*
X154755000Y-95689000D02*
X154230000Y-95689000D01*
X159377000Y-101004000D02*
X158377000Y-101004000D01*
X158377000Y-102704000D02*
X159377000Y-102704000D01*
X145098000Y-99900000D02*
X145098000Y-100900000D01*
X146798000Y-100900000D02*
X146798000Y-99900000D01*
D14*
X145932334Y-94516552D02*
X145799000Y-94326076D01*
X145703762Y-94516552D02*
X145703762Y-94116552D01*
X145856143Y-94116552D01*
X145894238Y-94135600D01*
X145913286Y-94154648D01*
X145932334Y-94192743D01*
X145932334Y-94249886D01*
X145913286Y-94287981D01*
X145894238Y-94307029D01*
X145856143Y-94326076D01*
X145703762Y-94326076D01*
X146065667Y-94116552D02*
X146313286Y-94116552D01*
X146179953Y-94268933D01*
X146237095Y-94268933D01*
X146275191Y-94287981D01*
X146294238Y-94307029D01*
X146313286Y-94345124D01*
X146313286Y-94440362D01*
X146294238Y-94478457D01*
X146275191Y-94497505D01*
X146237095Y-94516552D01*
X146122810Y-94516552D01*
X146084714Y-94497505D01*
X146065667Y-94478457D01*
X158572238Y-104301952D02*
X158572238Y-104625762D01*
X158591286Y-104663857D01*
X158610333Y-104682905D01*
X158648429Y-104701952D01*
X158724619Y-104701952D01*
X158762714Y-104682905D01*
X158781762Y-104663857D01*
X158800810Y-104625762D01*
X158800810Y-104301952D01*
X159162715Y-104435286D02*
X159162715Y-104701952D01*
X159067477Y-104282905D02*
X158972238Y-104568619D01*
X159219858Y-104568619D01*
X159664238Y-95945352D02*
X159664238Y-96269162D01*
X159683286Y-96307257D01*
X159702333Y-96326305D01*
X159740429Y-96345352D01*
X159816619Y-96345352D01*
X159854714Y-96326305D01*
X159873762Y-96307257D01*
X159892810Y-96269162D01*
X159892810Y-95945352D01*
X160273762Y-95945352D02*
X160083286Y-95945352D01*
X160064238Y-96135829D01*
X160083286Y-96116781D01*
X160121381Y-96097733D01*
X160216619Y-96097733D01*
X160254715Y-96116781D01*
X160273762Y-96135829D01*
X160292810Y-96173924D01*
X160292810Y-96269162D01*
X160273762Y-96307257D01*
X160254715Y-96326305D01*
X160216619Y-96345352D01*
X160121381Y-96345352D01*
X160083286Y-96326305D01*
X160064238Y-96307257D01*
X147523238Y-94776952D02*
X147523238Y-95100762D01*
X147542286Y-95138857D01*
X147561333Y-95157905D01*
X147599429Y-95176952D01*
X147675619Y-95176952D01*
X147713714Y-95157905D01*
X147732762Y-95138857D01*
X147751810Y-95100762D01*
X147751810Y-94776952D01*
X148151810Y-95176952D02*
X147923238Y-95176952D01*
X148037524Y-95176952D02*
X148037524Y-94776952D01*
X147999429Y-94834095D01*
X147961334Y-94872190D01*
X147923238Y-94891238D01*
X159019857Y-101866666D02*
X159038905Y-101885714D01*
X159057952Y-101942857D01*
X159057952Y-101980952D01*
X159038905Y-102038095D01*
X159000810Y-102076190D01*
X158962714Y-102095238D01*
X158886524Y-102114286D01*
X158829381Y-102114286D01*
X158753190Y-102095238D01*
X158715095Y-102076190D01*
X158677000Y-102038095D01*
X158657952Y-101980952D01*
X158657952Y-101942857D01*
X158677000Y-101885714D01*
X158696048Y-101866666D01*
X158657952Y-101733333D02*
X158657952Y-101466666D01*
X159057952Y-101638095D01*
X145933334Y-100606857D02*
X145914286Y-100625905D01*
X145857143Y-100644952D01*
X145819048Y-100644952D01*
X145761905Y-100625905D01*
X145723810Y-100587810D01*
X145704762Y-100549714D01*
X145685714Y-100473524D01*
X145685714Y-100416381D01*
X145704762Y-100340190D01*
X145723810Y-100302095D01*
X145761905Y-100264000D01*
X145819048Y-100244952D01*
X145857143Y-100244952D01*
X145914286Y-100264000D01*
X145933334Y-100283048D01*
X146161905Y-100416381D02*
X146123810Y-100397333D01*
X146104762Y-100378286D01*
X146085714Y-100340190D01*
X146085714Y-100321143D01*
X146104762Y-100283048D01*
X146123810Y-100264000D01*
X146161905Y-100244952D01*
X146238095Y-100244952D01*
X146276191Y-100264000D01*
X146295238Y-100283048D01*
X146314286Y-100321143D01*
X146314286Y-100340190D01*
X146295238Y-100378286D01*
X146276191Y-100397333D01*
X146238095Y-100416381D01*
X146161905Y-100416381D01*
X146123810Y-100435429D01*
X146104762Y-100454476D01*
X146085714Y-100492571D01*
X146085714Y-100568762D01*
X146104762Y-100606857D01*
X146123810Y-100625905D01*
X146161905Y-100644952D01*
X146238095Y-100644952D01*
X146276191Y-100625905D01*
X146295238Y-100606857D01*
X146314286Y-100568762D01*
X146314286Y-100492571D01*
X146295238Y-100454476D01*
X146276191Y-100435429D01*
X146238095Y-100416381D01*
M02*
