G04 #@! TF.FileFunction,Paste,Top*
%FSLAX46Y46*%
G04 Gerber Fmt 4.6, Leading zero omitted, Abs format (unit mm)*
G04 Created by KiCad (PCBNEW 4.0.4-stable) date 12/27/16 16:45:08*
%MOMM*%
%LPD*%
G01*
G04 APERTURE LIST*
%ADD10C,0.100000*%
%ADD11R,1.300000X0.700000*%
%ADD12R,0.800100X0.800100*%
%ADD13R,1.060000X0.650000*%
%ADD14R,0.700000X0.250000*%
%ADD15R,0.250000X0.700000*%
%ADD16R,0.772500X0.772500*%
%ADD17R,1.000000X1.250000*%
%ADD18R,1.250000X1.000000*%
G04 APERTURE END LIST*
D10*
D11*
X145999000Y-95285600D03*
X145999000Y-93385600D03*
D12*
X159827000Y-103520240D03*
X157927000Y-103520240D03*
X158877000Y-105519220D03*
D13*
X159799000Y-98892400D03*
X159799000Y-97942400D03*
X159799000Y-96992400D03*
X157599000Y-96992400D03*
X157599000Y-98892400D03*
X157599000Y-97942400D03*
D14*
X147730000Y-96564000D03*
X147730000Y-97064000D03*
X147730000Y-97564000D03*
X147730000Y-98064000D03*
X147730000Y-98564000D03*
X147730000Y-99064000D03*
X147730000Y-99564000D03*
X147730000Y-100064000D03*
X147730000Y-100564000D03*
X147730000Y-101064000D03*
X147730000Y-101564000D03*
X147730000Y-102064000D03*
D15*
X148380000Y-102714000D03*
X148880000Y-102714000D03*
X149380000Y-102714000D03*
X149880000Y-102714000D03*
X150380000Y-102714000D03*
X150880000Y-102714000D03*
X151380000Y-102714000D03*
X151880000Y-102714000D03*
X152380000Y-102714000D03*
X152880000Y-102714000D03*
X153380000Y-102714000D03*
X153880000Y-102714000D03*
D14*
X154530000Y-102064000D03*
X154530000Y-101564000D03*
X154530000Y-101064000D03*
X154530000Y-100564000D03*
X154530000Y-100064000D03*
X154530000Y-99564000D03*
X154530000Y-99064000D03*
X154530000Y-98564000D03*
X154530000Y-98064000D03*
X154530000Y-97564000D03*
X154530000Y-97064000D03*
X154530000Y-96564000D03*
D15*
X153880000Y-95914000D03*
X153380000Y-95914000D03*
X152880000Y-95914000D03*
X152380000Y-95914000D03*
X151880000Y-95914000D03*
X151380000Y-95914000D03*
X150880000Y-95914000D03*
X150380000Y-95914000D03*
X149880000Y-95914000D03*
X149380000Y-95914000D03*
X148880000Y-95914000D03*
X148380000Y-95914000D03*
D16*
X153061250Y-101245250D03*
X153061250Y-99957750D03*
X153061250Y-98670250D03*
X153061250Y-97382750D03*
X151773750Y-101245250D03*
X151773750Y-99957750D03*
X151773750Y-98670250D03*
X151773750Y-97382750D03*
X150486250Y-101245250D03*
X150486250Y-99957750D03*
X150486250Y-98670250D03*
X150486250Y-97382750D03*
X149198750Y-101245250D03*
X149198750Y-99957750D03*
X149198750Y-98670250D03*
X149198750Y-97382750D03*
D17*
X157877000Y-101854000D03*
X159877000Y-101854000D03*
D18*
X145948000Y-101400000D03*
X145948000Y-99400000D03*
M02*
