G04 #@! TF.FileFunction,Legend,Bot*
%FSLAX46Y46*%
G04 Gerber Fmt 4.6, Leading zero omitted, Abs format (unit mm)*
G04 Created by KiCad (PCBNEW 4.0.4-stable) date 12/27/16 16:45:08*
%MOMM*%
%LPD*%
G01*
G04 APERTURE LIST*
%ADD10C,0.100000*%
%ADD11C,0.150000*%
%ADD12C,0.200000*%
%ADD13C,0.090000*%
G04 APERTURE END LIST*
D10*
X156470285Y-103965371D02*
X156165523Y-103965371D01*
X156317904Y-104117752D02*
X156317904Y-103812990D01*
X155784571Y-103717752D02*
X155975047Y-103717752D01*
X155994095Y-103908229D01*
X155975047Y-103889181D01*
X155936952Y-103870133D01*
X155841714Y-103870133D01*
X155803618Y-103889181D01*
X155784571Y-103908229D01*
X155765523Y-103946324D01*
X155765523Y-104041562D01*
X155784571Y-104079657D01*
X155803618Y-104098705D01*
X155841714Y-104117752D01*
X155936952Y-104117752D01*
X155975047Y-104098705D01*
X155994095Y-104079657D01*
X155651238Y-103717752D02*
X155517904Y-104117752D01*
X155384571Y-103717752D01*
X153720762Y-103787600D02*
X153758857Y-103768552D01*
X153816000Y-103768552D01*
X153873143Y-103787600D01*
X153911238Y-103825695D01*
X153930286Y-103863790D01*
X153949334Y-103939981D01*
X153949334Y-103997124D01*
X153930286Y-104073314D01*
X153911238Y-104111410D01*
X153873143Y-104149505D01*
X153816000Y-104168552D01*
X153777905Y-104168552D01*
X153720762Y-104149505D01*
X153701714Y-104130457D01*
X153701714Y-103997124D01*
X153777905Y-103997124D01*
X153530286Y-104168552D02*
X153530286Y-103768552D01*
X153301714Y-104168552D01*
X153301714Y-103768552D01*
X153111238Y-104168552D02*
X153111238Y-103768552D01*
X153016000Y-103768552D01*
X152958857Y-103787600D01*
X152920762Y-103825695D01*
X152901714Y-103863790D01*
X152882666Y-103939981D01*
X152882666Y-103997124D01*
X152901714Y-104073314D01*
X152920762Y-104111410D01*
X152958857Y-104149505D01*
X153016000Y-104168552D01*
X153111238Y-104168552D01*
X151180762Y-103819352D02*
X150952190Y-103819352D01*
X151066476Y-104219352D02*
X151066476Y-103819352D01*
X150856952Y-103819352D02*
X150590285Y-104219352D01*
X150590285Y-103819352D02*
X150856952Y-104219352D01*
X148402666Y-104168552D02*
X148536000Y-103978076D01*
X148631238Y-104168552D02*
X148631238Y-103768552D01*
X148478857Y-103768552D01*
X148440762Y-103787600D01*
X148421714Y-103806648D01*
X148402666Y-103844743D01*
X148402666Y-103901886D01*
X148421714Y-103939981D01*
X148440762Y-103959029D01*
X148478857Y-103978076D01*
X148631238Y-103978076D01*
X148269333Y-103768552D02*
X148002666Y-104168552D01*
X148002666Y-103768552D02*
X148269333Y-104168552D01*
D11*
X141986000Y-93980000D02*
X147320000Y-93980000D01*
X147320000Y-93980000D02*
X147320000Y-104140000D01*
X147320000Y-104140000D02*
X141986000Y-104140000D01*
X145288000Y-95260400D02*
X145288000Y-97800400D01*
X145288000Y-97800400D02*
X142494000Y-97800400D01*
X142494000Y-95260400D02*
X142494000Y-97800400D01*
X145288000Y-95260400D02*
X142494000Y-95260400D01*
X145288000Y-100264200D02*
X145288000Y-102804200D01*
X145288000Y-102804200D02*
X142494000Y-102804200D01*
X142494000Y-100264200D02*
X142494000Y-102804200D01*
X145288000Y-100264200D02*
X142494000Y-100264200D01*
X142494000Y-103566200D02*
X147066000Y-103566200D01*
X142494000Y-94498400D02*
X147066000Y-94498400D01*
X147066000Y-99502200D02*
X147066000Y-103566200D01*
X147066000Y-99502200D02*
X142494000Y-99502200D01*
X147066000Y-98562400D02*
X147066000Y-94498400D01*
X147066000Y-98562400D02*
X142494000Y-98562400D01*
X146431000Y-103185200D02*
X143256000Y-103185200D01*
X146431000Y-103185200D02*
X146431000Y-99883200D01*
X146431000Y-99883200D02*
X143256000Y-99883200D01*
X146431000Y-98181400D02*
X143256000Y-98181400D01*
X146431000Y-98181400D02*
X146431000Y-94879400D01*
X146431000Y-94879400D02*
X143256000Y-94879400D01*
X143256000Y-94879400D02*
X143256000Y-95260400D01*
X143256000Y-98181400D02*
X143256000Y-97800400D01*
X143256000Y-99883200D02*
X143256000Y-100264200D01*
X143256000Y-103185200D02*
X143256000Y-102804200D01*
X142113000Y-93940000D02*
X139573000Y-93940000D01*
X141097000Y-104125000D02*
X142113000Y-104125000D01*
X139573000Y-93940000D02*
X139573000Y-104125000D01*
X139573000Y-104125000D02*
X141097000Y-104125000D01*
X142494000Y-94498400D02*
X142494000Y-94879400D01*
X142494000Y-98562400D02*
X142494000Y-98181400D01*
X142494000Y-98181400D02*
X142494000Y-94879400D01*
X142113000Y-93940000D02*
X142113000Y-94879400D01*
X142113000Y-94879400D02*
X142113000Y-98181400D01*
X142113000Y-98181400D02*
X142113000Y-99883200D01*
X142113000Y-104125000D02*
X142113000Y-103185200D01*
X142113000Y-103185200D02*
X142113000Y-99883200D01*
X142494000Y-103566200D02*
X142494000Y-103185200D01*
X142494000Y-99502200D02*
X142494000Y-99883200D01*
X142494000Y-99883200D02*
X142494000Y-103185200D01*
X151551000Y-96450840D02*
X151551000Y-96499100D01*
X150849960Y-99249820D02*
X151551000Y-99249820D01*
X151551000Y-99249820D02*
X151551000Y-99000900D01*
X151551000Y-96450840D02*
X151551000Y-96250180D01*
X151551000Y-96250180D02*
X150849960Y-96250180D01*
D12*
X158500000Y-95239200D02*
X154500000Y-95239200D01*
X154500000Y-95239200D02*
X154500000Y-100239200D01*
X154500000Y-100239200D02*
X158500000Y-100239200D01*
X158500000Y-100239200D02*
X158500000Y-95239200D01*
X158250000Y-95989200D02*
G75*
G03X158250000Y-95989200I-500000J0D01*
G01*
D11*
X159500000Y-106050000D02*
X158500000Y-106050000D01*
X158500000Y-104350000D02*
X159500000Y-104350000D01*
X160906880Y-106680860D02*
X175003880Y-106680860D01*
X175003880Y-91694860D02*
X160906880Y-91694860D01*
X160906880Y-106680860D02*
X160906880Y-91694860D01*
X175003880Y-106680860D02*
X175003880Y-91694860D01*
X149035000Y-95866500D02*
X149035000Y-97644500D01*
X147765000Y-97644500D02*
X147765000Y-95866500D01*
X147765000Y-95866500D02*
X149035000Y-95866500D01*
X149035000Y-97644500D02*
X147765000Y-97644500D01*
X149075000Y-99500000D02*
X149075000Y-98500000D01*
X147725000Y-98500000D02*
X147725000Y-99500000D01*
X153328000Y-102659000D02*
X153328000Y-101659000D01*
X155028000Y-101659000D02*
X155028000Y-102659000D01*
X151093000Y-102659000D02*
X151093000Y-101659000D01*
X152793000Y-101659000D02*
X152793000Y-102659000D01*
X156650000Y-102700000D02*
X156650000Y-101700000D01*
X158350000Y-101700000D02*
X158350000Y-102700000D01*
X158916000Y-102700000D02*
X158916000Y-101700000D01*
X160616000Y-101700000D02*
X160616000Y-102700000D01*
D13*
X140853952Y-94104762D02*
X140453952Y-94104762D01*
X140453952Y-94257143D01*
X140473000Y-94295238D01*
X140492048Y-94314286D01*
X140530143Y-94333334D01*
X140587286Y-94333334D01*
X140625381Y-94314286D01*
X140644429Y-94295238D01*
X140663476Y-94257143D01*
X140663476Y-94104762D01*
X140492048Y-94485714D02*
X140473000Y-94504762D01*
X140453952Y-94542857D01*
X140453952Y-94638095D01*
X140473000Y-94676191D01*
X140492048Y-94695238D01*
X140530143Y-94714286D01*
X140568238Y-94714286D01*
X140625381Y-94695238D01*
X140853952Y-94466667D01*
X140853952Y-94714286D01*
X150681712Y-97445238D02*
X151005522Y-97445238D01*
X151043617Y-97464286D01*
X151062665Y-97483333D01*
X151081712Y-97521429D01*
X151081712Y-97597619D01*
X151062665Y-97635714D01*
X151043617Y-97654762D01*
X151005522Y-97673810D01*
X150681712Y-97673810D01*
X150719808Y-97845238D02*
X150700760Y-97864286D01*
X150681712Y-97902381D01*
X150681712Y-97997619D01*
X150700760Y-98035715D01*
X150719808Y-98054762D01*
X150757903Y-98073810D01*
X150795998Y-98073810D01*
X150853141Y-98054762D01*
X151081712Y-97826191D01*
X151081712Y-98073810D01*
X156804762Y-97266152D02*
X156804762Y-97589962D01*
X156785714Y-97628057D01*
X156766667Y-97647105D01*
X156728571Y-97666152D01*
X156652381Y-97666152D01*
X156614286Y-97647105D01*
X156595238Y-97628057D01*
X156576190Y-97589962D01*
X156576190Y-97266152D01*
X156423809Y-97266152D02*
X156176190Y-97266152D01*
X156309523Y-97418533D01*
X156252381Y-97418533D01*
X156214285Y-97437581D01*
X156195238Y-97456629D01*
X156176190Y-97494724D01*
X156176190Y-97589962D01*
X156195238Y-97628057D01*
X156214285Y-97647105D01*
X156252381Y-97666152D01*
X156366666Y-97666152D01*
X156404762Y-97647105D01*
X156423809Y-97628057D01*
D10*
X158938095Y-94810390D02*
X158861905Y-94810390D01*
X158785714Y-94848486D01*
X158747619Y-94924676D01*
X158747619Y-95000867D01*
X158785714Y-95077057D01*
X158861905Y-95115152D01*
X158938095Y-95115152D01*
X159014286Y-95077057D01*
X159052381Y-95000867D01*
X159052381Y-94924676D01*
X159014286Y-94848486D01*
X158938095Y-94810390D01*
D13*
X159066667Y-105380952D02*
X159257143Y-105380952D01*
X159257143Y-104980952D01*
X158723809Y-105380952D02*
X158952381Y-105380952D01*
X158838095Y-105380952D02*
X158838095Y-104980952D01*
X158876190Y-105038095D01*
X158914285Y-105076190D01*
X158952381Y-105095238D01*
X162347238Y-94033952D02*
X162347238Y-93633952D01*
X162194857Y-93633952D01*
X162156762Y-93653000D01*
X162137714Y-93672048D01*
X162118666Y-93710143D01*
X162118666Y-93767286D01*
X162137714Y-93805381D01*
X162156762Y-93824429D01*
X162194857Y-93843476D01*
X162347238Y-93843476D01*
X161985333Y-93633952D02*
X161737714Y-93633952D01*
X161871047Y-93786333D01*
X161813905Y-93786333D01*
X161775809Y-93805381D01*
X161756762Y-93824429D01*
X161737714Y-93862524D01*
X161737714Y-93957762D01*
X161756762Y-93995857D01*
X161775809Y-94014905D01*
X161813905Y-94033952D01*
X161928190Y-94033952D01*
X161966286Y-94014905D01*
X161985333Y-93995857D01*
X148371390Y-95285300D02*
X148409485Y-95266252D01*
X148466628Y-95266252D01*
X148523771Y-95285300D01*
X148561866Y-95323395D01*
X148580914Y-95361490D01*
X148599962Y-95437681D01*
X148599962Y-95494824D01*
X148580914Y-95571014D01*
X148561866Y-95609110D01*
X148523771Y-95647205D01*
X148466628Y-95666252D01*
X148428533Y-95666252D01*
X148371390Y-95647205D01*
X148352342Y-95628157D01*
X148352342Y-95494824D01*
X148428533Y-95494824D01*
X148199962Y-95647205D02*
X148142819Y-95666252D01*
X148047581Y-95666252D01*
X148009485Y-95647205D01*
X147990438Y-95628157D01*
X147971390Y-95590062D01*
X147971390Y-95551967D01*
X147990438Y-95513871D01*
X148009485Y-95494824D01*
X148047581Y-95475776D01*
X148123771Y-95456729D01*
X148161866Y-95437681D01*
X148180914Y-95418633D01*
X148199962Y-95380538D01*
X148199962Y-95342443D01*
X148180914Y-95304348D01*
X148161866Y-95285300D01*
X148123771Y-95266252D01*
X148028533Y-95266252D01*
X147971390Y-95285300D01*
X147590438Y-95666252D02*
X147819010Y-95666252D01*
X147704724Y-95666252D02*
X147704724Y-95266252D01*
X147742819Y-95323395D01*
X147780914Y-95361490D01*
X147819010Y-95380538D01*
X148466666Y-99180952D02*
X148600000Y-98990476D01*
X148695238Y-99180952D02*
X148695238Y-98780952D01*
X148542857Y-98780952D01*
X148504762Y-98800000D01*
X148485714Y-98819048D01*
X148466666Y-98857143D01*
X148466666Y-98914286D01*
X148485714Y-98952381D01*
X148504762Y-98971429D01*
X148542857Y-98990476D01*
X148695238Y-98990476D01*
X148123809Y-98914286D02*
X148123809Y-99180952D01*
X148219047Y-98761905D02*
X148314286Y-99047619D01*
X148066666Y-99047619D01*
X154266666Y-102301857D02*
X154285714Y-102320905D01*
X154342857Y-102339952D01*
X154380952Y-102339952D01*
X154438095Y-102320905D01*
X154476190Y-102282810D01*
X154495238Y-102244714D01*
X154514286Y-102168524D01*
X154514286Y-102111381D01*
X154495238Y-102035190D01*
X154476190Y-101997095D01*
X154438095Y-101959000D01*
X154380952Y-101939952D01*
X154342857Y-101939952D01*
X154285714Y-101959000D01*
X154266666Y-101978048D01*
X153923809Y-102073286D02*
X153923809Y-102339952D01*
X154019047Y-101920905D02*
X154114286Y-102206619D01*
X153866666Y-102206619D01*
X152066666Y-102301857D02*
X152085714Y-102320905D01*
X152142857Y-102339952D01*
X152180952Y-102339952D01*
X152238095Y-102320905D01*
X152276190Y-102282810D01*
X152295238Y-102244714D01*
X152314286Y-102168524D01*
X152314286Y-102111381D01*
X152295238Y-102035190D01*
X152276190Y-101997095D01*
X152238095Y-101959000D01*
X152180952Y-101939952D01*
X152142857Y-101939952D01*
X152085714Y-101959000D01*
X152066666Y-101978048D01*
X151704762Y-101939952D02*
X151895238Y-101939952D01*
X151914286Y-102130429D01*
X151895238Y-102111381D01*
X151857143Y-102092333D01*
X151761905Y-102092333D01*
X151723809Y-102111381D01*
X151704762Y-102130429D01*
X151685714Y-102168524D01*
X151685714Y-102263762D01*
X151704762Y-102301857D01*
X151723809Y-102320905D01*
X151761905Y-102339952D01*
X151857143Y-102339952D01*
X151895238Y-102320905D01*
X151914286Y-102301857D01*
X157666666Y-102383857D02*
X157685714Y-102402905D01*
X157742857Y-102421952D01*
X157780952Y-102421952D01*
X157838095Y-102402905D01*
X157876190Y-102364810D01*
X157895238Y-102326714D01*
X157914286Y-102250524D01*
X157914286Y-102193381D01*
X157895238Y-102117190D01*
X157876190Y-102079095D01*
X157838095Y-102041000D01*
X157780952Y-102021952D01*
X157742857Y-102021952D01*
X157685714Y-102041000D01*
X157666666Y-102060048D01*
X157533333Y-102021952D02*
X157285714Y-102021952D01*
X157419047Y-102174333D01*
X157361905Y-102174333D01*
X157323809Y-102193381D01*
X157304762Y-102212429D01*
X157285714Y-102250524D01*
X157285714Y-102345762D01*
X157304762Y-102383857D01*
X157323809Y-102402905D01*
X157361905Y-102421952D01*
X157476190Y-102421952D01*
X157514286Y-102402905D01*
X157533333Y-102383857D01*
X159866666Y-102342857D02*
X159885714Y-102361905D01*
X159942857Y-102380952D01*
X159980952Y-102380952D01*
X160038095Y-102361905D01*
X160076190Y-102323810D01*
X160095238Y-102285714D01*
X160114286Y-102209524D01*
X160114286Y-102152381D01*
X160095238Y-102076190D01*
X160076190Y-102038095D01*
X160038095Y-102000000D01*
X159980952Y-101980952D01*
X159942857Y-101980952D01*
X159885714Y-102000000D01*
X159866666Y-102019048D01*
X159714286Y-102019048D02*
X159695238Y-102000000D01*
X159657143Y-101980952D01*
X159561905Y-101980952D01*
X159523809Y-102000000D01*
X159504762Y-102019048D01*
X159485714Y-102057143D01*
X159485714Y-102095238D01*
X159504762Y-102152381D01*
X159733333Y-102380952D01*
X159485714Y-102380952D01*
M02*
