G04 #@! TF.FileFunction,Copper,L2,Bot,Signal*
%FSLAX46Y46*%
G04 Gerber Fmt 4.6, Leading zero omitted, Abs format (unit mm)*
G04 Created by KiCad (PCBNEW (2016-04-04 BZR 6663, Git 30f5a7a)-product) date 05/05/2016 22:09:38*
%MOMM*%
G01*
G04 APERTURE LIST*
%ADD10C,0.100000*%
%ADD11O,3.962400X1.981200*%
%ADD12R,1.300000X0.700000*%
%ADD13R,0.700000X1.300000*%
%ADD14R,0.800100X0.800100*%
%ADD15R,1.450000X0.600000*%
%ADD16R,1.000000X1.250000*%
%ADD17C,3.000000*%
%ADD18R,1.727200X2.032000*%
%ADD19O,1.727200X2.032000*%
%ADD20C,1.501140*%
%ADD21O,3.800000X1.400000*%
%ADD22C,0.860000*%
%ADD23C,0.250000*%
G04 APERTURE END LIST*
D10*
D11*
X140208000Y-101981000D03*
X140208000Y-96981000D03*
D12*
X146558000Y-104074000D03*
X146558000Y-102174000D03*
D13*
X145730000Y-106172000D03*
X143830000Y-106172000D03*
D12*
X149098000Y-102174000D03*
X149098000Y-104074000D03*
X154178000Y-102174000D03*
X154178000Y-104074000D03*
D13*
X140020000Y-106172000D03*
X141920000Y-106172000D03*
D12*
X143764000Y-104074000D03*
X143764000Y-102174000D03*
D14*
X143398240Y-100137000D03*
X143398240Y-98237000D03*
X145397220Y-99187000D03*
D15*
X154130000Y-96012000D03*
X154130000Y-97282000D03*
X154130000Y-98552000D03*
X154130000Y-99822000D03*
X148130000Y-99822000D03*
X148130000Y-98552000D03*
X148130000Y-97282000D03*
X148130000Y-96012000D03*
D12*
X151638000Y-102174000D03*
X151638000Y-104074000D03*
D16*
X159782000Y-105156000D03*
X161782000Y-105156000D03*
D17*
X139192000Y-90678000D03*
D18*
X155956000Y-105918000D03*
D19*
X153416000Y-105918000D03*
X150876000Y-105918000D03*
X148336000Y-105918000D03*
D20*
X162557880Y-94741140D03*
X162557880Y-97281140D03*
X162557880Y-99313140D03*
X162557880Y-101853140D03*
D21*
X164846000Y-92456000D03*
X164846000Y-104140000D03*
D22*
X146050000Y-100711000D03*
X158115000Y-106807000D03*
X147701000Y-103251000D03*
X155321000Y-93472000D03*
X147701000Y-92710000D03*
X155956000Y-102489000D03*
X156845000Y-96647000D03*
X156718000Y-101346000D03*
X146050000Y-95250000D03*
X152400000Y-93091000D03*
X150749000Y-92329000D03*
D23*
X149098000Y-104074000D02*
X151638000Y-104074000D01*
X160274000Y-95504000D02*
X160274000Y-95446400D01*
X160216000Y-95504000D02*
X160274000Y-95504000D01*
X159258000Y-106807000D02*
X158115000Y-106807000D01*
X159782000Y-106283000D02*
X159258000Y-106807000D01*
X159782000Y-105156000D02*
X159782000Y-106283000D01*
X160979000Y-94741100D02*
X160274000Y-95446400D01*
X162557900Y-94741100D02*
X160979000Y-94741100D01*
X160274000Y-95446400D02*
X160216000Y-95504000D01*
X159782000Y-104206000D02*
X159782000Y-105156000D01*
X159705000Y-104128000D02*
X159782000Y-104206000D01*
X159705000Y-96015600D02*
X159705000Y-104128000D01*
X160216000Y-95504000D02*
X159705000Y-96015600D01*
X156718000Y-95504000D02*
X159893000Y-95504000D01*
X154940000Y-97282000D02*
X156718000Y-95504000D01*
X154130000Y-97282000D02*
X154940000Y-97282000D01*
X159893000Y-95504000D02*
X160020000Y-95504000D01*
X152654000Y-104074000D02*
X153416000Y-104836000D01*
X151638000Y-104074000D02*
X152654000Y-104074000D01*
X153416000Y-105918000D02*
X153416000Y-104836000D01*
X153416000Y-104836000D02*
X154178000Y-104074000D01*
X159893000Y-95504000D02*
X160020000Y-95504000D01*
X160020000Y-95504000D02*
X160216000Y-95504000D01*
X162558000Y-94741100D02*
X162557900Y-94741100D01*
X145397000Y-99187000D02*
X145397000Y-99549600D01*
X145397200Y-99549400D02*
X145397200Y-99187000D01*
X145397000Y-99549600D02*
X145397200Y-99549400D01*
X144505000Y-106172000D02*
X143830000Y-106172000D01*
X144505000Y-105151000D02*
X144505000Y-106172000D01*
X145583000Y-104074000D02*
X144505000Y-105151000D01*
X146558000Y-104074000D02*
X145583000Y-104074000D01*
X149537800Y-105189100D02*
X149098000Y-104749300D01*
X149537800Y-106587400D02*
X149537800Y-105189100D01*
X148845600Y-107279600D02*
X149537800Y-106587400D01*
X145357000Y-107279600D02*
X148845600Y-107279600D01*
X144505000Y-106427600D02*
X145357000Y-107279600D01*
X144505000Y-106172000D02*
X144505000Y-106427600D01*
X149098000Y-104074000D02*
X149098000Y-104749300D01*
X145553000Y-100214000D02*
X146050000Y-100711000D01*
X145095100Y-100214000D02*
X145553000Y-100214000D01*
X143154700Y-106425200D02*
X143154700Y-106172000D01*
X142432500Y-107147400D02*
X143154700Y-106425200D01*
X141385300Y-107147400D02*
X142432500Y-107147400D01*
X141244600Y-107006700D02*
X141385300Y-107147400D01*
X141244600Y-105102900D02*
X141244600Y-107006700D01*
X143050500Y-103297000D02*
X141244600Y-105102900D01*
X144151300Y-103297000D02*
X143050500Y-103297000D01*
X145095100Y-102353200D02*
X144151300Y-103297000D01*
X145095100Y-100214000D02*
X145095100Y-102353200D01*
X145095000Y-100214000D02*
X145095100Y-100214000D01*
X145397000Y-99912300D02*
X145095000Y-100214000D01*
X145397000Y-99549600D02*
X145397000Y-99912300D01*
X143830000Y-106172000D02*
X143154700Y-106172000D01*
X143764000Y-104749000D02*
X143764000Y-104412000D01*
X142595000Y-105918000D02*
X143764000Y-104749000D01*
X142595000Y-106172000D02*
X142595000Y-105918000D01*
X141920000Y-106172000D02*
X142595000Y-106172000D01*
X145583000Y-102593000D02*
X143764000Y-104412000D01*
X145583000Y-102174000D02*
X145583000Y-102593000D01*
X146558000Y-102174000D02*
X145583000Y-102174000D01*
X147080000Y-99822000D02*
X148130000Y-99822000D01*
X147080000Y-100977000D02*
X147080000Y-99822000D01*
X146558000Y-101499000D02*
X147080000Y-100977000D01*
X146558000Y-102174000D02*
X146558000Y-101499000D01*
X143764000Y-104074000D02*
X143764000Y-104412000D01*
X154178000Y-102174000D02*
X155641000Y-102174000D01*
X155641000Y-102174000D02*
X155956000Y-102489000D01*
X147594000Y-103144000D02*
X147594000Y-103017000D01*
X147701000Y-103251000D02*
X147594000Y-103144000D01*
X155321000Y-93091000D02*
X155321000Y-93472000D01*
X153670000Y-91440000D02*
X155321000Y-93091000D01*
X149733000Y-91440000D02*
X153670000Y-91440000D01*
X149352000Y-91821000D02*
X149733000Y-91440000D01*
X149352000Y-92710000D02*
X149352000Y-91821000D01*
X147701000Y-92710000D02*
X149352000Y-92710000D01*
X149352000Y-101920000D02*
X149098000Y-102174000D01*
X149352000Y-92710000D02*
X149352000Y-101920000D01*
X152782000Y-102005000D02*
X154178000Y-102005000D01*
X152613000Y-102174000D02*
X152782000Y-102005000D01*
X151638000Y-102174000D02*
X152613000Y-102174000D01*
X148123000Y-102488000D02*
X147594000Y-103017000D01*
X148123000Y-102174000D02*
X148123000Y-102488000D01*
X149098000Y-102174000D02*
X148123000Y-102174000D01*
X151638000Y-102174000D02*
X149098000Y-102174000D01*
X146405000Y-106172000D02*
X145730000Y-106172000D01*
X146405000Y-105739000D02*
X146405000Y-106172000D01*
X147534000Y-104610000D02*
X146405000Y-105739000D01*
X147534000Y-103077000D02*
X147534000Y-104610000D01*
X147594000Y-103017000D02*
X147534000Y-103077000D01*
X154178000Y-102174000D02*
X154178000Y-102005000D01*
X155180300Y-101044700D02*
X155100000Y-101125000D01*
X154130000Y-98552000D02*
X155180300Y-98552000D01*
X155100000Y-101125000D02*
X155956000Y-101981000D01*
X155956000Y-101981000D02*
X155956000Y-102489000D01*
X155180300Y-98552000D02*
X155180300Y-101044700D01*
X156718000Y-96774000D02*
X156718000Y-101346000D01*
X156845000Y-96647000D02*
X156718000Y-96774000D01*
X155702000Y-104831000D02*
X155702000Y-105502000D01*
X156718000Y-103815000D02*
X155702000Y-104831000D01*
X156718000Y-101346000D02*
X156718000Y-103815000D01*
X155702000Y-105502000D02*
X155702000Y-106172000D01*
X155956000Y-105756000D02*
X155956000Y-105918000D01*
X155702000Y-105502000D02*
X155956000Y-105756000D01*
X139345000Y-106172000D02*
X140020000Y-106172000D01*
X137849000Y-104676000D02*
X139345000Y-106172000D01*
X137849000Y-100607000D02*
X137849000Y-104676000D01*
X140208000Y-98247900D02*
X137849000Y-100607000D01*
X142673000Y-98237000D02*
X143398200Y-98237000D01*
X142662000Y-98247900D02*
X142673000Y-98237000D01*
X140208000Y-98247900D02*
X142662000Y-98247900D01*
X145079000Y-97282000D02*
X148130000Y-97282000D01*
X144124000Y-98237000D02*
X145079000Y-97282000D01*
X143398200Y-98237000D02*
X144124000Y-98237000D01*
X140208000Y-98247900D02*
X140208000Y-96981000D01*
X143764000Y-101499000D02*
X143764000Y-102174000D01*
X143398000Y-101499000D02*
X143764000Y-101499000D01*
X143398000Y-101499000D02*
X143398000Y-100455000D01*
X147080000Y-98552000D02*
X148130000Y-98552000D01*
X146913000Y-98385600D02*
X147080000Y-98552000D01*
X144882000Y-98385600D02*
X146913000Y-98385600D01*
X143856000Y-99411600D02*
X144882000Y-98385600D01*
X143398000Y-99411600D02*
X143856000Y-99411600D01*
X143398000Y-100137000D02*
X143398000Y-99411600D01*
X140208000Y-102028000D02*
X140255000Y-102028000D01*
X142925000Y-101499000D02*
X143398000Y-101499000D01*
X142806000Y-101618000D02*
X142925000Y-101499000D01*
X142806000Y-101736000D02*
X142806000Y-101618000D01*
X142514000Y-102028000D02*
X142806000Y-101736000D01*
X140255000Y-102028000D02*
X142514000Y-102028000D01*
X140255000Y-102028000D02*
X140208000Y-101981000D01*
X143398000Y-100455000D02*
X143398000Y-100296000D01*
X143398000Y-100455000D02*
X143398000Y-100296000D01*
X143398000Y-100296000D02*
X143398000Y-100216500D01*
X143398000Y-100296000D02*
X143398000Y-100216500D01*
X143398000Y-100216500D02*
X143398000Y-100176700D01*
X143398000Y-100216500D02*
X143398000Y-100176700D01*
X143398000Y-100176700D02*
X143398000Y-100156800D01*
X143398000Y-100176700D02*
X143398000Y-100156800D01*
X143398000Y-100156800D02*
X143398000Y-100146900D01*
X143398000Y-100156800D02*
X143398000Y-100146900D01*
X143398000Y-100146900D02*
X143398000Y-100141900D01*
X143398000Y-100146900D02*
X143398000Y-100141900D01*
X143398000Y-100141900D02*
X143398000Y-100139400D01*
X143398000Y-100141900D02*
X143398000Y-100139400D01*
X143398000Y-100139400D02*
X143398000Y-100138200D01*
X143398000Y-100139400D02*
X143398000Y-100138200D01*
X143398000Y-100138200D02*
X143398000Y-100137600D01*
X143398000Y-100137600D02*
X143398000Y-100137000D01*
X143398000Y-100138200D02*
X143398000Y-100137600D01*
X143398000Y-100137600D02*
X143398000Y-100137000D01*
X143398200Y-100137400D02*
X143398200Y-100137000D01*
X143398000Y-100137600D02*
X143398200Y-100137400D01*
X146812000Y-96012000D02*
X148130000Y-96012000D01*
X146050000Y-95250000D02*
X146812000Y-96012000D01*
X152781000Y-99822000D02*
X154130000Y-99822000D01*
X152527000Y-99568000D02*
X152781000Y-99822000D01*
X152527000Y-93218000D02*
X152527000Y-99568000D01*
X152400000Y-93091000D02*
X152527000Y-93218000D01*
X150749000Y-92329000D02*
X153543000Y-92329000D01*
X153543000Y-92329000D02*
X154130000Y-92916000D01*
X154130000Y-92916000D02*
X154130000Y-96012000D01*
X162621000Y-104140000D02*
X164846000Y-104140000D01*
X162621000Y-105143000D02*
X162621000Y-104140000D01*
X162607000Y-105156000D02*
X162621000Y-105143000D01*
X161782000Y-105156000D02*
X162607000Y-105156000D01*
M02*
