G04 #@! TF.FileFunction,Copper,L2,Bot,Signal*
%FSLAX46Y46*%
G04 Gerber Fmt 4.6, Leading zero omitted, Abs format (unit mm)*
G04 Created by KiCad (PCBNEW (2016-04-04 BZR 6663, Git 30f5a7a)-product) date 13/07/2016 18:07:22*
%MOMM*%
G01*
G04 APERTURE LIST*
%ADD10C,0.100000*%
%ADD11O,3.962400X1.981200*%
%ADD12R,0.700000X1.300000*%
%ADD13R,1.300000X0.700000*%
%ADD14R,0.800100X0.800100*%
%ADD15R,1.450000X0.600000*%
%ADD16R,1.000000X1.250000*%
%ADD17C,1.501140*%
%ADD18O,3.800000X1.400000*%
%ADD19R,1.727200X1.700000*%
%ADD20O,1.727200X1.700000*%
%ADD21C,2.000000*%
%ADD22R,0.600000X1.000000*%
%ADD23C,0.600000*%
%ADD24C,0.250000*%
%ADD25C,0.254000*%
G04 APERTURE END LIST*
D10*
D11*
X142748000Y-96520000D03*
X142748000Y-101520000D03*
D12*
X158938000Y-93345000D03*
X157038000Y-93345000D03*
D13*
X159766000Y-101158000D03*
X159766000Y-103058000D03*
X154178000Y-101209000D03*
X154178000Y-103109000D03*
X157607000Y-101158000D03*
X157607000Y-103058000D03*
D12*
X148910000Y-93370400D03*
X150810000Y-93370400D03*
X150099000Y-102006000D03*
X148199000Y-102006000D03*
D14*
X147792440Y-98232000D03*
X147792440Y-96332000D03*
X149791420Y-97282000D03*
D15*
X159362000Y-95834200D03*
X159362000Y-97104200D03*
X159362000Y-98374200D03*
X159362000Y-99644200D03*
X153362000Y-99644200D03*
X153362000Y-98374200D03*
X153362000Y-97104200D03*
X153362000Y-95834200D03*
D13*
X151943000Y-101209000D03*
X151943000Y-103109000D03*
D16*
X158004000Y-104902000D03*
X160004000Y-104902000D03*
D17*
X162049880Y-102743860D03*
X162049880Y-100203860D03*
X162049880Y-98171860D03*
X162049880Y-95631860D03*
D18*
X164338000Y-105029000D03*
X164338000Y-93345000D03*
D19*
X155956000Y-105156000D03*
D20*
X153416000Y-105156000D03*
X150876000Y-105156000D03*
X148336000Y-105156000D03*
D21*
X142875000Y-93218000D03*
D22*
X146799500Y-93268800D03*
X145974000Y-93268800D03*
X149034500Y-99974400D03*
X148209000Y-99974400D03*
D23*
X144475200Y-98755200D03*
X155505000Y-96942500D03*
X157320500Y-95013300D03*
X146200900Y-102538200D03*
X155835500Y-95563600D03*
X156443100Y-101412700D03*
X152392100Y-95060200D03*
X150817100Y-95060200D03*
X149274800Y-94866600D03*
D24*
X145796000Y-97282000D02*
X144475200Y-98602800D01*
X144475200Y-98602800D02*
X144475200Y-98755200D01*
X149791420Y-97282000D02*
X145796000Y-97282000D01*
X158938000Y-93345000D02*
X159613300Y-93345000D01*
X162049900Y-95631900D02*
X161313800Y-95631900D01*
X160412300Y-96533400D02*
X161313800Y-95631900D01*
X160412300Y-97104200D02*
X160412300Y-96533400D01*
X161313800Y-95045500D02*
X159613300Y-93345000D01*
X161313800Y-95631900D02*
X161313800Y-95045500D01*
X151943000Y-103109000D02*
X152918300Y-103109000D01*
X158004000Y-104902000D02*
X158004000Y-104078800D01*
X159766000Y-103058000D02*
X159766000Y-103733300D01*
X159362000Y-97104200D02*
X160299700Y-97104200D01*
X160299700Y-97104200D02*
X160412300Y-97104200D01*
X160019200Y-102382700D02*
X159766000Y-102382700D01*
X160891300Y-101510600D02*
X160019200Y-102382700D01*
X160891300Y-97583200D02*
X160891300Y-101510600D01*
X160412300Y-97104200D02*
X160891300Y-97583200D01*
X159766000Y-103058000D02*
X159766000Y-102382700D01*
X153416000Y-105156000D02*
X153416000Y-104093300D01*
X153416000Y-104093300D02*
X153416000Y-103606700D01*
X153416000Y-103606700D02*
X152918300Y-103109000D01*
X153913700Y-103109000D02*
X154178000Y-103109000D01*
X153416000Y-103606700D02*
X153913700Y-103109000D01*
X156580700Y-103109000D02*
X156631700Y-103058000D01*
X154178000Y-103109000D02*
X156580700Y-103109000D01*
X157607000Y-103058000D02*
X156631700Y-103058000D01*
X158004000Y-104078800D02*
X158176800Y-103906000D01*
X158349500Y-103733300D02*
X159766000Y-103733300D01*
X158176800Y-103906000D02*
X158349500Y-103733300D01*
X158004100Y-103733300D02*
X157607000Y-103733300D01*
X158176800Y-103906000D02*
X158004100Y-103733300D01*
X157607000Y-103058000D02*
X157607000Y-103733300D01*
X150810000Y-93370400D02*
X151485300Y-93370400D01*
X156362700Y-93345000D02*
X151510700Y-93345000D01*
X151510700Y-93345000D02*
X151485300Y-93370400D01*
X157038000Y-93345000D02*
X156362700Y-93345000D01*
X150099000Y-102006000D02*
X150099000Y-101030700D01*
X151485500Y-99644200D02*
X153362000Y-99644200D01*
X150099000Y-101030700D02*
X151485500Y-99644200D01*
X157038000Y-94730800D02*
X157320500Y-95013300D01*
X157038000Y-93345000D02*
X157038000Y-94730800D01*
X153362000Y-99644200D02*
X154412300Y-99644200D01*
X154412300Y-98035200D02*
X155505000Y-96942500D01*
X154412300Y-99644200D02*
X154412300Y-98035200D01*
X151943000Y-101209000D02*
X154178000Y-101209000D01*
X146683300Y-103020600D02*
X146200900Y-102538200D01*
X150553400Y-103020600D02*
X146683300Y-103020600D01*
X151689700Y-101884300D02*
X150553400Y-103020600D01*
X151943000Y-101884300D02*
X151689700Y-101884300D01*
X151943000Y-101209000D02*
X151943000Y-101884300D01*
X158646100Y-98374200D02*
X155835500Y-95563600D01*
X159362000Y-98374200D02*
X158646100Y-98374200D01*
X159362000Y-98374200D02*
X160412300Y-98374200D01*
X157607000Y-101158000D02*
X159766000Y-101158000D01*
X160412300Y-100159600D02*
X160412300Y-98374200D01*
X160089200Y-100482700D02*
X160412300Y-100159600D01*
X159766000Y-100482700D02*
X160089200Y-100482700D01*
X159766000Y-101158000D02*
X159766000Y-100482700D01*
X157607000Y-101158000D02*
X156631700Y-101158000D01*
X154178000Y-101209000D02*
X155153300Y-101209000D01*
X156443100Y-101318400D02*
X156443100Y-101412700D01*
X156471300Y-101318400D02*
X156443100Y-101318400D01*
X156631700Y-101158000D02*
X156471300Y-101318400D01*
X155262700Y-101318400D02*
X155153300Y-101209000D01*
X156443100Y-101318400D02*
X155262700Y-101318400D01*
X152311700Y-95140600D02*
X152392100Y-95060200D01*
X152311700Y-95834200D02*
X152311700Y-95140600D01*
X153362000Y-95834200D02*
X152311700Y-95834200D01*
X151425200Y-95060200D02*
X150817100Y-95060200D01*
X152074400Y-94411000D02*
X151425200Y-95060200D01*
X153719600Y-94411000D02*
X152074400Y-94411000D01*
X155625700Y-96317100D02*
X153719600Y-94411000D01*
X155764100Y-96317100D02*
X155625700Y-96317100D01*
X158311700Y-98864700D02*
X155764100Y-96317100D01*
X158311700Y-99644200D02*
X158311700Y-98864700D01*
X159362000Y-99644200D02*
X158311700Y-99644200D01*
X149730500Y-94410900D02*
X149274800Y-94866600D01*
X151354900Y-94410900D02*
X149730500Y-94410900D01*
X151805200Y-93960600D02*
X151354900Y-94410900D01*
X155374100Y-93960600D02*
X151805200Y-93960600D01*
X157247700Y-95834200D02*
X155374100Y-93960600D01*
X159362000Y-95834200D02*
X157247700Y-95834200D01*
X160004000Y-104902000D02*
X160829300Y-104902000D01*
X164338000Y-104902000D02*
X160829300Y-104902000D01*
X164338000Y-93345000D02*
X164338000Y-104902000D01*
X164338000Y-104902000D02*
X164338000Y-105029000D01*
X148133100Y-93268800D02*
X148234700Y-93370400D01*
X148910000Y-93370400D02*
X148234700Y-93370400D01*
X146799500Y-93268800D02*
X148133100Y-93268800D01*
X147792440Y-96332000D02*
X147792440Y-95265240D01*
X145974000Y-94666000D02*
X145974000Y-93268800D01*
X145999200Y-94691200D02*
X145974000Y-94666000D01*
X147218400Y-94691200D02*
X145999200Y-94691200D01*
X147792440Y-95265240D02*
X147218400Y-94691200D01*
X147792440Y-96332000D02*
X150098800Y-96332000D01*
X151866600Y-97104200D02*
X153362000Y-97104200D01*
X151130000Y-96367600D02*
X151866600Y-97104200D01*
X150134400Y-96367600D02*
X151130000Y-96367600D01*
X150098800Y-96332000D02*
X150134400Y-96367600D01*
X142748000Y-96520000D02*
X147604440Y-96520000D01*
X147604440Y-96520000D02*
X147792440Y-96332000D01*
X149034500Y-101845800D02*
X148874300Y-102006000D01*
X149034500Y-99974400D02*
X149034500Y-101845800D01*
X148199000Y-102006000D02*
X148874300Y-102006000D01*
X148209000Y-99974400D02*
X148209000Y-98648560D01*
X148209000Y-98648560D02*
X147792440Y-98232000D01*
X147792440Y-98232000D02*
X149387600Y-98232000D01*
X149529800Y-98374200D02*
X153362000Y-98374200D01*
X149387600Y-98232000D02*
X149529800Y-98374200D01*
X142748000Y-101520000D02*
X143285200Y-101520000D01*
X143285200Y-101520000D02*
X146573200Y-98232000D01*
X146573200Y-98232000D02*
X147792440Y-98232000D01*
X142748000Y-101520000D02*
X144555200Y-101520000D01*
D25*
G36*
X153543000Y-105029000D02*
X153563000Y-105029000D01*
X153563000Y-105283000D01*
X153543000Y-105283000D01*
X153543000Y-105303000D01*
X153289000Y-105303000D01*
X153289000Y-105283000D01*
X153269000Y-105283000D01*
X153269000Y-105029000D01*
X153289000Y-105029000D01*
X153289000Y-105009000D01*
X153543000Y-105009000D01*
X153543000Y-105029000D01*
X153543000Y-105029000D01*
G37*
X153543000Y-105029000D02*
X153563000Y-105029000D01*
X153563000Y-105283000D01*
X153543000Y-105283000D01*
X153543000Y-105303000D01*
X153289000Y-105303000D01*
X153289000Y-105283000D01*
X153269000Y-105283000D01*
X153269000Y-105029000D01*
X153289000Y-105029000D01*
X153289000Y-105009000D01*
X153543000Y-105009000D01*
X153543000Y-105029000D01*
G36*
X158131000Y-104775000D02*
X158151000Y-104775000D01*
X158151000Y-105029000D01*
X158131000Y-105029000D01*
X158131000Y-105049000D01*
X157877000Y-105049000D01*
X157877000Y-105029000D01*
X157857000Y-105029000D01*
X157857000Y-104775000D01*
X157877000Y-104775000D01*
X157877000Y-104755000D01*
X158131000Y-104755000D01*
X158131000Y-104775000D01*
X158131000Y-104775000D01*
G37*
X158131000Y-104775000D02*
X158151000Y-104775000D01*
X158151000Y-105029000D01*
X158131000Y-105029000D01*
X158131000Y-105049000D01*
X157877000Y-105049000D01*
X157877000Y-105029000D01*
X157857000Y-105029000D01*
X157857000Y-104775000D01*
X157877000Y-104775000D01*
X157877000Y-104755000D01*
X158131000Y-104755000D01*
X158131000Y-104775000D01*
G36*
X161854957Y-92834118D02*
X161753336Y-93345000D01*
X161854957Y-93855882D01*
X162112500Y-94241323D01*
X161704342Y-94262055D01*
X161325615Y-94418929D01*
X161257555Y-94659930D01*
X162049880Y-95452255D01*
X162064023Y-95438113D01*
X162243628Y-95617718D01*
X162229485Y-95631860D01*
X163021810Y-96424185D01*
X163262811Y-96356125D01*
X163447647Y-95836826D01*
X163419685Y-95286322D01*
X163262811Y-94907595D01*
X163021812Y-94839536D01*
X163136865Y-94724483D01*
X163092382Y-94680000D01*
X163578000Y-94680000D01*
X163578000Y-103694000D01*
X163088336Y-103694000D01*
X163052055Y-103701217D01*
X163223824Y-103529747D01*
X163435209Y-103020676D01*
X163435690Y-102469462D01*
X163225194Y-101960023D01*
X162835767Y-101569916D01*
X162604499Y-101473885D01*
X162833717Y-101379174D01*
X163223824Y-100989747D01*
X163435209Y-100480676D01*
X163435690Y-99929462D01*
X163225194Y-99420023D01*
X162993373Y-99187797D01*
X163223824Y-98957747D01*
X163435209Y-98448676D01*
X163435690Y-97897462D01*
X163225194Y-97388023D01*
X162835767Y-96997916D01*
X162620384Y-96908481D01*
X162774145Y-96844791D01*
X162842205Y-96603790D01*
X162049880Y-95811465D01*
X161257555Y-96603790D01*
X161325615Y-96844791D01*
X161490920Y-96903629D01*
X161266043Y-96996546D01*
X160875936Y-97385973D01*
X160745416Y-97700300D01*
X160703139Y-97672052D01*
X160666398Y-97664744D01*
X160722000Y-97530510D01*
X160722000Y-97389950D01*
X160563250Y-97231200D01*
X159489000Y-97231200D01*
X159489000Y-97251200D01*
X159235000Y-97251200D01*
X159235000Y-97231200D01*
X159215000Y-97231200D01*
X159215000Y-96977200D01*
X159235000Y-96977200D01*
X159235000Y-96957200D01*
X159489000Y-96957200D01*
X159489000Y-96977200D01*
X160563250Y-96977200D01*
X160722000Y-96818450D01*
X160722000Y-96677890D01*
X160632194Y-96461078D01*
X160683431Y-96386090D01*
X160734440Y-96134200D01*
X160734440Y-96108647D01*
X160836949Y-96356125D01*
X161077950Y-96424185D01*
X161870275Y-95631860D01*
X161077950Y-94839535D01*
X160836949Y-94907595D01*
X160692761Y-95312694D01*
X160690162Y-95298883D01*
X160551090Y-95082759D01*
X160338890Y-94937769D01*
X160087000Y-94886760D01*
X158637000Y-94886760D01*
X158401683Y-94931038D01*
X158255490Y-95025110D01*
X158255662Y-94828133D01*
X158113617Y-94484357D01*
X157940600Y-94311038D01*
X157984431Y-94246890D01*
X157991191Y-94213510D01*
X158049673Y-94354699D01*
X158228302Y-94533327D01*
X158461691Y-94630000D01*
X158652250Y-94630000D01*
X158811000Y-94471250D01*
X158811000Y-93472000D01*
X159065000Y-93472000D01*
X159065000Y-94471250D01*
X159223750Y-94630000D01*
X159414309Y-94630000D01*
X159647698Y-94533327D01*
X159826327Y-94354699D01*
X159923000Y-94121310D01*
X159923000Y-93630750D01*
X159764250Y-93472000D01*
X159065000Y-93472000D01*
X158811000Y-93472000D01*
X158791000Y-93472000D01*
X158791000Y-93218000D01*
X158811000Y-93218000D01*
X158811000Y-93198000D01*
X159065000Y-93198000D01*
X159065000Y-93218000D01*
X159764250Y-93218000D01*
X159923000Y-93059250D01*
X159923000Y-92785000D01*
X161887776Y-92785000D01*
X161854957Y-92834118D01*
X161854957Y-92834118D01*
G37*
X161854957Y-92834118D02*
X161753336Y-93345000D01*
X161854957Y-93855882D01*
X162112500Y-94241323D01*
X161704342Y-94262055D01*
X161325615Y-94418929D01*
X161257555Y-94659930D01*
X162049880Y-95452255D01*
X162064023Y-95438113D01*
X162243628Y-95617718D01*
X162229485Y-95631860D01*
X163021810Y-96424185D01*
X163262811Y-96356125D01*
X163447647Y-95836826D01*
X163419685Y-95286322D01*
X163262811Y-94907595D01*
X163021812Y-94839536D01*
X163136865Y-94724483D01*
X163092382Y-94680000D01*
X163578000Y-94680000D01*
X163578000Y-103694000D01*
X163088336Y-103694000D01*
X163052055Y-103701217D01*
X163223824Y-103529747D01*
X163435209Y-103020676D01*
X163435690Y-102469462D01*
X163225194Y-101960023D01*
X162835767Y-101569916D01*
X162604499Y-101473885D01*
X162833717Y-101379174D01*
X163223824Y-100989747D01*
X163435209Y-100480676D01*
X163435690Y-99929462D01*
X163225194Y-99420023D01*
X162993373Y-99187797D01*
X163223824Y-98957747D01*
X163435209Y-98448676D01*
X163435690Y-97897462D01*
X163225194Y-97388023D01*
X162835767Y-96997916D01*
X162620384Y-96908481D01*
X162774145Y-96844791D01*
X162842205Y-96603790D01*
X162049880Y-95811465D01*
X161257555Y-96603790D01*
X161325615Y-96844791D01*
X161490920Y-96903629D01*
X161266043Y-96996546D01*
X160875936Y-97385973D01*
X160745416Y-97700300D01*
X160703139Y-97672052D01*
X160666398Y-97664744D01*
X160722000Y-97530510D01*
X160722000Y-97389950D01*
X160563250Y-97231200D01*
X159489000Y-97231200D01*
X159489000Y-97251200D01*
X159235000Y-97251200D01*
X159235000Y-97231200D01*
X159215000Y-97231200D01*
X159215000Y-96977200D01*
X159235000Y-96977200D01*
X159235000Y-96957200D01*
X159489000Y-96957200D01*
X159489000Y-96977200D01*
X160563250Y-96977200D01*
X160722000Y-96818450D01*
X160722000Y-96677890D01*
X160632194Y-96461078D01*
X160683431Y-96386090D01*
X160734440Y-96134200D01*
X160734440Y-96108647D01*
X160836949Y-96356125D01*
X161077950Y-96424185D01*
X161870275Y-95631860D01*
X161077950Y-94839535D01*
X160836949Y-94907595D01*
X160692761Y-95312694D01*
X160690162Y-95298883D01*
X160551090Y-95082759D01*
X160338890Y-94937769D01*
X160087000Y-94886760D01*
X158637000Y-94886760D01*
X158401683Y-94931038D01*
X158255490Y-95025110D01*
X158255662Y-94828133D01*
X158113617Y-94484357D01*
X157940600Y-94311038D01*
X157984431Y-94246890D01*
X157991191Y-94213510D01*
X158049673Y-94354699D01*
X158228302Y-94533327D01*
X158461691Y-94630000D01*
X158652250Y-94630000D01*
X158811000Y-94471250D01*
X158811000Y-93472000D01*
X159065000Y-93472000D01*
X159065000Y-94471250D01*
X159223750Y-94630000D01*
X159414309Y-94630000D01*
X159647698Y-94533327D01*
X159826327Y-94354699D01*
X159923000Y-94121310D01*
X159923000Y-93630750D01*
X159764250Y-93472000D01*
X159065000Y-93472000D01*
X158811000Y-93472000D01*
X158791000Y-93472000D01*
X158791000Y-93218000D01*
X158811000Y-93218000D01*
X158811000Y-93198000D01*
X159065000Y-93198000D01*
X159065000Y-93218000D01*
X159764250Y-93218000D01*
X159923000Y-93059250D01*
X159923000Y-92785000D01*
X161887776Y-92785000D01*
X161854957Y-92834118D01*
G36*
X155262700Y-102078400D02*
X155786502Y-102078400D01*
X155912773Y-102204892D01*
X156256301Y-102347538D01*
X156419295Y-102347680D01*
X156418673Y-102348302D01*
X156322000Y-102581691D01*
X156322000Y-102772250D01*
X156480750Y-102931000D01*
X157480000Y-102931000D01*
X157480000Y-102911000D01*
X157734000Y-102911000D01*
X157734000Y-102931000D01*
X159639000Y-102931000D01*
X159639000Y-102911000D01*
X159893000Y-102911000D01*
X159893000Y-102931000D01*
X159913000Y-102931000D01*
X159913000Y-103185000D01*
X159893000Y-103185000D01*
X159893000Y-103205000D01*
X159639000Y-103205000D01*
X159639000Y-103185000D01*
X157734000Y-103185000D01*
X157734000Y-103205000D01*
X157480000Y-103205000D01*
X157480000Y-103185000D01*
X156480750Y-103185000D01*
X156322000Y-103343750D01*
X156322000Y-103534309D01*
X156373467Y-103658560D01*
X155432658Y-103658560D01*
X155463000Y-103585309D01*
X155463000Y-103394750D01*
X155304250Y-103236000D01*
X154305000Y-103236000D01*
X154305000Y-103256000D01*
X154051000Y-103256000D01*
X154051000Y-103236000D01*
X152070000Y-103236000D01*
X152070000Y-103256000D01*
X151816000Y-103256000D01*
X151816000Y-103236000D01*
X151796000Y-103236000D01*
X151796000Y-102982000D01*
X151816000Y-102982000D01*
X151816000Y-102962000D01*
X152070000Y-102962000D01*
X152070000Y-102982000D01*
X154051000Y-102982000D01*
X154051000Y-102962000D01*
X154305000Y-102962000D01*
X154305000Y-102982000D01*
X155304250Y-102982000D01*
X155463000Y-102823250D01*
X155463000Y-102632691D01*
X155366327Y-102399302D01*
X155187699Y-102220673D01*
X155051713Y-102164346D01*
X155063317Y-102162162D01*
X155209830Y-102067883D01*
X155262700Y-102078400D01*
X155262700Y-102078400D01*
G37*
X155262700Y-102078400D02*
X155786502Y-102078400D01*
X155912773Y-102204892D01*
X156256301Y-102347538D01*
X156419295Y-102347680D01*
X156418673Y-102348302D01*
X156322000Y-102581691D01*
X156322000Y-102772250D01*
X156480750Y-102931000D01*
X157480000Y-102931000D01*
X157480000Y-102911000D01*
X157734000Y-102911000D01*
X157734000Y-102931000D01*
X159639000Y-102931000D01*
X159639000Y-102911000D01*
X159893000Y-102911000D01*
X159893000Y-102931000D01*
X159913000Y-102931000D01*
X159913000Y-103185000D01*
X159893000Y-103185000D01*
X159893000Y-103205000D01*
X159639000Y-103205000D01*
X159639000Y-103185000D01*
X157734000Y-103185000D01*
X157734000Y-103205000D01*
X157480000Y-103205000D01*
X157480000Y-103185000D01*
X156480750Y-103185000D01*
X156322000Y-103343750D01*
X156322000Y-103534309D01*
X156373467Y-103658560D01*
X155432658Y-103658560D01*
X155463000Y-103585309D01*
X155463000Y-103394750D01*
X155304250Y-103236000D01*
X154305000Y-103236000D01*
X154305000Y-103256000D01*
X154051000Y-103256000D01*
X154051000Y-103236000D01*
X152070000Y-103236000D01*
X152070000Y-103256000D01*
X151816000Y-103256000D01*
X151816000Y-103236000D01*
X151796000Y-103236000D01*
X151796000Y-102982000D01*
X151816000Y-102982000D01*
X151816000Y-102962000D01*
X152070000Y-102962000D01*
X152070000Y-102982000D01*
X154051000Y-102982000D01*
X154051000Y-102962000D01*
X154305000Y-102962000D01*
X154305000Y-102982000D01*
X155304250Y-102982000D01*
X155463000Y-102823250D01*
X155463000Y-102632691D01*
X155366327Y-102399302D01*
X155187699Y-102220673D01*
X155051713Y-102164346D01*
X155063317Y-102162162D01*
X155209830Y-102067883D01*
X155262700Y-102078400D01*
G36*
X147073397Y-97282632D02*
X146940949Y-97367860D01*
X146869793Y-97472000D01*
X146573200Y-97472000D01*
X146282360Y-97529852D01*
X146035799Y-97694599D01*
X143828342Y-99902056D01*
X143789854Y-99894400D01*
X141706146Y-99894400D01*
X141102000Y-100014572D01*
X141102000Y-98025428D01*
X141706146Y-98145600D01*
X143789854Y-98145600D01*
X144411944Y-98021859D01*
X144939327Y-97669473D01*
X145199564Y-97280000D01*
X147069546Y-97280000D01*
X147073397Y-97282632D01*
X147073397Y-97282632D01*
G37*
X147073397Y-97282632D02*
X146940949Y-97367860D01*
X146869793Y-97472000D01*
X146573200Y-97472000D01*
X146282360Y-97529852D01*
X146035799Y-97694599D01*
X143828342Y-99902056D01*
X143789854Y-99894400D01*
X141706146Y-99894400D01*
X141102000Y-100014572D01*
X141102000Y-98025428D01*
X141706146Y-98145600D01*
X143789854Y-98145600D01*
X144411944Y-98021859D01*
X144939327Y-97669473D01*
X145199564Y-97280000D01*
X147069546Y-97280000D01*
X147073397Y-97282632D01*
G36*
X148915120Y-97155000D02*
X149664420Y-97155000D01*
X149664420Y-97135000D01*
X149918420Y-97135000D01*
X149918420Y-97155000D01*
X150667720Y-97155000D01*
X150695120Y-97127600D01*
X150815198Y-97127600D01*
X151301798Y-97614200D01*
X150826470Y-97614200D01*
X150826470Y-97567750D01*
X150667720Y-97409000D01*
X149918420Y-97409000D01*
X149918420Y-97429000D01*
X149664420Y-97429000D01*
X149664420Y-97409000D01*
X148915120Y-97409000D01*
X148852120Y-97472000D01*
X148715453Y-97472000D01*
X148656580Y-97380509D01*
X148511483Y-97281368D01*
X148643931Y-97196140D01*
X148715087Y-97092000D01*
X148852120Y-97092000D01*
X148915120Y-97155000D01*
X148915120Y-97155000D01*
G37*
X148915120Y-97155000D02*
X149664420Y-97155000D01*
X149664420Y-97135000D01*
X149918420Y-97135000D01*
X149918420Y-97155000D01*
X150667720Y-97155000D01*
X150695120Y-97127600D01*
X150815198Y-97127600D01*
X151301798Y-97614200D01*
X150826470Y-97614200D01*
X150826470Y-97567750D01*
X150667720Y-97409000D01*
X149918420Y-97409000D01*
X149918420Y-97429000D01*
X149664420Y-97429000D01*
X149664420Y-97409000D01*
X148915120Y-97409000D01*
X148852120Y-97472000D01*
X148715453Y-97472000D01*
X148656580Y-97380509D01*
X148511483Y-97281368D01*
X148643931Y-97196140D01*
X148715087Y-97092000D01*
X148852120Y-97092000D01*
X148915120Y-97155000D01*
G36*
X141229092Y-92953461D02*
X141253144Y-93603460D01*
X141455613Y-94092264D01*
X141722468Y-94190927D01*
X142695395Y-93218000D01*
X142681253Y-93203858D01*
X142860858Y-93024253D01*
X142875000Y-93038395D01*
X142889143Y-93024253D01*
X143068748Y-93203858D01*
X143054605Y-93218000D01*
X144027532Y-94190927D01*
X144294387Y-94092264D01*
X144520908Y-93482539D01*
X144496856Y-92832540D01*
X144477164Y-92785000D01*
X145026560Y-92785000D01*
X145026560Y-93768800D01*
X145070838Y-94004117D01*
X145209910Y-94220241D01*
X145214000Y-94223036D01*
X145214000Y-94666000D01*
X145271852Y-94956839D01*
X145436599Y-95203401D01*
X145461799Y-95228601D01*
X145708360Y-95393348D01*
X145999200Y-95451200D01*
X146903598Y-95451200D01*
X146932550Y-95480152D01*
X146795959Y-95680060D01*
X146779771Y-95760000D01*
X145199564Y-95760000D01*
X144939327Y-95370527D01*
X144411944Y-95018141D01*
X143789854Y-94894400D01*
X141706146Y-94894400D01*
X141102000Y-95014572D01*
X141102000Y-94370532D01*
X141902073Y-94370532D01*
X142000736Y-94637387D01*
X142610461Y-94863908D01*
X143260460Y-94839856D01*
X143749264Y-94637387D01*
X143847927Y-94370532D01*
X142875000Y-93397605D01*
X141902073Y-94370532D01*
X141102000Y-94370532D01*
X141102000Y-92785000D01*
X141291678Y-92785000D01*
X141229092Y-92953461D01*
X141229092Y-92953461D01*
G37*
X141229092Y-92953461D02*
X141253144Y-93603460D01*
X141455613Y-94092264D01*
X141722468Y-94190927D01*
X142695395Y-93218000D01*
X142681253Y-93203858D01*
X142860858Y-93024253D01*
X142875000Y-93038395D01*
X142889143Y-93024253D01*
X143068748Y-93203858D01*
X143054605Y-93218000D01*
X144027532Y-94190927D01*
X144294387Y-94092264D01*
X144520908Y-93482539D01*
X144496856Y-92832540D01*
X144477164Y-92785000D01*
X145026560Y-92785000D01*
X145026560Y-93768800D01*
X145070838Y-94004117D01*
X145209910Y-94220241D01*
X145214000Y-94223036D01*
X145214000Y-94666000D01*
X145271852Y-94956839D01*
X145436599Y-95203401D01*
X145461799Y-95228601D01*
X145708360Y-95393348D01*
X145999200Y-95451200D01*
X146903598Y-95451200D01*
X146932550Y-95480152D01*
X146795959Y-95680060D01*
X146779771Y-95760000D01*
X145199564Y-95760000D01*
X144939327Y-95370527D01*
X144411944Y-95018141D01*
X143789854Y-94894400D01*
X141706146Y-94894400D01*
X141102000Y-95014572D01*
X141102000Y-94370532D01*
X141902073Y-94370532D01*
X142000736Y-94637387D01*
X142610461Y-94863908D01*
X143260460Y-94839856D01*
X143749264Y-94637387D01*
X143847927Y-94370532D01*
X142875000Y-93397605D01*
X141902073Y-94370532D01*
X141102000Y-94370532D01*
X141102000Y-92785000D01*
X141291678Y-92785000D01*
X141229092Y-92953461D01*
M02*
