G04 #@! TF.FileFunction,Copper,L1,Top,Signal*
%FSLAX46Y46*%
G04 Gerber Fmt 4.6, Leading zero omitted, Abs format (unit mm)*
G04 Created by KiCad (PCBNEW 4.0.4-stable) date 12/09/16 08:24:26*
%MOMM*%
%LPD*%
G01*
G04 APERTURE LIST*
%ADD10C,0.100000*%
%ADD11R,1.300000X0.700000*%
%ADD12O,3.962400X1.981200*%
%ADD13R,0.700000X1.300000*%
%ADD14R,0.800100X0.800100*%
%ADD15R,1.060000X0.650000*%
%ADD16C,1.501140*%
%ADD17O,3.800000X1.400000*%
%ADD18R,1.727200X1.700000*%
%ADD19O,1.727200X1.700000*%
%ADD20C,2.000000*%
%ADD21C,1.000000*%
%ADD22R,0.700000X0.250000*%
%ADD23R,0.250000X0.700000*%
%ADD24R,1.287500X1.287500*%
%ADD25O,1.000000X1.000000*%
%ADD26R,0.600000X1.000000*%
%ADD27C,0.600000*%
%ADD28C,0.250000*%
%ADD29C,0.254000*%
G04 APERTURE END LIST*
D10*
D11*
X145999000Y-95285600D03*
X145999000Y-93385600D03*
D12*
X142748000Y-96520000D03*
X142748000Y-101520000D03*
D13*
X157927000Y-101854000D03*
X159827000Y-101854000D03*
D11*
X145948000Y-101686000D03*
X145948000Y-99786000D03*
D14*
X159827000Y-103520240D03*
X157927000Y-103520240D03*
X158877000Y-105519220D03*
D15*
X159799000Y-98892400D03*
X159799000Y-97942400D03*
X159799000Y-96992400D03*
X157599000Y-96992400D03*
X157599000Y-98892400D03*
X157599000Y-97942400D03*
D16*
X162049880Y-102743860D03*
X162049880Y-100203860D03*
X162049880Y-98171860D03*
X162049880Y-95631860D03*
D17*
X164338000Y-105029000D03*
X164338000Y-93345000D03*
D18*
X155956000Y-105156000D03*
D19*
X153416000Y-105156000D03*
X150876000Y-105156000D03*
X148336000Y-105156000D03*
D20*
X142875000Y-93218000D03*
D21*
X165000000Y-99250000D03*
D22*
X147730000Y-96564000D03*
X147730000Y-97064000D03*
X147730000Y-97564000D03*
X147730000Y-98064000D03*
X147730000Y-98564000D03*
X147730000Y-99064000D03*
X147730000Y-99564000D03*
X147730000Y-100064000D03*
X147730000Y-100564000D03*
X147730000Y-101064000D03*
X147730000Y-101564000D03*
X147730000Y-102064000D03*
D23*
X148380000Y-102714000D03*
X148880000Y-102714000D03*
X149380000Y-102714000D03*
X149880000Y-102714000D03*
X150380000Y-102714000D03*
X150880000Y-102714000D03*
X151380000Y-102714000D03*
X151880000Y-102714000D03*
X152380000Y-102714000D03*
X152880000Y-102714000D03*
X153380000Y-102714000D03*
X153880000Y-102714000D03*
D22*
X154530000Y-102064000D03*
X154530000Y-101564000D03*
X154530000Y-101064000D03*
X154530000Y-100564000D03*
X154530000Y-100064000D03*
X154530000Y-99564000D03*
X154530000Y-99064000D03*
X154530000Y-98564000D03*
X154530000Y-98064000D03*
X154530000Y-97564000D03*
X154530000Y-97064000D03*
X154530000Y-96564000D03*
D23*
X153880000Y-95914000D03*
X153380000Y-95914000D03*
X152880000Y-95914000D03*
X152380000Y-95914000D03*
X151880000Y-95914000D03*
X151380000Y-95914000D03*
X150880000Y-95914000D03*
X150380000Y-95914000D03*
X149880000Y-95914000D03*
X149380000Y-95914000D03*
X148880000Y-95914000D03*
X148380000Y-95914000D03*
D24*
X153061250Y-101245250D03*
X153061250Y-99957750D03*
X153061250Y-98670250D03*
X153061250Y-97382750D03*
X151773750Y-101245250D03*
X151773750Y-99957750D03*
X151773750Y-98670250D03*
X151773750Y-97382750D03*
X150486250Y-101245250D03*
X150486250Y-99957750D03*
X150486250Y-98670250D03*
X150486250Y-97382750D03*
X149198750Y-101245250D03*
X149198750Y-99957750D03*
X149198750Y-98670250D03*
X149198750Y-97382750D03*
D25*
X158750000Y-93370400D03*
X151130000Y-93370400D03*
X153670000Y-93370400D03*
X148590000Y-93370400D03*
X156210000Y-93370400D03*
D26*
X157721500Y-100330000D03*
X156896000Y-100330000D03*
D27*
X149198750Y-97700052D03*
X146200900Y-102538200D03*
X155835500Y-95563600D03*
X156443100Y-101412700D03*
X152392100Y-95060200D03*
X150817100Y-95060200D03*
X149274800Y-94866600D03*
X147000000Y-103750000D03*
X155750000Y-99350000D03*
D28*
X147249600Y-99564000D02*
X147730000Y-99564000D01*
X146674300Y-98988700D02*
X147249600Y-99564000D01*
X146674300Y-96636200D02*
X146674300Y-98988700D01*
X145999000Y-95960900D02*
X146674300Y-96636200D01*
X145999000Y-95285600D02*
X145999000Y-95960900D01*
X145000700Y-93865200D02*
X145745800Y-94610300D01*
X145000700Y-92874400D02*
X145000700Y-93865200D01*
X145378000Y-92497100D02*
X145000700Y-92874400D01*
X149431400Y-92497100D02*
X145378000Y-92497100D01*
X150304700Y-93370400D02*
X149431400Y-92497100D01*
X151130000Y-93370400D02*
X150304700Y-93370400D01*
X145999000Y-95285600D02*
X145999000Y-94610300D01*
X146952000Y-100064000D02*
X147730000Y-100064000D01*
X146675000Y-99786400D02*
X146952000Y-100064000D01*
X145948000Y-99786400D02*
X146675000Y-99786400D01*
X149092000Y-100064000D02*
X149199000Y-99957800D01*
X147730000Y-100064000D02*
X149092000Y-100064000D01*
X149199000Y-98670200D02*
X149199000Y-97382800D01*
X153061000Y-98670200D02*
X151773800Y-98670200D01*
X151773800Y-98670200D02*
X150486300Y-98670200D01*
X159799000Y-97942400D02*
X158943700Y-97942400D01*
X159827000Y-103520200D02*
X159827000Y-101854000D01*
X150486300Y-98670200D02*
X149199000Y-98670200D01*
X149199000Y-98670200D02*
X149198800Y-98670200D01*
X149199000Y-99957800D02*
X149199000Y-99314000D01*
X149199000Y-99314000D02*
X149199000Y-98670200D01*
X149198800Y-99314200D02*
X149198800Y-99957700D01*
X149199000Y-99314000D02*
X149198800Y-99314200D01*
X150486400Y-97382800D02*
X149199000Y-97382800D01*
X149199000Y-99957800D02*
X150486400Y-99957800D01*
X150486400Y-99957800D02*
X150486300Y-99957700D01*
X151773700Y-97382800D02*
X151773800Y-97382700D01*
X151773700Y-97382800D02*
X150486400Y-97382800D01*
X151773700Y-99957800D02*
X151773800Y-99957700D01*
X150486400Y-99957800D02*
X151773700Y-99957800D01*
X151773700Y-99957800D02*
X153061000Y-99957800D01*
X151773800Y-101245200D02*
X151773800Y-101245000D01*
X153061000Y-101245000D02*
X151773800Y-101245000D01*
X153061300Y-97382700D02*
X153061200Y-97382600D01*
X153380000Y-97064000D02*
X153061200Y-97382600D01*
X154530000Y-97064000D02*
X153380000Y-97064000D01*
X153061000Y-97382800D02*
X151773700Y-97382800D01*
X153061200Y-97382600D02*
X153061000Y-97382800D01*
X153061300Y-98670200D02*
X153061000Y-98670200D01*
X153061100Y-99957700D02*
X153061000Y-99957800D01*
X153061300Y-99957700D02*
X153061100Y-99957700D01*
X153061200Y-101245200D02*
X153061000Y-101245000D01*
X153061300Y-101245200D02*
X153061200Y-101245200D01*
X156210000Y-93370400D02*
X157035300Y-93370400D01*
X157860600Y-92545100D02*
X157035300Y-93370400D01*
X159141100Y-92545100D02*
X157860600Y-92545100D01*
X159821400Y-93225400D02*
X159141100Y-92545100D01*
X159821400Y-95631900D02*
X159821400Y-93225400D01*
X158943700Y-96509600D02*
X159821400Y-95631900D01*
X158943700Y-97942400D02*
X158943700Y-96509600D01*
X159821400Y-95631900D02*
X162049900Y-95631900D01*
X151773800Y-101245000D02*
X150486400Y-101245000D01*
X150486300Y-101245100D02*
X150486300Y-101245200D01*
X150486400Y-101245000D02*
X150486300Y-101245100D01*
X149198800Y-101245200D02*
X149199000Y-101245000D01*
X150486400Y-101245000D02*
X149199000Y-101245000D01*
X149199000Y-101245000D02*
X149199000Y-99957800D01*
X153380000Y-101563900D02*
X153380000Y-102714000D01*
X153061300Y-101245200D02*
X153380000Y-101563900D01*
X153380000Y-103944700D02*
X153416000Y-103980700D01*
X153380000Y-102714000D02*
X153380000Y-103944700D01*
X153416000Y-105156000D02*
X153416000Y-104000500D01*
X153416000Y-104000500D02*
X153416000Y-103980700D01*
X159101600Y-103611000D02*
X159101600Y-103520200D01*
X158467000Y-104245600D02*
X159101600Y-103611000D01*
X157310300Y-104245600D02*
X158467000Y-104245600D01*
X157045400Y-103980700D02*
X157310300Y-104245600D01*
X153416000Y-103980700D02*
X157045400Y-103980700D01*
X159827000Y-103520200D02*
X159101600Y-103520200D01*
X145948000Y-99786400D02*
X145948000Y-99786000D01*
X145948000Y-99786000D02*
X145948000Y-98806000D01*
X145948000Y-98806000D02*
X145948000Y-98666500D01*
X142875000Y-93795300D02*
X142875000Y-93218000D01*
X145948000Y-96868300D02*
X142875000Y-93795300D01*
X145948000Y-98666500D02*
X145948000Y-96868300D01*
X149039500Y-97223400D02*
X149198800Y-97382700D01*
X148880000Y-97064000D02*
X149039500Y-97223400D01*
X148880000Y-95914000D02*
X148880000Y-97064000D01*
X149039500Y-97223400D02*
X149199000Y-97382800D01*
X156896000Y-100330000D02*
X156896000Y-101155300D01*
X145948000Y-101686000D02*
X145948000Y-101010700D01*
X146394700Y-100564000D02*
X145948000Y-101010700D01*
X147730000Y-100564000D02*
X146394700Y-100564000D01*
X145948000Y-101686000D02*
X145948000Y-102361300D01*
X146024000Y-102361300D02*
X145948000Y-102361300D01*
X146200900Y-102538200D02*
X146024000Y-102361300D01*
X148380000Y-95914000D02*
X148380000Y-95552200D01*
X145999000Y-93385600D02*
X146974300Y-93385600D01*
X157927000Y-103520200D02*
X157201600Y-103520200D01*
X157201600Y-103520200D02*
X156248500Y-102567000D01*
X156101500Y-102714000D02*
X153880000Y-102714000D01*
X156248500Y-102567000D02*
X156101500Y-102714000D01*
X148380000Y-94405700D02*
X148590000Y-94195700D01*
X148380000Y-95552200D02*
X148380000Y-94405700D01*
X156638600Y-101412700D02*
X156443100Y-101412700D01*
X156896000Y-101155300D02*
X156638600Y-101412700D01*
X156435800Y-102379700D02*
X156248500Y-102567000D01*
X156435800Y-101615500D02*
X156435800Y-102379700D01*
X156443100Y-101608200D02*
X156435800Y-101615500D01*
X156443100Y-101412700D02*
X156443100Y-101608200D01*
X148590000Y-93370400D02*
X148590000Y-93890800D01*
X148590000Y-93890800D02*
X148590000Y-94195700D01*
X147479500Y-93890800D02*
X146974300Y-93385600D01*
X148590000Y-93890800D02*
X147479500Y-93890800D01*
X155835500Y-95563600D02*
X155530400Y-95563600D01*
X155530400Y-95563600D02*
X154530000Y-96564000D01*
X148908500Y-94209300D02*
X148590000Y-93890800D01*
X151634200Y-94209300D02*
X148908500Y-94209300D01*
X153322000Y-92521500D02*
X151634200Y-94209300D01*
X154055500Y-92521500D02*
X153322000Y-92521500D01*
X155530400Y-93996400D02*
X154055500Y-92521500D01*
X155530400Y-95563600D02*
X155530400Y-93996400D01*
X157599000Y-97942400D02*
X158454300Y-97942400D01*
X158454300Y-97942400D02*
X158454300Y-100222500D01*
X158454300Y-100222500D02*
X158346800Y-100330000D01*
X157721500Y-100330000D02*
X158034200Y-100330000D01*
X158034200Y-100330000D02*
X158346800Y-100330000D01*
X158034200Y-100771500D02*
X157927000Y-100878700D01*
X158034200Y-100330000D02*
X158034200Y-100771500D01*
X157927000Y-101854000D02*
X157927000Y-100878700D01*
X157508100Y-105519200D02*
X157144900Y-105156000D01*
X158877000Y-105519200D02*
X157508100Y-105519200D01*
X155956000Y-105156000D02*
X157144900Y-105156000D01*
X162049900Y-102743900D02*
X161980900Y-102743900D01*
X159686300Y-100222500D02*
X158454300Y-100222500D01*
X161980900Y-102517100D02*
X159686300Y-100222500D01*
X161980900Y-102743900D02*
X161980900Y-102517100D01*
X159602300Y-105122500D02*
X159602300Y-105519200D01*
X161980900Y-102743900D02*
X159602300Y-105122500D01*
X158877000Y-105519200D02*
X159602300Y-105519200D01*
X153880000Y-95914000D02*
X153880000Y-95238700D01*
X153880000Y-94405700D02*
X153880000Y-95238700D01*
X153670000Y-94195700D02*
X153880000Y-94405700D01*
X153670000Y-93370400D02*
X153670000Y-94195700D01*
X158750000Y-93370400D02*
X158750000Y-94195700D01*
X158750000Y-94510900D02*
X158750000Y-94195700D01*
X157409600Y-95851300D02*
X158750000Y-94510900D01*
X157247400Y-95851300D02*
X157409600Y-95851300D01*
X156130300Y-96968400D02*
X157247400Y-95851300D01*
X156130300Y-97239500D02*
X156130300Y-96968400D01*
X155764100Y-97605700D02*
X156130300Y-97239500D01*
X155247000Y-97605700D02*
X155764100Y-97605700D01*
X155205300Y-97564000D02*
X155247000Y-97605700D01*
X154530000Y-97564000D02*
X155205300Y-97564000D01*
X161965800Y-100203900D02*
X160654300Y-98892400D01*
X162049900Y-100203900D02*
X161965800Y-100203900D01*
X159799000Y-98892400D02*
X160654300Y-98892400D01*
X160870400Y-96992400D02*
X159799000Y-96992400D01*
X162049900Y-98171900D02*
X160870400Y-96992400D01*
X152392100Y-95226600D02*
X152380000Y-95238700D01*
X152392100Y-95060200D02*
X152392100Y-95226600D01*
X152380000Y-95914000D02*
X152380000Y-95238700D01*
X150058500Y-95060200D02*
X149880000Y-95238700D01*
X150817100Y-95060200D02*
X150058500Y-95060200D01*
X149880000Y-95914000D02*
X149880000Y-95238700D01*
X149380000Y-94971800D02*
X149380000Y-95914000D01*
X149274800Y-94866600D02*
X149380000Y-94971800D01*
X156415300Y-98564000D02*
X154530000Y-98564000D01*
X156743700Y-98892400D02*
X156415300Y-98564000D01*
X157599000Y-98892400D02*
X156743700Y-98892400D01*
X157599000Y-96992400D02*
X156972000Y-97129600D01*
X156743700Y-97263000D02*
X156972000Y-97129600D01*
X155942700Y-98064000D02*
X156743700Y-97263000D01*
X154530000Y-98064000D02*
X155942700Y-98064000D01*
X147286000Y-102064000D02*
X147225000Y-102125000D01*
X147225000Y-102944000D02*
X147000000Y-103169000D01*
X147225000Y-102125000D02*
X147225000Y-102944000D01*
X147730000Y-102064000D02*
X147286000Y-102064000D01*
X147000000Y-103169000D02*
X147000000Y-103750000D01*
X148380000Y-103936700D02*
X148380000Y-102714000D01*
X148336000Y-103980700D02*
X148380000Y-103936700D01*
X148336000Y-105156000D02*
X148336000Y-103980700D01*
X155750000Y-99350000D02*
X155536000Y-99564000D01*
X155536000Y-99564000D02*
X154530000Y-99564000D01*
D29*
G36*
X153393103Y-103205190D02*
X153442500Y-103281956D01*
X153442500Y-103540250D01*
X153601250Y-103699000D01*
X153631310Y-103699000D01*
X153864699Y-103602327D01*
X154016777Y-103450248D01*
X154146190Y-103425897D01*
X154275865Y-103342454D01*
X154359534Y-103220000D01*
X156101500Y-103220000D01*
X156171879Y-103206001D01*
X156843785Y-103877978D01*
X156843798Y-103877986D01*
X156843804Y-103877996D01*
X156920566Y-103929287D01*
X156939235Y-103941762D01*
X156819600Y-103917536D01*
X155092400Y-103917536D01*
X154951210Y-103944103D01*
X154821535Y-104027546D01*
X154734541Y-104154866D01*
X154703936Y-104306000D01*
X154703936Y-104401997D01*
X154693723Y-104377732D01*
X154299667Y-103953215D01*
X153773151Y-103711811D01*
X153543000Y-103834598D01*
X153543000Y-105029000D01*
X153563000Y-105029000D01*
X153563000Y-105283000D01*
X153543000Y-105283000D01*
X153543000Y-105303000D01*
X153289000Y-105303000D01*
X153289000Y-105283000D01*
X153269000Y-105283000D01*
X153269000Y-105029000D01*
X153289000Y-105029000D01*
X153289000Y-103834598D01*
X153058849Y-103711811D01*
X152532333Y-103953215D01*
X152138277Y-104377732D01*
X152025331Y-104646083D01*
X151784431Y-104285552D01*
X151385066Y-104018704D01*
X150913983Y-103925000D01*
X150838017Y-103925000D01*
X150366934Y-104018704D01*
X149967569Y-104285552D01*
X149700721Y-104684917D01*
X149607017Y-105156000D01*
X149700721Y-105627083D01*
X149967569Y-106026448D01*
X150263226Y-106224000D01*
X148948774Y-106224000D01*
X149244431Y-106026448D01*
X149511279Y-105627083D01*
X149604983Y-105156000D01*
X149511279Y-104684917D01*
X149244431Y-104285552D01*
X148866800Y-104033226D01*
X148886000Y-103936700D01*
X148886000Y-103452464D01*
X149005000Y-103452464D01*
X149134588Y-103428080D01*
X149255000Y-103452464D01*
X149505000Y-103452464D01*
X149634588Y-103428080D01*
X149755000Y-103452464D01*
X150005000Y-103452464D01*
X150134588Y-103428080D01*
X150255000Y-103452464D01*
X150505000Y-103452464D01*
X150634588Y-103428080D01*
X150755000Y-103452464D01*
X151005000Y-103452464D01*
X151134588Y-103428080D01*
X151255000Y-103452464D01*
X151505000Y-103452464D01*
X151634588Y-103428080D01*
X151755000Y-103452464D01*
X152005000Y-103452464D01*
X152134588Y-103428080D01*
X152255000Y-103452464D01*
X152505000Y-103452464D01*
X152634588Y-103428080D01*
X152743011Y-103450036D01*
X152895301Y-103602327D01*
X153128690Y-103699000D01*
X153158750Y-103699000D01*
X153317500Y-103540250D01*
X153317500Y-103281519D01*
X153362859Y-103215134D01*
X153379506Y-103132928D01*
X153393103Y-103205190D01*
X153393103Y-103205190D01*
G37*
X153393103Y-103205190D02*
X153442500Y-103281956D01*
X153442500Y-103540250D01*
X153601250Y-103699000D01*
X153631310Y-103699000D01*
X153864699Y-103602327D01*
X154016777Y-103450248D01*
X154146190Y-103425897D01*
X154275865Y-103342454D01*
X154359534Y-103220000D01*
X156101500Y-103220000D01*
X156171879Y-103206001D01*
X156843785Y-103877978D01*
X156843798Y-103877986D01*
X156843804Y-103877996D01*
X156920566Y-103929287D01*
X156939235Y-103941762D01*
X156819600Y-103917536D01*
X155092400Y-103917536D01*
X154951210Y-103944103D01*
X154821535Y-104027546D01*
X154734541Y-104154866D01*
X154703936Y-104306000D01*
X154703936Y-104401997D01*
X154693723Y-104377732D01*
X154299667Y-103953215D01*
X153773151Y-103711811D01*
X153543000Y-103834598D01*
X153543000Y-105029000D01*
X153563000Y-105029000D01*
X153563000Y-105283000D01*
X153543000Y-105283000D01*
X153543000Y-105303000D01*
X153289000Y-105303000D01*
X153289000Y-105283000D01*
X153269000Y-105283000D01*
X153269000Y-105029000D01*
X153289000Y-105029000D01*
X153289000Y-103834598D01*
X153058849Y-103711811D01*
X152532333Y-103953215D01*
X152138277Y-104377732D01*
X152025331Y-104646083D01*
X151784431Y-104285552D01*
X151385066Y-104018704D01*
X150913983Y-103925000D01*
X150838017Y-103925000D01*
X150366934Y-104018704D01*
X149967569Y-104285552D01*
X149700721Y-104684917D01*
X149607017Y-105156000D01*
X149700721Y-105627083D01*
X149967569Y-106026448D01*
X150263226Y-106224000D01*
X148948774Y-106224000D01*
X149244431Y-106026448D01*
X149511279Y-105627083D01*
X149604983Y-105156000D01*
X149511279Y-104684917D01*
X149244431Y-104285552D01*
X148866800Y-104033226D01*
X148886000Y-103936700D01*
X148886000Y-103452464D01*
X149005000Y-103452464D01*
X149134588Y-103428080D01*
X149255000Y-103452464D01*
X149505000Y-103452464D01*
X149634588Y-103428080D01*
X149755000Y-103452464D01*
X150005000Y-103452464D01*
X150134588Y-103428080D01*
X150255000Y-103452464D01*
X150505000Y-103452464D01*
X150634588Y-103428080D01*
X150755000Y-103452464D01*
X151005000Y-103452464D01*
X151134588Y-103428080D01*
X151255000Y-103452464D01*
X151505000Y-103452464D01*
X151634588Y-103428080D01*
X151755000Y-103452464D01*
X152005000Y-103452464D01*
X152134588Y-103428080D01*
X152255000Y-103452464D01*
X152505000Y-103452464D01*
X152634588Y-103428080D01*
X152743011Y-103450036D01*
X152895301Y-103602327D01*
X153128690Y-103699000D01*
X153158750Y-103699000D01*
X153317500Y-103540250D01*
X153317500Y-103281519D01*
X153362859Y-103215134D01*
X153379506Y-103132928D01*
X153393103Y-103205190D01*
G36*
X158938673Y-100844301D02*
X158842000Y-101077690D01*
X158842000Y-101568250D01*
X159000750Y-101727000D01*
X159700000Y-101727000D01*
X159700000Y-101707000D01*
X159954000Y-101707000D01*
X159954000Y-101727000D01*
X159974000Y-101727000D01*
X159974000Y-101981000D01*
X159954000Y-101981000D01*
X159954000Y-103393240D01*
X159974000Y-103393240D01*
X159974000Y-103647240D01*
X159954000Y-103647240D01*
X159954000Y-103667240D01*
X159700000Y-103667240D01*
X159700000Y-103647240D01*
X158950700Y-103647240D01*
X158791950Y-103805990D01*
X158791950Y-104046600D01*
X158888623Y-104279989D01*
X159067252Y-104458617D01*
X159300641Y-104555290D01*
X159453918Y-104555290D01*
X159278257Y-104730951D01*
X159277050Y-104730706D01*
X158476950Y-104730706D01*
X158335760Y-104757273D01*
X158206085Y-104840716D01*
X158119091Y-104968036D01*
X158109945Y-105013200D01*
X157717692Y-105013200D01*
X157502696Y-104798204D01*
X157338538Y-104688517D01*
X157208064Y-104662564D01*
X157208064Y-104306000D01*
X157181497Y-104164810D01*
X157098054Y-104035135D01*
X157037083Y-103993476D01*
X157105262Y-104007037D01*
X157156736Y-104017279D01*
X157165053Y-104061480D01*
X157248496Y-104191155D01*
X157375816Y-104278149D01*
X157526950Y-104308754D01*
X158327050Y-104308754D01*
X158468240Y-104282187D01*
X158597915Y-104198744D01*
X158684909Y-104071424D01*
X158715514Y-103920290D01*
X158715514Y-103120190D01*
X158691747Y-102993880D01*
X158791950Y-102993880D01*
X158791950Y-103234490D01*
X158950700Y-103393240D01*
X159700000Y-103393240D01*
X159700000Y-101981000D01*
X159000750Y-101981000D01*
X158842000Y-102139750D01*
X158842000Y-102630310D01*
X158893785Y-102755329D01*
X158888623Y-102760491D01*
X158791950Y-102993880D01*
X158691747Y-102993880D01*
X158688947Y-102979000D01*
X158605504Y-102849325D01*
X158527147Y-102795786D01*
X158547865Y-102782454D01*
X158634859Y-102655134D01*
X158665464Y-102504000D01*
X158665464Y-101204000D01*
X158638897Y-101062810D01*
X158555454Y-100933135D01*
X158513721Y-100904620D01*
X158534809Y-100798603D01*
X158540438Y-100797483D01*
X158643678Y-100728500D01*
X159054475Y-100728500D01*
X158938673Y-100844301D01*
X158938673Y-100844301D01*
G37*
X158938673Y-100844301D02*
X158842000Y-101077690D01*
X158842000Y-101568250D01*
X159000750Y-101727000D01*
X159700000Y-101727000D01*
X159700000Y-101707000D01*
X159954000Y-101707000D01*
X159954000Y-101727000D01*
X159974000Y-101727000D01*
X159974000Y-101981000D01*
X159954000Y-101981000D01*
X159954000Y-103393240D01*
X159974000Y-103393240D01*
X159974000Y-103647240D01*
X159954000Y-103647240D01*
X159954000Y-103667240D01*
X159700000Y-103667240D01*
X159700000Y-103647240D01*
X158950700Y-103647240D01*
X158791950Y-103805990D01*
X158791950Y-104046600D01*
X158888623Y-104279989D01*
X159067252Y-104458617D01*
X159300641Y-104555290D01*
X159453918Y-104555290D01*
X159278257Y-104730951D01*
X159277050Y-104730706D01*
X158476950Y-104730706D01*
X158335760Y-104757273D01*
X158206085Y-104840716D01*
X158119091Y-104968036D01*
X158109945Y-105013200D01*
X157717692Y-105013200D01*
X157502696Y-104798204D01*
X157338538Y-104688517D01*
X157208064Y-104662564D01*
X157208064Y-104306000D01*
X157181497Y-104164810D01*
X157098054Y-104035135D01*
X157037083Y-103993476D01*
X157105262Y-104007037D01*
X157156736Y-104017279D01*
X157165053Y-104061480D01*
X157248496Y-104191155D01*
X157375816Y-104278149D01*
X157526950Y-104308754D01*
X158327050Y-104308754D01*
X158468240Y-104282187D01*
X158597915Y-104198744D01*
X158684909Y-104071424D01*
X158715514Y-103920290D01*
X158715514Y-103120190D01*
X158691747Y-102993880D01*
X158791950Y-102993880D01*
X158791950Y-103234490D01*
X158950700Y-103393240D01*
X159700000Y-103393240D01*
X159700000Y-101981000D01*
X159000750Y-101981000D01*
X158842000Y-102139750D01*
X158842000Y-102630310D01*
X158893785Y-102755329D01*
X158888623Y-102760491D01*
X158791950Y-102993880D01*
X158691747Y-102993880D01*
X158688947Y-102979000D01*
X158605504Y-102849325D01*
X158527147Y-102795786D01*
X158547865Y-102782454D01*
X158634859Y-102655134D01*
X158665464Y-102504000D01*
X158665464Y-101204000D01*
X158638897Y-101062810D01*
X158555454Y-100933135D01*
X158513721Y-100904620D01*
X158534809Y-100798603D01*
X158540438Y-100797483D01*
X158643678Y-100728500D01*
X159054475Y-100728500D01*
X158938673Y-100844301D01*
G36*
X149325750Y-97255750D02*
X150359250Y-97255750D01*
X150359250Y-97235750D01*
X150613250Y-97235750D01*
X150613250Y-97255750D01*
X151646750Y-97255750D01*
X151646750Y-97235750D01*
X151900750Y-97235750D01*
X151900750Y-97255750D01*
X152934250Y-97255750D01*
X152934250Y-97235750D01*
X153188250Y-97235750D01*
X153188250Y-97255750D01*
X153208250Y-97255750D01*
X153208250Y-97509750D01*
X153188250Y-97509750D01*
X153188250Y-98543250D01*
X153208250Y-98543250D01*
X153208250Y-98797250D01*
X153188250Y-98797250D01*
X153188250Y-99830750D01*
X153208250Y-99830750D01*
X153208250Y-100084750D01*
X153188250Y-100084750D01*
X153188250Y-101118250D01*
X153208250Y-101118250D01*
X153208250Y-101372250D01*
X153188250Y-101372250D01*
X153188250Y-101392250D01*
X152934250Y-101392250D01*
X152934250Y-101372250D01*
X151900750Y-101372250D01*
X151900750Y-101392250D01*
X151646750Y-101392250D01*
X151646750Y-101372250D01*
X150613250Y-101372250D01*
X150613250Y-101392250D01*
X150359250Y-101392250D01*
X150359250Y-101372250D01*
X149325750Y-101372250D01*
X149325750Y-101392250D01*
X149071750Y-101392250D01*
X149071750Y-101372250D01*
X149051750Y-101372250D01*
X149051750Y-101118250D01*
X149071750Y-101118250D01*
X149071750Y-100243500D01*
X149207500Y-100243500D01*
X149207500Y-100959500D01*
X149325750Y-101077750D01*
X149325750Y-101118250D01*
X149366250Y-101118250D01*
X149484500Y-101236500D01*
X150200500Y-101236500D01*
X150318750Y-101118250D01*
X150359250Y-101118250D01*
X150359250Y-101077750D01*
X150477500Y-100959500D01*
X150477500Y-100243500D01*
X150495000Y-100243500D01*
X150495000Y-100959500D01*
X150613250Y-101077750D01*
X150613250Y-101118250D01*
X150653750Y-101118250D01*
X150772000Y-101236500D01*
X151488000Y-101236500D01*
X151606250Y-101118250D01*
X151646750Y-101118250D01*
X151646750Y-101077750D01*
X151765000Y-100959500D01*
X151765000Y-100243500D01*
X151782500Y-100243500D01*
X151782500Y-100959500D01*
X151900750Y-101077750D01*
X151900750Y-101118250D01*
X151941250Y-101118250D01*
X152059500Y-101236500D01*
X152775500Y-101236500D01*
X152893750Y-101118250D01*
X152934250Y-101118250D01*
X152934250Y-101077750D01*
X153052500Y-100959500D01*
X153052500Y-100243500D01*
X152934250Y-100125250D01*
X152934250Y-100084750D01*
X152893750Y-100084750D01*
X152775500Y-99966500D01*
X152059500Y-99966500D01*
X151941250Y-100084750D01*
X151900750Y-100084750D01*
X151900750Y-100125250D01*
X151782500Y-100243500D01*
X151765000Y-100243500D01*
X151646750Y-100125250D01*
X151646750Y-100084750D01*
X151606250Y-100084750D01*
X151488000Y-99966500D01*
X150772000Y-99966500D01*
X150653750Y-100084750D01*
X150613250Y-100084750D01*
X150613250Y-100125250D01*
X150495000Y-100243500D01*
X150477500Y-100243500D01*
X150359250Y-100125250D01*
X150359250Y-100084750D01*
X150318750Y-100084750D01*
X150200500Y-99966500D01*
X149484500Y-99966500D01*
X149366250Y-100084750D01*
X149325750Y-100084750D01*
X149325750Y-100125250D01*
X149207500Y-100243500D01*
X149071750Y-100243500D01*
X149071750Y-100084750D01*
X149051750Y-100084750D01*
X149051750Y-99830750D01*
X149071750Y-99830750D01*
X149071750Y-98956000D01*
X149207500Y-98956000D01*
X149207500Y-99672000D01*
X149325750Y-99790250D01*
X149325750Y-99830750D01*
X149366250Y-99830750D01*
X149484500Y-99949000D01*
X150200500Y-99949000D01*
X150318750Y-99830750D01*
X150359250Y-99830750D01*
X150359250Y-99790250D01*
X150477500Y-99672000D01*
X150477500Y-98956000D01*
X150495000Y-98956000D01*
X150495000Y-99672000D01*
X150613250Y-99790250D01*
X150613250Y-99830750D01*
X150653750Y-99830750D01*
X150772000Y-99949000D01*
X151488000Y-99949000D01*
X151606250Y-99830750D01*
X151646750Y-99830750D01*
X151646750Y-99790250D01*
X151765000Y-99672000D01*
X151765000Y-98956000D01*
X151782500Y-98956000D01*
X151782500Y-99672000D01*
X151900750Y-99790250D01*
X151900750Y-99830750D01*
X151941250Y-99830750D01*
X152059500Y-99949000D01*
X152775500Y-99949000D01*
X152893750Y-99830750D01*
X152934250Y-99830750D01*
X152934250Y-99790250D01*
X153052500Y-99672000D01*
X153052500Y-98956000D01*
X152934250Y-98837750D01*
X152934250Y-98797250D01*
X152893750Y-98797250D01*
X152775500Y-98679000D01*
X152059500Y-98679000D01*
X151941250Y-98797250D01*
X151900750Y-98797250D01*
X151900750Y-98837750D01*
X151782500Y-98956000D01*
X151765000Y-98956000D01*
X151646750Y-98837750D01*
X151646750Y-98797250D01*
X151606250Y-98797250D01*
X151488000Y-98679000D01*
X150772000Y-98679000D01*
X150653750Y-98797250D01*
X150613250Y-98797250D01*
X150613250Y-98837750D01*
X150495000Y-98956000D01*
X150477500Y-98956000D01*
X150359250Y-98837750D01*
X150359250Y-98797250D01*
X150318750Y-98797250D01*
X150200500Y-98679000D01*
X149484500Y-98679000D01*
X149366250Y-98797250D01*
X149325750Y-98797250D01*
X149325750Y-98837750D01*
X149207500Y-98956000D01*
X149071750Y-98956000D01*
X149071750Y-98797250D01*
X149051750Y-98797250D01*
X149051750Y-98543250D01*
X149071750Y-98543250D01*
X149071750Y-97668500D01*
X149207500Y-97668500D01*
X149207500Y-98384500D01*
X149325750Y-98502750D01*
X149325750Y-98543250D01*
X149366250Y-98543250D01*
X149484500Y-98661500D01*
X150200500Y-98661500D01*
X150318750Y-98543250D01*
X150359250Y-98543250D01*
X150359250Y-98502750D01*
X150477500Y-98384500D01*
X150477500Y-97668500D01*
X150495000Y-97668500D01*
X150495000Y-98384500D01*
X150613250Y-98502750D01*
X150613250Y-98543250D01*
X150653750Y-98543250D01*
X150772000Y-98661500D01*
X151488000Y-98661500D01*
X151606250Y-98543250D01*
X151646750Y-98543250D01*
X151646750Y-98502750D01*
X151765000Y-98384500D01*
X151765000Y-97668500D01*
X151782500Y-97668500D01*
X151782500Y-98384500D01*
X151900750Y-98502750D01*
X151900750Y-98543250D01*
X151941250Y-98543250D01*
X152059500Y-98661500D01*
X152775500Y-98661500D01*
X152893750Y-98543250D01*
X152934250Y-98543250D01*
X152934250Y-98502750D01*
X153052500Y-98384500D01*
X153052500Y-97668500D01*
X152934250Y-97550250D01*
X152934250Y-97509750D01*
X152893750Y-97509750D01*
X152775500Y-97391500D01*
X152059500Y-97391500D01*
X151941250Y-97509750D01*
X151900750Y-97509750D01*
X151900750Y-97550250D01*
X151782500Y-97668500D01*
X151765000Y-97668500D01*
X151646750Y-97550250D01*
X151646750Y-97509750D01*
X151606250Y-97509750D01*
X151488000Y-97391500D01*
X150772000Y-97391500D01*
X150653750Y-97509750D01*
X150613250Y-97509750D01*
X150613250Y-97550250D01*
X150495000Y-97668500D01*
X150477500Y-97668500D01*
X150359250Y-97550250D01*
X150359250Y-97509750D01*
X150318750Y-97509750D01*
X150200500Y-97391500D01*
X149484500Y-97391500D01*
X149366250Y-97509750D01*
X149325750Y-97509750D01*
X149325750Y-97550250D01*
X149207500Y-97668500D01*
X149071750Y-97668500D01*
X149071750Y-97509750D01*
X149051750Y-97509750D01*
X149051750Y-97255750D01*
X149071750Y-97255750D01*
X149071750Y-97235750D01*
X149325750Y-97235750D01*
X149325750Y-97255750D01*
X149325750Y-97255750D01*
G37*
X149325750Y-97255750D02*
X150359250Y-97255750D01*
X150359250Y-97235750D01*
X150613250Y-97235750D01*
X150613250Y-97255750D01*
X151646750Y-97255750D01*
X151646750Y-97235750D01*
X151900750Y-97235750D01*
X151900750Y-97255750D01*
X152934250Y-97255750D01*
X152934250Y-97235750D01*
X153188250Y-97235750D01*
X153188250Y-97255750D01*
X153208250Y-97255750D01*
X153208250Y-97509750D01*
X153188250Y-97509750D01*
X153188250Y-98543250D01*
X153208250Y-98543250D01*
X153208250Y-98797250D01*
X153188250Y-98797250D01*
X153188250Y-99830750D01*
X153208250Y-99830750D01*
X153208250Y-100084750D01*
X153188250Y-100084750D01*
X153188250Y-101118250D01*
X153208250Y-101118250D01*
X153208250Y-101372250D01*
X153188250Y-101372250D01*
X153188250Y-101392250D01*
X152934250Y-101392250D01*
X152934250Y-101372250D01*
X151900750Y-101372250D01*
X151900750Y-101392250D01*
X151646750Y-101392250D01*
X151646750Y-101372250D01*
X150613250Y-101372250D01*
X150613250Y-101392250D01*
X150359250Y-101392250D01*
X150359250Y-101372250D01*
X149325750Y-101372250D01*
X149325750Y-101392250D01*
X149071750Y-101392250D01*
X149071750Y-101372250D01*
X149051750Y-101372250D01*
X149051750Y-101118250D01*
X149071750Y-101118250D01*
X149071750Y-100243500D01*
X149207500Y-100243500D01*
X149207500Y-100959500D01*
X149325750Y-101077750D01*
X149325750Y-101118250D01*
X149366250Y-101118250D01*
X149484500Y-101236500D01*
X150200500Y-101236500D01*
X150318750Y-101118250D01*
X150359250Y-101118250D01*
X150359250Y-101077750D01*
X150477500Y-100959500D01*
X150477500Y-100243500D01*
X150495000Y-100243500D01*
X150495000Y-100959500D01*
X150613250Y-101077750D01*
X150613250Y-101118250D01*
X150653750Y-101118250D01*
X150772000Y-101236500D01*
X151488000Y-101236500D01*
X151606250Y-101118250D01*
X151646750Y-101118250D01*
X151646750Y-101077750D01*
X151765000Y-100959500D01*
X151765000Y-100243500D01*
X151782500Y-100243500D01*
X151782500Y-100959500D01*
X151900750Y-101077750D01*
X151900750Y-101118250D01*
X151941250Y-101118250D01*
X152059500Y-101236500D01*
X152775500Y-101236500D01*
X152893750Y-101118250D01*
X152934250Y-101118250D01*
X152934250Y-101077750D01*
X153052500Y-100959500D01*
X153052500Y-100243500D01*
X152934250Y-100125250D01*
X152934250Y-100084750D01*
X152893750Y-100084750D01*
X152775500Y-99966500D01*
X152059500Y-99966500D01*
X151941250Y-100084750D01*
X151900750Y-100084750D01*
X151900750Y-100125250D01*
X151782500Y-100243500D01*
X151765000Y-100243500D01*
X151646750Y-100125250D01*
X151646750Y-100084750D01*
X151606250Y-100084750D01*
X151488000Y-99966500D01*
X150772000Y-99966500D01*
X150653750Y-100084750D01*
X150613250Y-100084750D01*
X150613250Y-100125250D01*
X150495000Y-100243500D01*
X150477500Y-100243500D01*
X150359250Y-100125250D01*
X150359250Y-100084750D01*
X150318750Y-100084750D01*
X150200500Y-99966500D01*
X149484500Y-99966500D01*
X149366250Y-100084750D01*
X149325750Y-100084750D01*
X149325750Y-100125250D01*
X149207500Y-100243500D01*
X149071750Y-100243500D01*
X149071750Y-100084750D01*
X149051750Y-100084750D01*
X149051750Y-99830750D01*
X149071750Y-99830750D01*
X149071750Y-98956000D01*
X149207500Y-98956000D01*
X149207500Y-99672000D01*
X149325750Y-99790250D01*
X149325750Y-99830750D01*
X149366250Y-99830750D01*
X149484500Y-99949000D01*
X150200500Y-99949000D01*
X150318750Y-99830750D01*
X150359250Y-99830750D01*
X150359250Y-99790250D01*
X150477500Y-99672000D01*
X150477500Y-98956000D01*
X150495000Y-98956000D01*
X150495000Y-99672000D01*
X150613250Y-99790250D01*
X150613250Y-99830750D01*
X150653750Y-99830750D01*
X150772000Y-99949000D01*
X151488000Y-99949000D01*
X151606250Y-99830750D01*
X151646750Y-99830750D01*
X151646750Y-99790250D01*
X151765000Y-99672000D01*
X151765000Y-98956000D01*
X151782500Y-98956000D01*
X151782500Y-99672000D01*
X151900750Y-99790250D01*
X151900750Y-99830750D01*
X151941250Y-99830750D01*
X152059500Y-99949000D01*
X152775500Y-99949000D01*
X152893750Y-99830750D01*
X152934250Y-99830750D01*
X152934250Y-99790250D01*
X153052500Y-99672000D01*
X153052500Y-98956000D01*
X152934250Y-98837750D01*
X152934250Y-98797250D01*
X152893750Y-98797250D01*
X152775500Y-98679000D01*
X152059500Y-98679000D01*
X151941250Y-98797250D01*
X151900750Y-98797250D01*
X151900750Y-98837750D01*
X151782500Y-98956000D01*
X151765000Y-98956000D01*
X151646750Y-98837750D01*
X151646750Y-98797250D01*
X151606250Y-98797250D01*
X151488000Y-98679000D01*
X150772000Y-98679000D01*
X150653750Y-98797250D01*
X150613250Y-98797250D01*
X150613250Y-98837750D01*
X150495000Y-98956000D01*
X150477500Y-98956000D01*
X150359250Y-98837750D01*
X150359250Y-98797250D01*
X150318750Y-98797250D01*
X150200500Y-98679000D01*
X149484500Y-98679000D01*
X149366250Y-98797250D01*
X149325750Y-98797250D01*
X149325750Y-98837750D01*
X149207500Y-98956000D01*
X149071750Y-98956000D01*
X149071750Y-98797250D01*
X149051750Y-98797250D01*
X149051750Y-98543250D01*
X149071750Y-98543250D01*
X149071750Y-97668500D01*
X149207500Y-97668500D01*
X149207500Y-98384500D01*
X149325750Y-98502750D01*
X149325750Y-98543250D01*
X149366250Y-98543250D01*
X149484500Y-98661500D01*
X150200500Y-98661500D01*
X150318750Y-98543250D01*
X150359250Y-98543250D01*
X150359250Y-98502750D01*
X150477500Y-98384500D01*
X150477500Y-97668500D01*
X150495000Y-97668500D01*
X150495000Y-98384500D01*
X150613250Y-98502750D01*
X150613250Y-98543250D01*
X150653750Y-98543250D01*
X150772000Y-98661500D01*
X151488000Y-98661500D01*
X151606250Y-98543250D01*
X151646750Y-98543250D01*
X151646750Y-98502750D01*
X151765000Y-98384500D01*
X151765000Y-97668500D01*
X151782500Y-97668500D01*
X151782500Y-98384500D01*
X151900750Y-98502750D01*
X151900750Y-98543250D01*
X151941250Y-98543250D01*
X152059500Y-98661500D01*
X152775500Y-98661500D01*
X152893750Y-98543250D01*
X152934250Y-98543250D01*
X152934250Y-98502750D01*
X153052500Y-98384500D01*
X153052500Y-97668500D01*
X152934250Y-97550250D01*
X152934250Y-97509750D01*
X152893750Y-97509750D01*
X152775500Y-97391500D01*
X152059500Y-97391500D01*
X151941250Y-97509750D01*
X151900750Y-97509750D01*
X151900750Y-97550250D01*
X151782500Y-97668500D01*
X151765000Y-97668500D01*
X151646750Y-97550250D01*
X151646750Y-97509750D01*
X151606250Y-97509750D01*
X151488000Y-97391500D01*
X150772000Y-97391500D01*
X150653750Y-97509750D01*
X150613250Y-97509750D01*
X150613250Y-97550250D01*
X150495000Y-97668500D01*
X150477500Y-97668500D01*
X150359250Y-97550250D01*
X150359250Y-97509750D01*
X150318750Y-97509750D01*
X150200500Y-97391500D01*
X149484500Y-97391500D01*
X149366250Y-97509750D01*
X149325750Y-97509750D01*
X149325750Y-97550250D01*
X149207500Y-97668500D01*
X149071750Y-97668500D01*
X149071750Y-97509750D01*
X149051750Y-97509750D01*
X149051750Y-97255750D01*
X149071750Y-97255750D01*
X149071750Y-97235750D01*
X149325750Y-97235750D01*
X149325750Y-97255750D01*
G36*
X141229092Y-92953461D02*
X141253144Y-93603460D01*
X141455613Y-94092264D01*
X141722468Y-94190927D01*
X142695395Y-93218000D01*
X142681253Y-93203858D01*
X142860858Y-93024253D01*
X142875000Y-93038395D01*
X142889143Y-93024253D01*
X143068748Y-93203858D01*
X143054605Y-93218000D01*
X144027532Y-94190927D01*
X144294387Y-94092264D01*
X144494700Y-93553083D01*
X144494700Y-93865200D01*
X144533217Y-94058838D01*
X144642904Y-94222996D01*
X145077696Y-94657788D01*
X144991141Y-94784466D01*
X144960536Y-94935600D01*
X144960536Y-95635600D01*
X144987103Y-95776790D01*
X145070546Y-95906465D01*
X145197866Y-95993459D01*
X145349000Y-96024064D01*
X145505564Y-96024064D01*
X145531517Y-96154538D01*
X145641204Y-96318696D01*
X146168300Y-96845792D01*
X146168300Y-98866450D01*
X146075000Y-98959750D01*
X146075000Y-99659000D01*
X146095000Y-99659000D01*
X146095000Y-99913000D01*
X146075000Y-99913000D01*
X146075000Y-99933000D01*
X145821000Y-99933000D01*
X145821000Y-99913000D01*
X144821750Y-99913000D01*
X144663000Y-100071750D01*
X144663000Y-100262309D01*
X144759673Y-100495698D01*
X144938301Y-100674327D01*
X145171690Y-100771000D01*
X145511295Y-100771000D01*
X145480517Y-100817062D01*
X145454564Y-100947536D01*
X145298000Y-100947536D01*
X145156810Y-100974103D01*
X145060251Y-101036236D01*
X145052071Y-100995111D01*
X144754746Y-100550132D01*
X144309767Y-100252807D01*
X143784878Y-100148400D01*
X141711122Y-100148400D01*
X141186233Y-100252807D01*
X140877000Y-100459430D01*
X140877000Y-99309691D01*
X144663000Y-99309691D01*
X144663000Y-99500250D01*
X144821750Y-99659000D01*
X145821000Y-99659000D01*
X145821000Y-98959750D01*
X145662250Y-98801000D01*
X145171690Y-98801000D01*
X144938301Y-98897673D01*
X144759673Y-99076302D01*
X144663000Y-99309691D01*
X140877000Y-99309691D01*
X140877000Y-97580570D01*
X141186233Y-97787193D01*
X141711122Y-97891600D01*
X143784878Y-97891600D01*
X144309767Y-97787193D01*
X144754746Y-97489868D01*
X145052071Y-97044889D01*
X145156478Y-96520000D01*
X145052071Y-95995111D01*
X144754746Y-95550132D01*
X144309767Y-95252807D01*
X143784878Y-95148400D01*
X141711122Y-95148400D01*
X141186233Y-95252807D01*
X140877000Y-95459430D01*
X140877000Y-94370532D01*
X141902073Y-94370532D01*
X142000736Y-94637387D01*
X142610461Y-94863908D01*
X143260460Y-94839856D01*
X143749264Y-94637387D01*
X143847927Y-94370532D01*
X142875000Y-93397605D01*
X141902073Y-94370532D01*
X140877000Y-94370532D01*
X140877000Y-92531000D01*
X141386042Y-92531000D01*
X141229092Y-92953461D01*
X141229092Y-92953461D01*
G37*
X141229092Y-92953461D02*
X141253144Y-93603460D01*
X141455613Y-94092264D01*
X141722468Y-94190927D01*
X142695395Y-93218000D01*
X142681253Y-93203858D01*
X142860858Y-93024253D01*
X142875000Y-93038395D01*
X142889143Y-93024253D01*
X143068748Y-93203858D01*
X143054605Y-93218000D01*
X144027532Y-94190927D01*
X144294387Y-94092264D01*
X144494700Y-93553083D01*
X144494700Y-93865200D01*
X144533217Y-94058838D01*
X144642904Y-94222996D01*
X145077696Y-94657788D01*
X144991141Y-94784466D01*
X144960536Y-94935600D01*
X144960536Y-95635600D01*
X144987103Y-95776790D01*
X145070546Y-95906465D01*
X145197866Y-95993459D01*
X145349000Y-96024064D01*
X145505564Y-96024064D01*
X145531517Y-96154538D01*
X145641204Y-96318696D01*
X146168300Y-96845792D01*
X146168300Y-98866450D01*
X146075000Y-98959750D01*
X146075000Y-99659000D01*
X146095000Y-99659000D01*
X146095000Y-99913000D01*
X146075000Y-99913000D01*
X146075000Y-99933000D01*
X145821000Y-99933000D01*
X145821000Y-99913000D01*
X144821750Y-99913000D01*
X144663000Y-100071750D01*
X144663000Y-100262309D01*
X144759673Y-100495698D01*
X144938301Y-100674327D01*
X145171690Y-100771000D01*
X145511295Y-100771000D01*
X145480517Y-100817062D01*
X145454564Y-100947536D01*
X145298000Y-100947536D01*
X145156810Y-100974103D01*
X145060251Y-101036236D01*
X145052071Y-100995111D01*
X144754746Y-100550132D01*
X144309767Y-100252807D01*
X143784878Y-100148400D01*
X141711122Y-100148400D01*
X141186233Y-100252807D01*
X140877000Y-100459430D01*
X140877000Y-99309691D01*
X144663000Y-99309691D01*
X144663000Y-99500250D01*
X144821750Y-99659000D01*
X145821000Y-99659000D01*
X145821000Y-98959750D01*
X145662250Y-98801000D01*
X145171690Y-98801000D01*
X144938301Y-98897673D01*
X144759673Y-99076302D01*
X144663000Y-99309691D01*
X140877000Y-99309691D01*
X140877000Y-97580570D01*
X141186233Y-97787193D01*
X141711122Y-97891600D01*
X143784878Y-97891600D01*
X144309767Y-97787193D01*
X144754746Y-97489868D01*
X145052071Y-97044889D01*
X145156478Y-96520000D01*
X145052071Y-95995111D01*
X144754746Y-95550132D01*
X144309767Y-95252807D01*
X143784878Y-95148400D01*
X141711122Y-95148400D01*
X141186233Y-95252807D01*
X140877000Y-95459430D01*
X140877000Y-94370532D01*
X141902073Y-94370532D01*
X142000736Y-94637387D01*
X142610461Y-94863908D01*
X143260460Y-94839856D01*
X143749264Y-94637387D01*
X143847927Y-94370532D01*
X142875000Y-93397605D01*
X141902073Y-94370532D01*
X140877000Y-94370532D01*
X140877000Y-92531000D01*
X141386042Y-92531000D01*
X141229092Y-92953461D01*
G36*
X159926000Y-97815400D02*
X159946000Y-97815400D01*
X159946000Y-98069400D01*
X159926000Y-98069400D01*
X159926000Y-98089400D01*
X159672000Y-98089400D01*
X159672000Y-98069400D01*
X159652000Y-98069400D01*
X159652000Y-97815400D01*
X159672000Y-97815400D01*
X159672000Y-97795400D01*
X159926000Y-97795400D01*
X159926000Y-97815400D01*
X159926000Y-97815400D01*
G37*
X159926000Y-97815400D02*
X159946000Y-97815400D01*
X159946000Y-98069400D01*
X159926000Y-98069400D01*
X159926000Y-98089400D01*
X159672000Y-98089400D01*
X159672000Y-98069400D01*
X159652000Y-98069400D01*
X159652000Y-97815400D01*
X159672000Y-97815400D01*
X159672000Y-97795400D01*
X159926000Y-97795400D01*
X159926000Y-97815400D01*
G36*
X161873000Y-94253488D02*
X161704342Y-94262055D01*
X161325615Y-94418929D01*
X161257555Y-94659930D01*
X161873000Y-95275375D01*
X161873000Y-95662870D01*
X161856133Y-95646003D01*
X161870275Y-95631860D01*
X161077950Y-94839535D01*
X160836949Y-94907595D01*
X160652113Y-95426894D01*
X160680075Y-95977398D01*
X160836949Y-96356125D01*
X161077948Y-96424184D01*
X160991620Y-96510512D01*
X160870400Y-96486400D01*
X160665280Y-96486400D01*
X160607454Y-96396535D01*
X160480134Y-96309541D01*
X160329000Y-96278936D01*
X159269000Y-96278936D01*
X159127810Y-96305503D01*
X158998135Y-96388946D01*
X158911141Y-96516266D01*
X158880536Y-96667400D01*
X158880536Y-97107839D01*
X158730673Y-97257701D01*
X158641250Y-97473587D01*
X158491854Y-97443870D01*
X158517464Y-97317400D01*
X158517464Y-96667400D01*
X158490897Y-96526210D01*
X158407454Y-96396535D01*
X158280134Y-96309541D01*
X158129000Y-96278936D01*
X157662873Y-96278936D01*
X157767396Y-96209096D01*
X159107796Y-94868696D01*
X159217483Y-94704538D01*
X159256000Y-94510900D01*
X159256000Y-94083045D01*
X159390221Y-93993361D01*
X159581198Y-93707544D01*
X159648260Y-93370400D01*
X159581198Y-93033256D01*
X159390221Y-92747439D01*
X159104404Y-92556462D01*
X158976398Y-92531000D01*
X161873000Y-92531000D01*
X161873000Y-94253488D01*
X161873000Y-94253488D01*
G37*
X161873000Y-94253488D02*
X161704342Y-94262055D01*
X161325615Y-94418929D01*
X161257555Y-94659930D01*
X161873000Y-95275375D01*
X161873000Y-95662870D01*
X161856133Y-95646003D01*
X161870275Y-95631860D01*
X161077950Y-94839535D01*
X160836949Y-94907595D01*
X160652113Y-95426894D01*
X160680075Y-95977398D01*
X160836949Y-96356125D01*
X161077948Y-96424184D01*
X160991620Y-96510512D01*
X160870400Y-96486400D01*
X160665280Y-96486400D01*
X160607454Y-96396535D01*
X160480134Y-96309541D01*
X160329000Y-96278936D01*
X159269000Y-96278936D01*
X159127810Y-96305503D01*
X158998135Y-96388946D01*
X158911141Y-96516266D01*
X158880536Y-96667400D01*
X158880536Y-97107839D01*
X158730673Y-97257701D01*
X158641250Y-97473587D01*
X158491854Y-97443870D01*
X158517464Y-97317400D01*
X158517464Y-96667400D01*
X158490897Y-96526210D01*
X158407454Y-96396535D01*
X158280134Y-96309541D01*
X158129000Y-96278936D01*
X157662873Y-96278936D01*
X157767396Y-96209096D01*
X159107796Y-94868696D01*
X159217483Y-94704538D01*
X159256000Y-94510900D01*
X159256000Y-94083045D01*
X159390221Y-93993361D01*
X159581198Y-93707544D01*
X159648260Y-93370400D01*
X159581198Y-93033256D01*
X159390221Y-92747439D01*
X159104404Y-92556462D01*
X158976398Y-92531000D01*
X161873000Y-92531000D01*
X161873000Y-94253488D01*
G36*
X158395596Y-92556462D02*
X158109779Y-92747439D01*
X157918802Y-93033256D01*
X157851740Y-93370400D01*
X157918802Y-93707544D01*
X158109779Y-93993361D01*
X158244000Y-94083045D01*
X158244000Y-94301308D01*
X157188240Y-95357068D01*
X157053762Y-95383817D01*
X156889604Y-95493504D01*
X155772504Y-96610604D01*
X155662817Y-96774762D01*
X155624300Y-96968400D01*
X155624300Y-97029908D01*
X155554508Y-97099700D01*
X155403702Y-97099700D01*
X155398938Y-97096517D01*
X155205300Y-97058000D01*
X154983441Y-97058000D01*
X155021190Y-97050897D01*
X155097956Y-97001500D01*
X155356250Y-97001500D01*
X155515000Y-96842750D01*
X155515000Y-96812690D01*
X155418327Y-96579301D01*
X155324309Y-96485283D01*
X155604525Y-96205067D01*
X155699446Y-96244482D01*
X155970365Y-96244718D01*
X156220752Y-96141261D01*
X156412487Y-95949859D01*
X156516382Y-95699654D01*
X156516618Y-95428735D01*
X156413161Y-95178348D01*
X156221759Y-94986613D01*
X156036400Y-94909645D01*
X156036400Y-94372843D01*
X156083000Y-94339535D01*
X156083000Y-93497400D01*
X156337000Y-93497400D01*
X156337000Y-94339535D01*
X156511877Y-94464532D01*
X156907604Y-94265723D01*
X157197127Y-93930609D01*
X157304119Y-93672274D01*
X157177954Y-93497400D01*
X156337000Y-93497400D01*
X156083000Y-93497400D01*
X156063000Y-93497400D01*
X156063000Y-93243400D01*
X156083000Y-93243400D01*
X156083000Y-93223400D01*
X156337000Y-93223400D01*
X156337000Y-93243400D01*
X157177954Y-93243400D01*
X157304119Y-93068526D01*
X157197127Y-92810191D01*
X156955919Y-92531000D01*
X158523602Y-92531000D01*
X158395596Y-92556462D01*
X158395596Y-92556462D01*
G37*
X158395596Y-92556462D02*
X158109779Y-92747439D01*
X157918802Y-93033256D01*
X157851740Y-93370400D01*
X157918802Y-93707544D01*
X158109779Y-93993361D01*
X158244000Y-94083045D01*
X158244000Y-94301308D01*
X157188240Y-95357068D01*
X157053762Y-95383817D01*
X156889604Y-95493504D01*
X155772504Y-96610604D01*
X155662817Y-96774762D01*
X155624300Y-96968400D01*
X155624300Y-97029908D01*
X155554508Y-97099700D01*
X155403702Y-97099700D01*
X155398938Y-97096517D01*
X155205300Y-97058000D01*
X154983441Y-97058000D01*
X155021190Y-97050897D01*
X155097956Y-97001500D01*
X155356250Y-97001500D01*
X155515000Y-96842750D01*
X155515000Y-96812690D01*
X155418327Y-96579301D01*
X155324309Y-96485283D01*
X155604525Y-96205067D01*
X155699446Y-96244482D01*
X155970365Y-96244718D01*
X156220752Y-96141261D01*
X156412487Y-95949859D01*
X156516382Y-95699654D01*
X156516618Y-95428735D01*
X156413161Y-95178348D01*
X156221759Y-94986613D01*
X156036400Y-94909645D01*
X156036400Y-94372843D01*
X156083000Y-94339535D01*
X156083000Y-93497400D01*
X156337000Y-93497400D01*
X156337000Y-94339535D01*
X156511877Y-94464532D01*
X156907604Y-94265723D01*
X157197127Y-93930609D01*
X157304119Y-93672274D01*
X157177954Y-93497400D01*
X156337000Y-93497400D01*
X156083000Y-93497400D01*
X156063000Y-93497400D01*
X156063000Y-93243400D01*
X156083000Y-93243400D01*
X156083000Y-93223400D01*
X156337000Y-93223400D01*
X156337000Y-93243400D01*
X157177954Y-93243400D01*
X157304119Y-93068526D01*
X157197127Y-92810191D01*
X156955919Y-92531000D01*
X158523602Y-92531000D01*
X158395596Y-92556462D01*
G36*
X164465000Y-93218000D02*
X164485000Y-93218000D01*
X164485000Y-93472000D01*
X164465000Y-93472000D01*
X164465000Y-94680000D01*
X165665000Y-94680000D01*
X166166215Y-94529778D01*
X166295000Y-94424803D01*
X166295000Y-98725894D01*
X166185010Y-98459697D01*
X165792370Y-98066371D01*
X165279100Y-97853243D01*
X164723339Y-97852758D01*
X164209697Y-98064990D01*
X163816371Y-98457630D01*
X163603243Y-98970900D01*
X163602758Y-99526661D01*
X163814990Y-100040303D01*
X164207630Y-100433629D01*
X164720900Y-100646757D01*
X165276661Y-100647242D01*
X165790303Y-100435010D01*
X166183629Y-100042370D01*
X166295000Y-99774158D01*
X166295000Y-103949197D01*
X166166215Y-103844222D01*
X165665000Y-103694000D01*
X164465000Y-103694000D01*
X164465000Y-104902000D01*
X164485000Y-104902000D01*
X164485000Y-105156000D01*
X164465000Y-105156000D01*
X164465000Y-105176000D01*
X164211000Y-105176000D01*
X164211000Y-105156000D01*
X164191000Y-105156000D01*
X164191000Y-104902000D01*
X164211000Y-104902000D01*
X164211000Y-103694000D01*
X163059284Y-103694000D01*
X163223824Y-103529747D01*
X163435209Y-103020676D01*
X163435690Y-102469462D01*
X163225194Y-101960023D01*
X162835767Y-101569916D01*
X162604499Y-101473885D01*
X162833717Y-101379174D01*
X163223824Y-100989747D01*
X163435209Y-100480676D01*
X163435690Y-99929462D01*
X163225194Y-99420023D01*
X162993373Y-99187797D01*
X163223824Y-98957747D01*
X163435209Y-98448676D01*
X163435690Y-97897462D01*
X163225194Y-97388023D01*
X162835767Y-96997916D01*
X162604499Y-96901885D01*
X162833717Y-96807174D01*
X163223824Y-96417747D01*
X163435209Y-95908676D01*
X163435690Y-95357462D01*
X163225194Y-94848023D01*
X163057464Y-94680000D01*
X164211000Y-94680000D01*
X164211000Y-93472000D01*
X164191000Y-93472000D01*
X164191000Y-93218000D01*
X164211000Y-93218000D01*
X164211000Y-93198000D01*
X164465000Y-93198000D01*
X164465000Y-93218000D01*
X164465000Y-93218000D01*
G37*
X164465000Y-93218000D02*
X164485000Y-93218000D01*
X164485000Y-93472000D01*
X164465000Y-93472000D01*
X164465000Y-94680000D01*
X165665000Y-94680000D01*
X166166215Y-94529778D01*
X166295000Y-94424803D01*
X166295000Y-98725894D01*
X166185010Y-98459697D01*
X165792370Y-98066371D01*
X165279100Y-97853243D01*
X164723339Y-97852758D01*
X164209697Y-98064990D01*
X163816371Y-98457630D01*
X163603243Y-98970900D01*
X163602758Y-99526661D01*
X163814990Y-100040303D01*
X164207630Y-100433629D01*
X164720900Y-100646757D01*
X165276661Y-100647242D01*
X165790303Y-100435010D01*
X166183629Y-100042370D01*
X166295000Y-99774158D01*
X166295000Y-103949197D01*
X166166215Y-103844222D01*
X165665000Y-103694000D01*
X164465000Y-103694000D01*
X164465000Y-104902000D01*
X164485000Y-104902000D01*
X164485000Y-105156000D01*
X164465000Y-105156000D01*
X164465000Y-105176000D01*
X164211000Y-105176000D01*
X164211000Y-105156000D01*
X164191000Y-105156000D01*
X164191000Y-104902000D01*
X164211000Y-104902000D01*
X164211000Y-103694000D01*
X163059284Y-103694000D01*
X163223824Y-103529747D01*
X163435209Y-103020676D01*
X163435690Y-102469462D01*
X163225194Y-101960023D01*
X162835767Y-101569916D01*
X162604499Y-101473885D01*
X162833717Y-101379174D01*
X163223824Y-100989747D01*
X163435209Y-100480676D01*
X163435690Y-99929462D01*
X163225194Y-99420023D01*
X162993373Y-99187797D01*
X163223824Y-98957747D01*
X163435209Y-98448676D01*
X163435690Y-97897462D01*
X163225194Y-97388023D01*
X162835767Y-96997916D01*
X162604499Y-96901885D01*
X162833717Y-96807174D01*
X163223824Y-96417747D01*
X163435209Y-95908676D01*
X163435690Y-95357462D01*
X163225194Y-94848023D01*
X163057464Y-94680000D01*
X164211000Y-94680000D01*
X164211000Y-93472000D01*
X164191000Y-93472000D01*
X164191000Y-93218000D01*
X164211000Y-93218000D01*
X164211000Y-93198000D01*
X164465000Y-93198000D01*
X164465000Y-93218000D01*
M02*
