G04 #@! TF.FileFunction,Copper,L1,Top,Signal*
%FSLAX46Y46*%
G04 Gerber Fmt 4.6, Leading zero omitted, Abs format (unit mm)*
G04 Created by KiCad (PCBNEW (2016-04-04 BZR 6663, Git 30f5a7a)-product) date 13/07/2016 18:07:22*
%MOMM*%
G01*
G04 APERTURE LIST*
%ADD10C,0.100000*%
%ADD11R,0.700000X0.250000*%
%ADD12R,0.250000X0.700000*%
%ADD13R,1.287500X1.287500*%
%ADD14R,1.300000X0.700000*%
%ADD15O,3.962400X1.981200*%
%ADD16R,0.700000X1.300000*%
%ADD17R,0.800100X0.800100*%
%ADD18R,1.060000X0.650000*%
%ADD19C,1.501140*%
%ADD20O,3.800000X1.400000*%
%ADD21O,1.000000X1.000000*%
%ADD22R,1.727200X1.700000*%
%ADD23O,1.727200X1.700000*%
%ADD24C,2.000000*%
%ADD25R,0.600000X1.000000*%
%ADD26C,0.600000*%
%ADD27C,0.250000*%
%ADD28C,0.254000*%
G04 APERTURE END LIST*
D10*
D11*
X147730000Y-96564000D03*
X147730000Y-97064000D03*
X147730000Y-97564000D03*
X147730000Y-98064000D03*
X147730000Y-98564000D03*
X147730000Y-99064000D03*
X147730000Y-99564000D03*
X147730000Y-100064000D03*
X147730000Y-100564000D03*
X147730000Y-101064000D03*
X147730000Y-101564000D03*
X147730000Y-102064000D03*
D12*
X148380000Y-102714000D03*
X148880000Y-102714000D03*
X149380000Y-102714000D03*
X149880000Y-102714000D03*
X150380000Y-102714000D03*
X150880000Y-102714000D03*
X151380000Y-102714000D03*
X151880000Y-102714000D03*
X152380000Y-102714000D03*
X152880000Y-102714000D03*
X153380000Y-102714000D03*
X153880000Y-102714000D03*
D11*
X154530000Y-102064000D03*
X154530000Y-101564000D03*
X154530000Y-101064000D03*
X154530000Y-100564000D03*
X154530000Y-100064000D03*
X154530000Y-99564000D03*
X154530000Y-99064000D03*
X154530000Y-98564000D03*
X154530000Y-98064000D03*
X154530000Y-97564000D03*
X154530000Y-97064000D03*
X154530000Y-96564000D03*
D12*
X153880000Y-95914000D03*
X153380000Y-95914000D03*
X152880000Y-95914000D03*
X152380000Y-95914000D03*
X151880000Y-95914000D03*
X151380000Y-95914000D03*
X150880000Y-95914000D03*
X150380000Y-95914000D03*
X149880000Y-95914000D03*
X149380000Y-95914000D03*
X148880000Y-95914000D03*
X148380000Y-95914000D03*
D13*
X153061250Y-101245250D03*
X153061250Y-99957750D03*
X153061250Y-98670250D03*
X153061250Y-97382750D03*
X151773750Y-101245250D03*
X151773750Y-99957750D03*
X151773750Y-98670250D03*
X151773750Y-97382750D03*
X150486250Y-101245250D03*
X150486250Y-99957750D03*
X150486250Y-98670250D03*
X150486250Y-97382750D03*
X149198750Y-101245250D03*
X149198750Y-99957750D03*
X149198750Y-98670250D03*
X149198750Y-97382750D03*
D14*
X145999000Y-95285600D03*
X145999000Y-93385600D03*
D15*
X142748000Y-96520000D03*
X142748000Y-101520000D03*
D16*
X157927000Y-101854000D03*
X159827000Y-101854000D03*
D14*
X145948000Y-101686000D03*
X145948000Y-99786000D03*
D17*
X159827000Y-103520240D03*
X157927000Y-103520240D03*
X158877000Y-105519220D03*
D18*
X159799000Y-98892400D03*
X159799000Y-97942400D03*
X159799000Y-96992400D03*
X157599000Y-96992400D03*
X157599000Y-98892400D03*
X157599000Y-97942400D03*
D19*
X162049880Y-102743860D03*
X162049880Y-100203860D03*
X162049880Y-98171860D03*
X162049880Y-95631860D03*
D20*
X164338000Y-105029000D03*
X164338000Y-93345000D03*
D21*
X158750000Y-93370400D03*
X151130000Y-93370400D03*
X153670000Y-93370400D03*
X148590000Y-93370400D03*
X156210000Y-93370400D03*
D22*
X155956000Y-105156000D03*
D23*
X153416000Y-105156000D03*
X150876000Y-105156000D03*
X148336000Y-105156000D03*
D24*
X142875000Y-93218000D03*
D25*
X157721500Y-100330000D03*
X156896000Y-100330000D03*
D26*
X144475200Y-98755200D03*
X155505000Y-96942500D03*
X157320500Y-95013300D03*
X146200900Y-102538200D03*
X155835500Y-95563600D03*
X156443100Y-101412700D03*
X152392100Y-95060200D03*
X150817100Y-95060200D03*
X149274800Y-94866600D03*
D27*
X147249600Y-99564000D02*
X147730000Y-99564000D01*
X146674300Y-98988700D02*
X147249600Y-99564000D01*
X146674300Y-96636200D02*
X146674300Y-98988700D01*
X145999000Y-95960900D02*
X146674300Y-96636200D01*
X145999000Y-95285600D02*
X145999000Y-95960900D01*
X145745800Y-94610300D02*
X145999000Y-94610300D01*
X145000700Y-93865200D02*
X145745800Y-94610300D01*
X145000700Y-92874400D02*
X145000700Y-93865200D01*
X145378000Y-92497100D02*
X145000700Y-92874400D01*
X149431400Y-92497100D02*
X145378000Y-92497100D01*
X150304700Y-93370400D02*
X149431400Y-92497100D01*
X151130000Y-93370400D02*
X150304700Y-93370400D01*
X145999000Y-95285600D02*
X145999000Y-94610300D01*
X145897600Y-98806000D02*
X145948000Y-98806000D01*
X145897600Y-98805600D02*
X145897600Y-98806000D01*
X145948000Y-98755200D02*
X145897600Y-98805600D01*
X144475200Y-98755200D02*
X145948000Y-98755200D01*
X146952000Y-100064000D02*
X147730000Y-100064000D01*
X146675000Y-99786400D02*
X146952000Y-100064000D01*
X145948000Y-99786400D02*
X146675000Y-99786400D01*
X149092000Y-100064000D02*
X149199000Y-99957800D01*
X147730000Y-100064000D02*
X149092000Y-100064000D01*
X149199000Y-98670200D02*
X149199000Y-97382800D01*
X153061000Y-98670200D02*
X151773800Y-98670200D01*
X151773800Y-98670200D02*
X150486300Y-98670200D01*
X159799000Y-97942400D02*
X158943700Y-97942400D01*
X159827000Y-103520200D02*
X159827000Y-101854000D01*
X150486300Y-98670200D02*
X149199000Y-98670200D01*
X149199000Y-98670200D02*
X149198800Y-98670200D01*
X149199000Y-99957800D02*
X149199000Y-99314000D01*
X149199000Y-99314000D02*
X149199000Y-98670200D01*
X149198800Y-99314200D02*
X149198800Y-99957700D01*
X149199000Y-99314000D02*
X149198800Y-99314200D01*
X150486400Y-97382800D02*
X149199000Y-97382800D01*
X150486400Y-97382800D02*
X150486300Y-97382700D01*
X149199000Y-99957800D02*
X150486400Y-99957800D01*
X150486400Y-99957800D02*
X150486300Y-99957700D01*
X151773700Y-97382800D02*
X151773800Y-97382700D01*
X151773700Y-97382800D02*
X150486400Y-97382800D01*
X151773700Y-99957800D02*
X151773800Y-99957700D01*
X150486400Y-99957800D02*
X151773700Y-99957800D01*
X151773700Y-99957800D02*
X153061000Y-99957800D01*
X151773800Y-101245200D02*
X151773800Y-101245000D01*
X153061000Y-101245000D02*
X151773800Y-101245000D01*
X153061300Y-97382700D02*
X153061200Y-97382600D01*
X153380000Y-97064000D02*
X153061200Y-97382600D01*
X154530000Y-97064000D02*
X153380000Y-97064000D01*
X153061000Y-97382800D02*
X151773700Y-97382800D01*
X153061200Y-97382600D02*
X153061000Y-97382800D01*
X153061300Y-98670200D02*
X153061000Y-98670200D01*
X153061100Y-99957700D02*
X153061000Y-99957800D01*
X153061300Y-99957700D02*
X153061100Y-99957700D01*
X153061200Y-101245200D02*
X153061000Y-101245000D01*
X153061300Y-101245200D02*
X153061200Y-101245200D01*
X156210000Y-93370400D02*
X157035300Y-93370400D01*
X157860600Y-92545100D02*
X157035300Y-93370400D01*
X159141100Y-92545100D02*
X157860600Y-92545100D01*
X159821400Y-93225400D02*
X159141100Y-92545100D01*
X159821400Y-95631900D02*
X159821400Y-93225400D01*
X158943700Y-96509600D02*
X159821400Y-95631900D01*
X158943700Y-97942400D02*
X158943700Y-96509600D01*
X159821400Y-95631900D02*
X162049900Y-95631900D01*
X151773800Y-101245000D02*
X150486400Y-101245000D01*
X150486300Y-101245100D02*
X150486300Y-101245200D01*
X150486400Y-101245000D02*
X150486300Y-101245100D01*
X149198800Y-101245200D02*
X149199000Y-101245000D01*
X150486400Y-101245000D02*
X149199000Y-101245000D01*
X149199000Y-101245000D02*
X149199000Y-99957800D01*
X153380000Y-101563900D02*
X153380000Y-102714000D01*
X153061300Y-101245200D02*
X153380000Y-101563900D01*
X153380000Y-103944700D02*
X153416000Y-103980700D01*
X153380000Y-102714000D02*
X153380000Y-103944700D01*
X153416000Y-105156000D02*
X153416000Y-104000500D01*
X153416000Y-104000500D02*
X153416000Y-103980700D01*
X159101600Y-103611000D02*
X159101600Y-103520200D01*
X158467000Y-104245600D02*
X159101600Y-103611000D01*
X157310300Y-104245600D02*
X158467000Y-104245600D01*
X157045400Y-103980700D02*
X157310300Y-104245600D01*
X153416000Y-103980700D02*
X157045400Y-103980700D01*
X159827000Y-103520200D02*
X159101600Y-103520200D01*
X145948000Y-99786400D02*
X145948000Y-99786000D01*
X145948000Y-99786000D02*
X145948000Y-98806000D01*
X145948000Y-98806000D02*
X145948000Y-98666500D01*
X142875000Y-93795300D02*
X142875000Y-93218000D01*
X145948000Y-96868300D02*
X142875000Y-93795300D01*
X145948000Y-98666500D02*
X145948000Y-96868300D01*
X149039500Y-97223400D02*
X149198800Y-97382700D01*
X148880000Y-97064000D02*
X149039500Y-97223400D01*
X148880000Y-95914000D02*
X148880000Y-97064000D01*
X149039500Y-97223400D02*
X149199000Y-97382800D01*
X155505000Y-96828800D02*
X155505000Y-96942500D01*
X157320500Y-95013300D02*
X155505000Y-96828800D01*
X156896000Y-100330000D02*
X156896000Y-101155300D01*
X145948000Y-101686000D02*
X145948000Y-101010700D01*
X146394700Y-100564000D02*
X145948000Y-101010700D01*
X147730000Y-100564000D02*
X146394700Y-100564000D01*
X145948000Y-101686000D02*
X145948000Y-102361300D01*
X146024000Y-102361300D02*
X145948000Y-102361300D01*
X146200900Y-102538200D02*
X146024000Y-102361300D01*
X148380000Y-95914000D02*
X148380000Y-95552200D01*
X145999000Y-93385600D02*
X146974300Y-93385600D01*
X157927000Y-103520200D02*
X157201600Y-103520200D01*
X157201600Y-103520200D02*
X156248500Y-102567000D01*
X156101500Y-102714000D02*
X153880000Y-102714000D01*
X156248500Y-102567000D02*
X156101500Y-102714000D01*
X148380000Y-94405700D02*
X148590000Y-94195700D01*
X148380000Y-95552200D02*
X148380000Y-94405700D01*
X156638600Y-101412700D02*
X156443100Y-101412700D01*
X156896000Y-101155300D02*
X156638600Y-101412700D01*
X156435800Y-102379700D02*
X156248500Y-102567000D01*
X156435800Y-101615500D02*
X156435800Y-102379700D01*
X156443100Y-101608200D02*
X156435800Y-101615500D01*
X156443100Y-101412700D02*
X156443100Y-101608200D01*
X148590000Y-93370400D02*
X148590000Y-93890800D01*
X148590000Y-93890800D02*
X148590000Y-94195700D01*
X147479500Y-93890800D02*
X146974300Y-93385600D01*
X148590000Y-93890800D02*
X147479500Y-93890800D01*
X155835500Y-95563600D02*
X155530400Y-95563600D01*
X155530400Y-95563600D02*
X154530000Y-96564000D01*
X148908500Y-94209300D02*
X148590000Y-93890800D01*
X151634200Y-94209300D02*
X148908500Y-94209300D01*
X153322000Y-92521500D02*
X151634200Y-94209300D01*
X154055500Y-92521500D02*
X153322000Y-92521500D01*
X155530400Y-93996400D02*
X154055500Y-92521500D01*
X155530400Y-95563600D02*
X155530400Y-93996400D01*
X157599000Y-97942400D02*
X158454300Y-97942400D01*
X158454300Y-97942400D02*
X158454300Y-100222500D01*
X158454300Y-100222500D02*
X158346800Y-100330000D01*
X157721500Y-100330000D02*
X158034200Y-100330000D01*
X158034200Y-100330000D02*
X158346800Y-100330000D01*
X158034200Y-100771500D02*
X157927000Y-100878700D01*
X158034200Y-100330000D02*
X158034200Y-100771500D01*
X157927000Y-101854000D02*
X157927000Y-100878700D01*
X157508100Y-105519200D02*
X157144900Y-105156000D01*
X158877000Y-105519200D02*
X157508100Y-105519200D01*
X155956000Y-105156000D02*
X157144900Y-105156000D01*
X162049900Y-102743900D02*
X161980900Y-102743900D01*
X159686300Y-100222500D02*
X158454300Y-100222500D01*
X161980900Y-102517100D02*
X159686300Y-100222500D01*
X161980900Y-102743900D02*
X161980900Y-102517100D01*
X159602300Y-105122500D02*
X159602300Y-105519200D01*
X161980900Y-102743900D02*
X159602300Y-105122500D01*
X158877000Y-105519200D02*
X159602300Y-105519200D01*
X153880000Y-95914000D02*
X153880000Y-95238700D01*
X153880000Y-94405700D02*
X153880000Y-95238700D01*
X153670000Y-94195700D02*
X153880000Y-94405700D01*
X153670000Y-93370400D02*
X153670000Y-94195700D01*
X158750000Y-93370400D02*
X158750000Y-94195700D01*
X158750000Y-94510900D02*
X158750000Y-94195700D01*
X157409600Y-95851300D02*
X158750000Y-94510900D01*
X157247400Y-95851300D02*
X157409600Y-95851300D01*
X156130300Y-96968400D02*
X157247400Y-95851300D01*
X156130300Y-97239500D02*
X156130300Y-96968400D01*
X155764100Y-97605700D02*
X156130300Y-97239500D01*
X155247000Y-97605700D02*
X155764100Y-97605700D01*
X155205300Y-97564000D02*
X155247000Y-97605700D01*
X154530000Y-97564000D02*
X155205300Y-97564000D01*
X161965800Y-100203900D02*
X160654300Y-98892400D01*
X162049900Y-100203900D02*
X161965800Y-100203900D01*
X159799000Y-98892400D02*
X160654300Y-98892400D01*
X160870400Y-96992400D02*
X159799000Y-96992400D01*
X162049900Y-98171900D02*
X160870400Y-96992400D01*
X152392100Y-95226600D02*
X152380000Y-95238700D01*
X152392100Y-95060200D02*
X152392100Y-95226600D01*
X152380000Y-95914000D02*
X152380000Y-95238700D01*
X150058500Y-95060200D02*
X149880000Y-95238700D01*
X150817100Y-95060200D02*
X150058500Y-95060200D01*
X149880000Y-95914000D02*
X149880000Y-95238700D01*
X149380000Y-94971800D02*
X149380000Y-95914000D01*
X149274800Y-94866600D02*
X149380000Y-94971800D01*
X156415300Y-98564000D02*
X154530000Y-98564000D01*
X156743700Y-98892400D02*
X156415300Y-98564000D01*
X157599000Y-98892400D02*
X156743700Y-98892400D01*
X157599000Y-96992400D02*
X156972000Y-97129600D01*
X156743700Y-97263000D02*
X156972000Y-97129600D01*
X155942700Y-98064000D02*
X156743700Y-97263000D01*
X154530000Y-98064000D02*
X155942700Y-98064000D01*
X150876000Y-105156000D02*
X150876000Y-106331300D01*
X147730000Y-102064000D02*
X147054700Y-102064000D01*
X147054700Y-105578600D02*
X147054700Y-102064000D01*
X147807400Y-106331300D02*
X147054700Y-105578600D01*
X150876000Y-106331300D02*
X147807400Y-106331300D01*
X148380000Y-103936700D02*
X148380000Y-102714000D01*
X148336000Y-103980700D02*
X148380000Y-103936700D01*
X148336000Y-105156000D02*
X148336000Y-103980700D01*
D28*
G36*
X156265200Y-103658560D02*
X155092400Y-103658560D01*
X154857083Y-103702838D01*
X154640959Y-103841910D01*
X154495969Y-104054110D01*
X154477586Y-104144887D01*
X154299667Y-103953215D01*
X153773151Y-103711811D01*
X153543000Y-103834598D01*
X153543000Y-105029000D01*
X153563000Y-105029000D01*
X153563000Y-105283000D01*
X153543000Y-105283000D01*
X153543000Y-105303000D01*
X153289000Y-105303000D01*
X153289000Y-105283000D01*
X153269000Y-105283000D01*
X153269000Y-105029000D01*
X153289000Y-105029000D01*
X153289000Y-103834598D01*
X153058849Y-103711811D01*
X152532333Y-103953215D01*
X152145450Y-104370004D01*
X151969013Y-104105946D01*
X151487244Y-103784039D01*
X151065260Y-103700101D01*
X151134589Y-103687056D01*
X151255000Y-103711440D01*
X151505000Y-103711440D01*
X151634589Y-103687056D01*
X151755000Y-103711440D01*
X152005000Y-103711440D01*
X152134589Y-103687056D01*
X152255000Y-103711440D01*
X152505000Y-103711440D01*
X152634589Y-103687056D01*
X152755000Y-103711440D01*
X153005000Y-103711440D01*
X153110705Y-103691550D01*
X153128690Y-103699000D01*
X153158750Y-103699000D01*
X153179062Y-103678688D01*
X153240317Y-103667162D01*
X153380727Y-103576810D01*
X153503110Y-103660431D01*
X153577808Y-103675558D01*
X153601250Y-103699000D01*
X153631310Y-103699000D01*
X153651753Y-103690532D01*
X153755000Y-103711440D01*
X154005000Y-103711440D01*
X154240317Y-103667162D01*
X154456441Y-103528090D01*
X154493399Y-103474000D01*
X156080659Y-103474000D01*
X156265200Y-103658560D01*
X156265200Y-103658560D01*
G37*
X156265200Y-103658560D02*
X155092400Y-103658560D01*
X154857083Y-103702838D01*
X154640959Y-103841910D01*
X154495969Y-104054110D01*
X154477586Y-104144887D01*
X154299667Y-103953215D01*
X153773151Y-103711811D01*
X153543000Y-103834598D01*
X153543000Y-105029000D01*
X153563000Y-105029000D01*
X153563000Y-105283000D01*
X153543000Y-105283000D01*
X153543000Y-105303000D01*
X153289000Y-105303000D01*
X153289000Y-105283000D01*
X153269000Y-105283000D01*
X153269000Y-105029000D01*
X153289000Y-105029000D01*
X153289000Y-103834598D01*
X153058849Y-103711811D01*
X152532333Y-103953215D01*
X152145450Y-104370004D01*
X151969013Y-104105946D01*
X151487244Y-103784039D01*
X151065260Y-103700101D01*
X151134589Y-103687056D01*
X151255000Y-103711440D01*
X151505000Y-103711440D01*
X151634589Y-103687056D01*
X151755000Y-103711440D01*
X152005000Y-103711440D01*
X152134589Y-103687056D01*
X152255000Y-103711440D01*
X152505000Y-103711440D01*
X152634589Y-103687056D01*
X152755000Y-103711440D01*
X153005000Y-103711440D01*
X153110705Y-103691550D01*
X153128690Y-103699000D01*
X153158750Y-103699000D01*
X153179062Y-103678688D01*
X153240317Y-103667162D01*
X153380727Y-103576810D01*
X153503110Y-103660431D01*
X153577808Y-103675558D01*
X153601250Y-103699000D01*
X153631310Y-103699000D01*
X153651753Y-103690532D01*
X153755000Y-103711440D01*
X154005000Y-103711440D01*
X154240317Y-103667162D01*
X154456441Y-103528090D01*
X154493399Y-103474000D01*
X156080659Y-103474000D01*
X156265200Y-103658560D01*
G36*
X161854957Y-92834118D02*
X161753336Y-93345000D01*
X161854957Y-93855882D01*
X162112500Y-94241323D01*
X161704342Y-94262055D01*
X161325615Y-94418929D01*
X161257555Y-94659930D01*
X162049880Y-95452255D01*
X162064023Y-95438113D01*
X162243628Y-95617718D01*
X162229485Y-95631860D01*
X163021810Y-96424185D01*
X163262811Y-96356125D01*
X163447647Y-95836826D01*
X163419685Y-95286322D01*
X163262811Y-94907595D01*
X163021812Y-94839536D01*
X163136865Y-94724483D01*
X163092382Y-94680000D01*
X165587664Y-94680000D01*
X166098546Y-94578379D01*
X166295000Y-94447113D01*
X166295000Y-103926887D01*
X166098546Y-103795621D01*
X165587664Y-103694000D01*
X163088336Y-103694000D01*
X163052055Y-103701217D01*
X163223824Y-103529747D01*
X163435209Y-103020676D01*
X163435690Y-102469462D01*
X163225194Y-101960023D01*
X162835767Y-101569916D01*
X162604499Y-101473885D01*
X162833717Y-101379174D01*
X163223824Y-100989747D01*
X163435209Y-100480676D01*
X163435690Y-99929462D01*
X163225194Y-99420023D01*
X162993373Y-99187797D01*
X163223824Y-98957747D01*
X163435209Y-98448676D01*
X163435690Y-97897462D01*
X163225194Y-97388023D01*
X162835767Y-96997916D01*
X162620384Y-96908481D01*
X162774145Y-96844791D01*
X162842205Y-96603790D01*
X162049880Y-95811465D01*
X162035738Y-95825608D01*
X161856133Y-95646003D01*
X161870275Y-95631860D01*
X161077950Y-94839535D01*
X160836949Y-94907595D01*
X160652113Y-95426894D01*
X160680075Y-95977398D01*
X160773285Y-96202427D01*
X160580890Y-96070969D01*
X160329000Y-96019960D01*
X159269000Y-96019960D01*
X159033683Y-96064238D01*
X158817559Y-96203310D01*
X158697767Y-96378632D01*
X158593090Y-96215959D01*
X158380890Y-96070969D01*
X158284294Y-96051408D01*
X159287401Y-95048301D01*
X159452148Y-94801739D01*
X159510000Y-94510900D01*
X159510000Y-94216265D01*
X159574802Y-94172966D01*
X159820839Y-93804746D01*
X159907236Y-93370400D01*
X159820839Y-92936054D01*
X159719908Y-92785000D01*
X161887776Y-92785000D01*
X161854957Y-92834118D01*
X161854957Y-92834118D01*
G37*
X161854957Y-92834118D02*
X161753336Y-93345000D01*
X161854957Y-93855882D01*
X162112500Y-94241323D01*
X161704342Y-94262055D01*
X161325615Y-94418929D01*
X161257555Y-94659930D01*
X162049880Y-95452255D01*
X162064023Y-95438113D01*
X162243628Y-95617718D01*
X162229485Y-95631860D01*
X163021810Y-96424185D01*
X163262811Y-96356125D01*
X163447647Y-95836826D01*
X163419685Y-95286322D01*
X163262811Y-94907595D01*
X163021812Y-94839536D01*
X163136865Y-94724483D01*
X163092382Y-94680000D01*
X165587664Y-94680000D01*
X166098546Y-94578379D01*
X166295000Y-94447113D01*
X166295000Y-103926887D01*
X166098546Y-103795621D01*
X165587664Y-103694000D01*
X163088336Y-103694000D01*
X163052055Y-103701217D01*
X163223824Y-103529747D01*
X163435209Y-103020676D01*
X163435690Y-102469462D01*
X163225194Y-101960023D01*
X162835767Y-101569916D01*
X162604499Y-101473885D01*
X162833717Y-101379174D01*
X163223824Y-100989747D01*
X163435209Y-100480676D01*
X163435690Y-99929462D01*
X163225194Y-99420023D01*
X162993373Y-99187797D01*
X163223824Y-98957747D01*
X163435209Y-98448676D01*
X163435690Y-97897462D01*
X163225194Y-97388023D01*
X162835767Y-96997916D01*
X162620384Y-96908481D01*
X162774145Y-96844791D01*
X162842205Y-96603790D01*
X162049880Y-95811465D01*
X162035738Y-95825608D01*
X161856133Y-95646003D01*
X161870275Y-95631860D01*
X161077950Y-94839535D01*
X160836949Y-94907595D01*
X160652113Y-95426894D01*
X160680075Y-95977398D01*
X160773285Y-96202427D01*
X160580890Y-96070969D01*
X160329000Y-96019960D01*
X159269000Y-96019960D01*
X159033683Y-96064238D01*
X158817559Y-96203310D01*
X158697767Y-96378632D01*
X158593090Y-96215959D01*
X158380890Y-96070969D01*
X158284294Y-96051408D01*
X159287401Y-95048301D01*
X159452148Y-94801739D01*
X159510000Y-94510900D01*
X159510000Y-94216265D01*
X159574802Y-94172966D01*
X159820839Y-93804746D01*
X159907236Y-93370400D01*
X159820839Y-92936054D01*
X159719908Y-92785000D01*
X161887776Y-92785000D01*
X161854957Y-92834118D01*
G36*
X159954000Y-101727000D02*
X159974000Y-101727000D01*
X159974000Y-101981000D01*
X159954000Y-101981000D01*
X159954000Y-103393240D01*
X159974000Y-103393240D01*
X159974000Y-103647240D01*
X159954000Y-103647240D01*
X159954000Y-103667240D01*
X159700000Y-103667240D01*
X159700000Y-103647240D01*
X159680000Y-103647240D01*
X159680000Y-103393240D01*
X159700000Y-103393240D01*
X159700000Y-101981000D01*
X159680000Y-101981000D01*
X159680000Y-101727000D01*
X159700000Y-101727000D01*
X159700000Y-101707000D01*
X159954000Y-101707000D01*
X159954000Y-101727000D01*
X159954000Y-101727000D01*
G37*
X159954000Y-101727000D02*
X159974000Y-101727000D01*
X159974000Y-101981000D01*
X159954000Y-101981000D01*
X159954000Y-103393240D01*
X159974000Y-103393240D01*
X159974000Y-103647240D01*
X159954000Y-103647240D01*
X159954000Y-103667240D01*
X159700000Y-103667240D01*
X159700000Y-103647240D01*
X159680000Y-103647240D01*
X159680000Y-103393240D01*
X159700000Y-103393240D01*
X159700000Y-101981000D01*
X159680000Y-101981000D01*
X159680000Y-101727000D01*
X159700000Y-101727000D01*
X159700000Y-101707000D01*
X159954000Y-101707000D01*
X159954000Y-101727000D01*
G36*
X149325750Y-97255750D02*
X150359250Y-97255750D01*
X150359250Y-97235750D01*
X150613250Y-97235750D01*
X150613250Y-97255750D01*
X151646750Y-97255750D01*
X151646750Y-97235750D01*
X151900750Y-97235750D01*
X151900750Y-97255750D01*
X152934250Y-97255750D01*
X152934250Y-97235750D01*
X153188250Y-97235750D01*
X153188250Y-97255750D01*
X153208250Y-97255750D01*
X153208250Y-97509750D01*
X153188250Y-97509750D01*
X153188250Y-98543250D01*
X153208250Y-98543250D01*
X153208250Y-98797250D01*
X153188250Y-98797250D01*
X153188250Y-99830750D01*
X153208250Y-99830750D01*
X153208250Y-100084750D01*
X153188250Y-100084750D01*
X153188250Y-101118250D01*
X153208250Y-101118250D01*
X153208250Y-101372250D01*
X153188250Y-101372250D01*
X153188250Y-101392250D01*
X152934250Y-101392250D01*
X152934250Y-101372250D01*
X151900750Y-101372250D01*
X151900750Y-101392250D01*
X151646750Y-101392250D01*
X151646750Y-101372250D01*
X150613250Y-101372250D01*
X150613250Y-101392250D01*
X150359250Y-101392250D01*
X150359250Y-101372250D01*
X149325750Y-101372250D01*
X149325750Y-101392250D01*
X149071750Y-101392250D01*
X149071750Y-101372250D01*
X149051750Y-101372250D01*
X149051750Y-101118250D01*
X149071750Y-101118250D01*
X149071750Y-100243500D01*
X149207500Y-100243500D01*
X149207500Y-100959500D01*
X149325750Y-101077750D01*
X149325750Y-101118250D01*
X149366250Y-101118250D01*
X149484500Y-101236500D01*
X150200500Y-101236500D01*
X150318750Y-101118250D01*
X150359250Y-101118250D01*
X150359250Y-101077750D01*
X150477500Y-100959500D01*
X150477500Y-100243500D01*
X150495000Y-100243500D01*
X150495000Y-100959500D01*
X150613250Y-101077750D01*
X150613250Y-101118250D01*
X150653750Y-101118250D01*
X150772000Y-101236500D01*
X151488000Y-101236500D01*
X151606250Y-101118250D01*
X151646750Y-101118250D01*
X151646750Y-101077750D01*
X151765000Y-100959500D01*
X151765000Y-100243500D01*
X151782500Y-100243500D01*
X151782500Y-100959500D01*
X151900750Y-101077750D01*
X151900750Y-101118250D01*
X151941250Y-101118250D01*
X152059500Y-101236500D01*
X152775500Y-101236500D01*
X152893750Y-101118250D01*
X152934250Y-101118250D01*
X152934250Y-101077750D01*
X153052500Y-100959500D01*
X153052500Y-100243500D01*
X152934250Y-100125250D01*
X152934250Y-100084750D01*
X152893750Y-100084750D01*
X152775500Y-99966500D01*
X152059500Y-99966500D01*
X151941250Y-100084750D01*
X151900750Y-100084750D01*
X151900750Y-100125250D01*
X151782500Y-100243500D01*
X151765000Y-100243500D01*
X151646750Y-100125250D01*
X151646750Y-100084750D01*
X151606250Y-100084750D01*
X151488000Y-99966500D01*
X150772000Y-99966500D01*
X150653750Y-100084750D01*
X150613250Y-100084750D01*
X150613250Y-100125250D01*
X150495000Y-100243500D01*
X150477500Y-100243500D01*
X150359250Y-100125250D01*
X150359250Y-100084750D01*
X150318750Y-100084750D01*
X150200500Y-99966500D01*
X149484500Y-99966500D01*
X149366250Y-100084750D01*
X149325750Y-100084750D01*
X149325750Y-100125250D01*
X149207500Y-100243500D01*
X149071750Y-100243500D01*
X149071750Y-100084750D01*
X149051750Y-100084750D01*
X149051750Y-99830750D01*
X149071750Y-99830750D01*
X149071750Y-98956000D01*
X149207500Y-98956000D01*
X149207500Y-99672000D01*
X149325750Y-99790250D01*
X149325750Y-99830750D01*
X149366250Y-99830750D01*
X149484500Y-99949000D01*
X150200500Y-99949000D01*
X150318750Y-99830750D01*
X150359250Y-99830750D01*
X150359250Y-99790250D01*
X150477500Y-99672000D01*
X150477500Y-98956000D01*
X150495000Y-98956000D01*
X150495000Y-99672000D01*
X150613250Y-99790250D01*
X150613250Y-99830750D01*
X150653750Y-99830750D01*
X150772000Y-99949000D01*
X151488000Y-99949000D01*
X151606250Y-99830750D01*
X151646750Y-99830750D01*
X151646750Y-99790250D01*
X151765000Y-99672000D01*
X151765000Y-98956000D01*
X151782500Y-98956000D01*
X151782500Y-99672000D01*
X151900750Y-99790250D01*
X151900750Y-99830750D01*
X151941250Y-99830750D01*
X152059500Y-99949000D01*
X152775500Y-99949000D01*
X152893750Y-99830750D01*
X152934250Y-99830750D01*
X152934250Y-99790250D01*
X153052500Y-99672000D01*
X153052500Y-98956000D01*
X152934250Y-98837750D01*
X152934250Y-98797250D01*
X152893750Y-98797250D01*
X152775500Y-98679000D01*
X152059500Y-98679000D01*
X151941250Y-98797250D01*
X151900750Y-98797250D01*
X151900750Y-98837750D01*
X151782500Y-98956000D01*
X151765000Y-98956000D01*
X151646750Y-98837750D01*
X151646750Y-98797250D01*
X151606250Y-98797250D01*
X151488000Y-98679000D01*
X150772000Y-98679000D01*
X150653750Y-98797250D01*
X150613250Y-98797250D01*
X150613250Y-98837750D01*
X150495000Y-98956000D01*
X150477500Y-98956000D01*
X150359250Y-98837750D01*
X150359250Y-98797250D01*
X150318750Y-98797250D01*
X150200500Y-98679000D01*
X149484500Y-98679000D01*
X149366250Y-98797250D01*
X149325750Y-98797250D01*
X149325750Y-98837750D01*
X149207500Y-98956000D01*
X149071750Y-98956000D01*
X149071750Y-98797250D01*
X149051750Y-98797250D01*
X149051750Y-98543250D01*
X149071750Y-98543250D01*
X149071750Y-97668500D01*
X149207500Y-97668500D01*
X149207500Y-98384500D01*
X149325750Y-98502750D01*
X149325750Y-98543250D01*
X149366250Y-98543250D01*
X149484500Y-98661500D01*
X150200500Y-98661500D01*
X150318750Y-98543250D01*
X150359250Y-98543250D01*
X150359250Y-98502750D01*
X150477500Y-98384500D01*
X150477500Y-97668500D01*
X150495000Y-97668500D01*
X150495000Y-98384500D01*
X150613250Y-98502750D01*
X150613250Y-98543250D01*
X150653750Y-98543250D01*
X150772000Y-98661500D01*
X151488000Y-98661500D01*
X151606250Y-98543250D01*
X151646750Y-98543250D01*
X151646750Y-98502750D01*
X151765000Y-98384500D01*
X151765000Y-97668500D01*
X151782500Y-97668500D01*
X151782500Y-98384500D01*
X151900750Y-98502750D01*
X151900750Y-98543250D01*
X151941250Y-98543250D01*
X152059500Y-98661500D01*
X152775500Y-98661500D01*
X152893750Y-98543250D01*
X152934250Y-98543250D01*
X152934250Y-98502750D01*
X153052500Y-98384500D01*
X153052500Y-97668500D01*
X152934250Y-97550250D01*
X152934250Y-97509750D01*
X152893750Y-97509750D01*
X152775500Y-97391500D01*
X152059500Y-97391500D01*
X151941250Y-97509750D01*
X151900750Y-97509750D01*
X151900750Y-97550250D01*
X151782500Y-97668500D01*
X151765000Y-97668500D01*
X151646750Y-97550250D01*
X151646750Y-97509750D01*
X151606250Y-97509750D01*
X151488000Y-97391500D01*
X150772000Y-97391500D01*
X150653750Y-97509750D01*
X150613250Y-97509750D01*
X150613250Y-97550250D01*
X150495000Y-97668500D01*
X150477500Y-97668500D01*
X150359250Y-97550250D01*
X150359250Y-97509750D01*
X150318750Y-97509750D01*
X150200500Y-97391500D01*
X149484500Y-97391500D01*
X149366250Y-97509750D01*
X149325750Y-97509750D01*
X149325750Y-97550250D01*
X149207500Y-97668500D01*
X149071750Y-97668500D01*
X149071750Y-97509750D01*
X149051750Y-97509750D01*
X149051750Y-97255750D01*
X149071750Y-97255750D01*
X149071750Y-97235750D01*
X149325750Y-97235750D01*
X149325750Y-97255750D01*
X149325750Y-97255750D01*
G37*
X149325750Y-97255750D02*
X150359250Y-97255750D01*
X150359250Y-97235750D01*
X150613250Y-97235750D01*
X150613250Y-97255750D01*
X151646750Y-97255750D01*
X151646750Y-97235750D01*
X151900750Y-97235750D01*
X151900750Y-97255750D01*
X152934250Y-97255750D01*
X152934250Y-97235750D01*
X153188250Y-97235750D01*
X153188250Y-97255750D01*
X153208250Y-97255750D01*
X153208250Y-97509750D01*
X153188250Y-97509750D01*
X153188250Y-98543250D01*
X153208250Y-98543250D01*
X153208250Y-98797250D01*
X153188250Y-98797250D01*
X153188250Y-99830750D01*
X153208250Y-99830750D01*
X153208250Y-100084750D01*
X153188250Y-100084750D01*
X153188250Y-101118250D01*
X153208250Y-101118250D01*
X153208250Y-101372250D01*
X153188250Y-101372250D01*
X153188250Y-101392250D01*
X152934250Y-101392250D01*
X152934250Y-101372250D01*
X151900750Y-101372250D01*
X151900750Y-101392250D01*
X151646750Y-101392250D01*
X151646750Y-101372250D01*
X150613250Y-101372250D01*
X150613250Y-101392250D01*
X150359250Y-101392250D01*
X150359250Y-101372250D01*
X149325750Y-101372250D01*
X149325750Y-101392250D01*
X149071750Y-101392250D01*
X149071750Y-101372250D01*
X149051750Y-101372250D01*
X149051750Y-101118250D01*
X149071750Y-101118250D01*
X149071750Y-100243500D01*
X149207500Y-100243500D01*
X149207500Y-100959500D01*
X149325750Y-101077750D01*
X149325750Y-101118250D01*
X149366250Y-101118250D01*
X149484500Y-101236500D01*
X150200500Y-101236500D01*
X150318750Y-101118250D01*
X150359250Y-101118250D01*
X150359250Y-101077750D01*
X150477500Y-100959500D01*
X150477500Y-100243500D01*
X150495000Y-100243500D01*
X150495000Y-100959500D01*
X150613250Y-101077750D01*
X150613250Y-101118250D01*
X150653750Y-101118250D01*
X150772000Y-101236500D01*
X151488000Y-101236500D01*
X151606250Y-101118250D01*
X151646750Y-101118250D01*
X151646750Y-101077750D01*
X151765000Y-100959500D01*
X151765000Y-100243500D01*
X151782500Y-100243500D01*
X151782500Y-100959500D01*
X151900750Y-101077750D01*
X151900750Y-101118250D01*
X151941250Y-101118250D01*
X152059500Y-101236500D01*
X152775500Y-101236500D01*
X152893750Y-101118250D01*
X152934250Y-101118250D01*
X152934250Y-101077750D01*
X153052500Y-100959500D01*
X153052500Y-100243500D01*
X152934250Y-100125250D01*
X152934250Y-100084750D01*
X152893750Y-100084750D01*
X152775500Y-99966500D01*
X152059500Y-99966500D01*
X151941250Y-100084750D01*
X151900750Y-100084750D01*
X151900750Y-100125250D01*
X151782500Y-100243500D01*
X151765000Y-100243500D01*
X151646750Y-100125250D01*
X151646750Y-100084750D01*
X151606250Y-100084750D01*
X151488000Y-99966500D01*
X150772000Y-99966500D01*
X150653750Y-100084750D01*
X150613250Y-100084750D01*
X150613250Y-100125250D01*
X150495000Y-100243500D01*
X150477500Y-100243500D01*
X150359250Y-100125250D01*
X150359250Y-100084750D01*
X150318750Y-100084750D01*
X150200500Y-99966500D01*
X149484500Y-99966500D01*
X149366250Y-100084750D01*
X149325750Y-100084750D01*
X149325750Y-100125250D01*
X149207500Y-100243500D01*
X149071750Y-100243500D01*
X149071750Y-100084750D01*
X149051750Y-100084750D01*
X149051750Y-99830750D01*
X149071750Y-99830750D01*
X149071750Y-98956000D01*
X149207500Y-98956000D01*
X149207500Y-99672000D01*
X149325750Y-99790250D01*
X149325750Y-99830750D01*
X149366250Y-99830750D01*
X149484500Y-99949000D01*
X150200500Y-99949000D01*
X150318750Y-99830750D01*
X150359250Y-99830750D01*
X150359250Y-99790250D01*
X150477500Y-99672000D01*
X150477500Y-98956000D01*
X150495000Y-98956000D01*
X150495000Y-99672000D01*
X150613250Y-99790250D01*
X150613250Y-99830750D01*
X150653750Y-99830750D01*
X150772000Y-99949000D01*
X151488000Y-99949000D01*
X151606250Y-99830750D01*
X151646750Y-99830750D01*
X151646750Y-99790250D01*
X151765000Y-99672000D01*
X151765000Y-98956000D01*
X151782500Y-98956000D01*
X151782500Y-99672000D01*
X151900750Y-99790250D01*
X151900750Y-99830750D01*
X151941250Y-99830750D01*
X152059500Y-99949000D01*
X152775500Y-99949000D01*
X152893750Y-99830750D01*
X152934250Y-99830750D01*
X152934250Y-99790250D01*
X153052500Y-99672000D01*
X153052500Y-98956000D01*
X152934250Y-98837750D01*
X152934250Y-98797250D01*
X152893750Y-98797250D01*
X152775500Y-98679000D01*
X152059500Y-98679000D01*
X151941250Y-98797250D01*
X151900750Y-98797250D01*
X151900750Y-98837750D01*
X151782500Y-98956000D01*
X151765000Y-98956000D01*
X151646750Y-98837750D01*
X151646750Y-98797250D01*
X151606250Y-98797250D01*
X151488000Y-98679000D01*
X150772000Y-98679000D01*
X150653750Y-98797250D01*
X150613250Y-98797250D01*
X150613250Y-98837750D01*
X150495000Y-98956000D01*
X150477500Y-98956000D01*
X150359250Y-98837750D01*
X150359250Y-98797250D01*
X150318750Y-98797250D01*
X150200500Y-98679000D01*
X149484500Y-98679000D01*
X149366250Y-98797250D01*
X149325750Y-98797250D01*
X149325750Y-98837750D01*
X149207500Y-98956000D01*
X149071750Y-98956000D01*
X149071750Y-98797250D01*
X149051750Y-98797250D01*
X149051750Y-98543250D01*
X149071750Y-98543250D01*
X149071750Y-97668500D01*
X149207500Y-97668500D01*
X149207500Y-98384500D01*
X149325750Y-98502750D01*
X149325750Y-98543250D01*
X149366250Y-98543250D01*
X149484500Y-98661500D01*
X150200500Y-98661500D01*
X150318750Y-98543250D01*
X150359250Y-98543250D01*
X150359250Y-98502750D01*
X150477500Y-98384500D01*
X150477500Y-97668500D01*
X150495000Y-97668500D01*
X150495000Y-98384500D01*
X150613250Y-98502750D01*
X150613250Y-98543250D01*
X150653750Y-98543250D01*
X150772000Y-98661500D01*
X151488000Y-98661500D01*
X151606250Y-98543250D01*
X151646750Y-98543250D01*
X151646750Y-98502750D01*
X151765000Y-98384500D01*
X151765000Y-97668500D01*
X151782500Y-97668500D01*
X151782500Y-98384500D01*
X151900750Y-98502750D01*
X151900750Y-98543250D01*
X151941250Y-98543250D01*
X152059500Y-98661500D01*
X152775500Y-98661500D01*
X152893750Y-98543250D01*
X152934250Y-98543250D01*
X152934250Y-98502750D01*
X153052500Y-98384500D01*
X153052500Y-97668500D01*
X152934250Y-97550250D01*
X152934250Y-97509750D01*
X152893750Y-97509750D01*
X152775500Y-97391500D01*
X152059500Y-97391500D01*
X151941250Y-97509750D01*
X151900750Y-97509750D01*
X151900750Y-97550250D01*
X151782500Y-97668500D01*
X151765000Y-97668500D01*
X151646750Y-97550250D01*
X151646750Y-97509750D01*
X151606250Y-97509750D01*
X151488000Y-97391500D01*
X150772000Y-97391500D01*
X150653750Y-97509750D01*
X150613250Y-97509750D01*
X150613250Y-97550250D01*
X150495000Y-97668500D01*
X150477500Y-97668500D01*
X150359250Y-97550250D01*
X150359250Y-97509750D01*
X150318750Y-97509750D01*
X150200500Y-97391500D01*
X149484500Y-97391500D01*
X149366250Y-97509750D01*
X149325750Y-97509750D01*
X149325750Y-97550250D01*
X149207500Y-97668500D01*
X149071750Y-97668500D01*
X149071750Y-97509750D01*
X149051750Y-97509750D01*
X149051750Y-97255750D01*
X149071750Y-97255750D01*
X149071750Y-97235750D01*
X149325750Y-97235750D01*
X149325750Y-97255750D01*
G36*
X145461599Y-96498301D02*
X145914300Y-96951002D01*
X145914300Y-98801000D01*
X145820998Y-98801000D01*
X145820998Y-98959748D01*
X145662250Y-98801000D01*
X145171690Y-98801000D01*
X144938301Y-98897673D01*
X144759673Y-99076302D01*
X144663000Y-99309691D01*
X144663000Y-99500250D01*
X144821750Y-99659000D01*
X145821000Y-99659000D01*
X145821000Y-99639000D01*
X146075000Y-99639000D01*
X146075000Y-99659000D01*
X146095000Y-99659000D01*
X146095000Y-99867772D01*
X145997380Y-99933000D01*
X145821000Y-99933000D01*
X145821000Y-99913000D01*
X144821750Y-99913000D01*
X144663000Y-100071750D01*
X144663000Y-100185891D01*
X144411944Y-100018141D01*
X143789854Y-99894400D01*
X141706146Y-99894400D01*
X141102000Y-100014572D01*
X141102000Y-98025428D01*
X141706146Y-98145600D01*
X143789854Y-98145600D01*
X144411944Y-98021859D01*
X144939327Y-97669473D01*
X145291713Y-97142090D01*
X145415454Y-96520000D01*
X145389748Y-96390769D01*
X145461599Y-96498301D01*
X145461599Y-96498301D01*
G37*
X145461599Y-96498301D02*
X145914300Y-96951002D01*
X145914300Y-98801000D01*
X145820998Y-98801000D01*
X145820998Y-98959748D01*
X145662250Y-98801000D01*
X145171690Y-98801000D01*
X144938301Y-98897673D01*
X144759673Y-99076302D01*
X144663000Y-99309691D01*
X144663000Y-99500250D01*
X144821750Y-99659000D01*
X145821000Y-99659000D01*
X145821000Y-99639000D01*
X146075000Y-99639000D01*
X146075000Y-99659000D01*
X146095000Y-99659000D01*
X146095000Y-99867772D01*
X145997380Y-99933000D01*
X145821000Y-99933000D01*
X145821000Y-99913000D01*
X144821750Y-99913000D01*
X144663000Y-100071750D01*
X144663000Y-100185891D01*
X144411944Y-100018141D01*
X143789854Y-99894400D01*
X141706146Y-99894400D01*
X141102000Y-100014572D01*
X141102000Y-98025428D01*
X141706146Y-98145600D01*
X143789854Y-98145600D01*
X144411944Y-98021859D01*
X144939327Y-97669473D01*
X145291713Y-97142090D01*
X145415454Y-96520000D01*
X145389748Y-96390769D01*
X145461599Y-96498301D01*
G36*
X141229092Y-92953461D02*
X141253144Y-93603460D01*
X141455613Y-94092264D01*
X141722468Y-94190927D01*
X142695395Y-93218000D01*
X142681253Y-93203858D01*
X142860858Y-93024253D01*
X142875000Y-93038395D01*
X142889143Y-93024253D01*
X143068748Y-93203858D01*
X143054605Y-93218000D01*
X144027532Y-94190927D01*
X144286450Y-94095199D01*
X144298552Y-94156039D01*
X144463299Y-94402601D01*
X144751195Y-94690497D01*
X144701560Y-94935600D01*
X144701560Y-95211656D01*
X144411944Y-95018141D01*
X143789854Y-94894400D01*
X141706146Y-94894400D01*
X141102000Y-95014572D01*
X141102000Y-94370532D01*
X141902073Y-94370532D01*
X142000736Y-94637387D01*
X142610461Y-94863908D01*
X143260460Y-94839856D01*
X143749264Y-94637387D01*
X143847927Y-94370532D01*
X142875000Y-93397605D01*
X141902073Y-94370532D01*
X141102000Y-94370532D01*
X141102000Y-92785000D01*
X141291678Y-92785000D01*
X141229092Y-92953461D01*
X141229092Y-92953461D01*
G37*
X141229092Y-92953461D02*
X141253144Y-93603460D01*
X141455613Y-94092264D01*
X141722468Y-94190927D01*
X142695395Y-93218000D01*
X142681253Y-93203858D01*
X142860858Y-93024253D01*
X142875000Y-93038395D01*
X142889143Y-93024253D01*
X143068748Y-93203858D01*
X143054605Y-93218000D01*
X144027532Y-94190927D01*
X144286450Y-94095199D01*
X144298552Y-94156039D01*
X144463299Y-94402601D01*
X144751195Y-94690497D01*
X144701560Y-94935600D01*
X144701560Y-95211656D01*
X144411944Y-95018141D01*
X143789854Y-94894400D01*
X141706146Y-94894400D01*
X141102000Y-95014572D01*
X141102000Y-94370532D01*
X141902073Y-94370532D01*
X142000736Y-94637387D01*
X142610461Y-94863908D01*
X143260460Y-94839856D01*
X143749264Y-94637387D01*
X143847927Y-94370532D01*
X142875000Y-93397605D01*
X141902073Y-94370532D01*
X141102000Y-94370532D01*
X141102000Y-92785000D01*
X141291678Y-92785000D01*
X141229092Y-92953461D01*
G36*
X157679161Y-92936054D02*
X157592764Y-93370400D01*
X157679161Y-93804746D01*
X157925198Y-94172966D01*
X157977911Y-94208187D01*
X157907859Y-94278239D01*
X157850827Y-94221108D01*
X157507299Y-94078462D01*
X157135333Y-94078138D01*
X157033215Y-94120332D01*
X157197127Y-93930609D01*
X157304119Y-93672274D01*
X157177954Y-93497400D01*
X156337000Y-93497400D01*
X156337000Y-93517400D01*
X156106823Y-93517400D01*
X156067801Y-93458999D01*
X156063000Y-93454198D01*
X156063000Y-93243400D01*
X156083000Y-93243400D01*
X156083000Y-93223400D01*
X156337000Y-93223400D01*
X156337000Y-93243400D01*
X157177954Y-93243400D01*
X157304119Y-93068526D01*
X157197127Y-92810191D01*
X157175363Y-92785000D01*
X157780092Y-92785000D01*
X157679161Y-92936054D01*
X157679161Y-92936054D01*
G37*
X157679161Y-92936054D02*
X157592764Y-93370400D01*
X157679161Y-93804746D01*
X157925198Y-94172966D01*
X157977911Y-94208187D01*
X157907859Y-94278239D01*
X157850827Y-94221108D01*
X157507299Y-94078462D01*
X157135333Y-94078138D01*
X157033215Y-94120332D01*
X157197127Y-93930609D01*
X157304119Y-93672274D01*
X157177954Y-93497400D01*
X156337000Y-93497400D01*
X156337000Y-93517400D01*
X156106823Y-93517400D01*
X156067801Y-93458999D01*
X156063000Y-93454198D01*
X156063000Y-93243400D01*
X156083000Y-93243400D01*
X156083000Y-93223400D01*
X156337000Y-93223400D01*
X156337000Y-93243400D01*
X157177954Y-93243400D01*
X157304119Y-93068526D01*
X157197127Y-92810191D01*
X157175363Y-92785000D01*
X157780092Y-92785000D01*
X157679161Y-92936054D01*
M02*
