G04 #@! TF.FileFunction,Other,User*
%FSLAX46Y46*%
G04 Gerber Fmt 4.6, Leading zero omitted, Abs format (unit mm)*
G04 Created by KiCad (PCBNEW (2016-04-04 BZR 6663, Git 30f5a7a)-product) date 13/07/2016 18:07:22*
%MOMM*%
G01*
G04 APERTURE LIST*
%ADD10C,0.100000*%
%ADD11C,0.050000*%
G04 APERTURE END LIST*
D10*
D11*
X147130000Y-95314000D02*
X147130000Y-103314000D01*
X155130000Y-95314000D02*
X155130000Y-103314000D01*
X147130000Y-95314000D02*
X155130000Y-95314000D01*
X147130000Y-103314000D02*
X155130000Y-103314000D01*
X144999000Y-95935600D02*
X144999000Y-92735600D01*
X146999000Y-95935600D02*
X146999000Y-92735600D01*
X144999000Y-95935600D02*
X146999000Y-95935600D01*
X144999000Y-92735600D02*
X146999000Y-92735600D01*
X157277000Y-100854000D02*
X160477000Y-100854000D01*
X157277000Y-102854000D02*
X160477000Y-102854000D01*
X157277000Y-100854000D02*
X157277000Y-102854000D01*
X160477000Y-100854000D02*
X160477000Y-102854000D01*
X144948000Y-102336000D02*
X144948000Y-99136000D01*
X146948000Y-102336000D02*
X146948000Y-99136000D01*
X144948000Y-102336000D02*
X146948000Y-102336000D01*
X144948000Y-99136000D02*
X146948000Y-99136000D01*
X160527000Y-106121000D02*
X157227000Y-106121000D01*
X157227000Y-106121000D02*
X157227000Y-102921000D01*
X157227000Y-102921000D02*
X160527000Y-102921000D01*
X160527000Y-102921000D02*
X160527000Y-106121000D01*
M02*
