G04 #@! TF.FileFunction,Other,User*
%FSLAX46Y46*%
G04 Gerber Fmt 4.6, Leading zero omitted, Abs format (unit mm)*
G04 Created by KiCad (PCBNEW 4.0.4-stable) date 12/09/16 08:24:26*
%MOMM*%
%LPD*%
G01*
G04 APERTURE LIST*
%ADD10C,0.100000*%
%ADD11C,0.050000*%
G04 APERTURE END LIST*
D10*
D11*
X158766000Y-100508000D02*
X158766000Y-103708000D01*
X160766000Y-100508000D02*
X160766000Y-103708000D01*
X158766000Y-100508000D02*
X160766000Y-100508000D01*
X158766000Y-103708000D02*
X160766000Y-103708000D01*
X153178000Y-100559000D02*
X153178000Y-103759000D01*
X155178000Y-100559000D02*
X155178000Y-103759000D01*
X153178000Y-100559000D02*
X155178000Y-100559000D01*
X153178000Y-103759000D02*
X155178000Y-103759000D01*
X156607000Y-100508000D02*
X156607000Y-103708000D01*
X158607000Y-100508000D02*
X158607000Y-103708000D01*
X156607000Y-100508000D02*
X158607000Y-100508000D01*
X156607000Y-103708000D02*
X158607000Y-103708000D01*
X152150000Y-99400000D02*
X152150000Y-96100000D01*
X152150000Y-96100000D02*
X148950000Y-96100000D01*
X148950000Y-96100000D02*
X148950000Y-99400000D01*
X148950000Y-99400000D02*
X152150000Y-99400000D01*
X150943000Y-100559000D02*
X150943000Y-103759000D01*
X152943000Y-100559000D02*
X152943000Y-103759000D01*
X150943000Y-100559000D02*
X152943000Y-100559000D01*
X150943000Y-103759000D02*
X152943000Y-103759000D01*
X157204000Y-105902000D02*
X160804000Y-105902000D01*
X157204000Y-103902000D02*
X160804000Y-103902000D01*
X157204000Y-105902000D02*
X157204000Y-103902000D01*
X160804000Y-105902000D02*
X160804000Y-103902000D01*
X175252000Y-90331000D02*
X160652000Y-90331000D01*
X160652000Y-107581000D02*
X175252000Y-107581000D01*
X175252000Y-90331000D02*
X175252000Y-107581000D01*
X160652000Y-90331000D02*
X160652000Y-107581000D01*
X166550000Y-99250000D02*
G75*
G03X166550000Y-99250000I-1550000J0D01*
G01*
X147450000Y-98250000D02*
X147450000Y-100150000D01*
X148750000Y-98250000D02*
X148750000Y-100150000D01*
X147450000Y-98250000D02*
X148750000Y-98250000D01*
X147450000Y-100150000D02*
X148750000Y-100150000D01*
M02*
